<!DOCTYPE svg PUBLIC "-//W3C//DTD SVG 1.1//EN" "http://www.w3.org/Graphics/SVG/1.1/DTD/svg11.dtd">
<!-- Uploaded to: SVG Repo, www.svgrepo.com, Transformed by: SVG Repo Mixer Tools -->
<svg fill="#ff004c" height="800px" width="800px" version="1.1" id="Layer_1" xmlns="http://www.w3.org/2000/svg" xmlns:xlink="http://www.w3.org/1999/xlink" viewBox="0 0 512 512" xml:space="preserve">
<g id="SVGRepo_bgCarrier" stroke-width="0"/>
<g id="SVGRepo_tracerCarrier" stroke-linecap="round" stroke-linejoin="round"/>
<g id="SVGRepo_iconCarrier"> <g> <g> <path d="M219.656,233.066c-3.663,0-5.573,0.293-5.573,6.627v32.614c0.001,6.432,1.912,6.732,5.573,6.732 c3.666,0,5.581-0.3,5.581-6.732v-32.614C225.236,233.36,223.323,233.066,219.656,233.066z"/> </g> </g> <g> <g> <path d="M415.081,233.067h-5.468v45.344h5.468c3.522-0.001,5.681-0.326,5.681-6.735v-31.983 C420.762,233.374,418.71,233.067,415.081,233.067z"/> </g> </g> <g> <g> <path d="M493.268,90.934H18.732C8.387,90.934,0,99.321,0,109.666v292.668c0,10.344,8.387,18.732,18.732,18.732h474.537 c10.345,0,18.732-8.388,18.732-18.732V109.666C512,99.321,503.613,90.934,493.268,90.934z M97.445,279.039 c4.424,0,4.448-0.179,5.015-4.733c0.814-6.545,5.945-10.946,12.768-10.946c6.205,0,12.835,3.593,12.835,13.678 c0,13.491-10.769,27.148-31.351,27.148c-19.214,0-31.15-12.217-31.15-31.88v-32.614c0-19.6,12.055-31.775,31.461-31.775 c20.378,0,31.04,13.551,31.04,26.936c0,10.004-6.631,13.568-12.835,13.568c-7.061,0-12.33-4.654-12.815-11.319 c-0.005-0.081-0.01-0.164-0.015-0.244c-0.102-2.203-0.176-3.793-5.376-3.793c-4.012,0-5.786,0.267-5.786,6.627v32.614 C91.237,278.517,92.753,279.039,97.445,279.039z M178.121,303.558H144.35c-7.021,0-12.52-5.317-12.52-12.102v-71.654 c0-6.777,5.518-11.886,12.835-11.886c7.318,0,12.837,5.109,12.837,11.886v58.608h20.619c6.661,0,11.685,5.383,11.685,12.522 C189.806,298.13,184.782,303.558,178.121,303.558z M250.909,272.309c0,19.663-11.975,31.88-31.252,31.88 c-19.272,0-31.245-12.217-31.245-31.88v-32.614c0-19.6,11.972-31.775,31.245-31.775c19.279,0,31.252,12.176,31.252,31.775V272.309 z M284.452,304.297c-18.233,0-30.94-10.927-30.94-20.732c0-6.27,5.144-13.256,12.524-13.256c4.941,0,7.864,3.147,9.608,5.026 c1.921,2.07,3.438,3.705,8.382,3.705c6.313,0,6.313-2.39,6.313-5.156c0-4.05-0.928-5.266-10.776-8.966 c-9.034-3.394-24.156-9.076-24.156-28.699c0-17.321,12.432-28.512,31.673-28.512c10.044,0,27.041,3.324,27.041,15.786 c0,6.403-4.988,13.258-12.414,13.258c-2.905,0-5.141-1.153-6.776-1.994c-1.919-0.989-3.905-2.011-7.958-2.011 c-5.888,0-5.888,1.578-5.888,2.846c0,1.617,0.335,2.398,8.736,5.486c9.795,3.599,26.191,9.623,26.191,32.179 C316.011,292.113,303.624,304.297,284.452,304.297z M352.919,243.268v0.001c6.73,0,11.998,5.5,11.998,12.522 c0,6.846-5.269,12.209-11.998,12.209h-7.147v10.41h24.3c6.73,0,11.997,5.546,11.997,12.626c0,7.021-5.269,12.522-11.997,12.522 h-37.453c-7.022,0-12.524-5.317-12.524-12.102v-71.545c0-6.726,5.502-11.993,12.524-11.993h37.453 c6.842,0,11.997,5.336,11.997,12.412c0,7.142-5.269,12.736-11.997,12.736h-24.3v10.203H352.919z M446.438,271.675 c0,19.666-12.015,31.883-31.358,31.883H396.46c-6.904,0.001-12.522-5.38-12.522-11.992v-71.762c0-6.666,5.5-11.886,12.522-11.886 h18.619c19.344,0,31.358,12.176,31.358,31.775V271.675z"/> </g> </g> </g>
</svg>