<?xml version="1.0" encoding="UTF-8"?>
<svg version="1.1" xmlns="http://www.w3.org/2000/svg" width="1064" height="1063">
<path d="M0 0 C0 0.66 0 1.32 0 2 C0.89460938 1.86980469 1.78921875 1.73960938 2.7109375 1.60546875 C11.24462067 0.63201022 16.91542749 0.95308548 24 6 C26.875 8.5 26.875 8.5 29 11 C29.66 11.721875 30.32 12.44375 31 13.1875 C36.61766385 21.08733979 40.66857854 30.11994722 39.875 40 C38.39418118 48.39691582 34.34159679 55.43371709 29.68359375 62.45703125 C22.711198 72.98842251 23.86314152 83.74356239 24 96 C24.66 96 25.32 96 26 96 C29.96689189 111.52094595 29.96689189 111.52094595 31 117.25 C31.89777499 122.00339796 33.4029331 126.48259412 35 131.04296875 C35.70388982 133.12439296 36.34853419 135.22632401 36.94921875 137.33984375 C42.28253931 156.47186869 42.28253931 156.47186869 54 172 C54.825 172.825 55.65 173.65 56.5 174.5 C60.48990833 177.82667819 65.43871166 179.25947219 70.26953125 180.984375 C73 182 73 182 74 183 C77.19957045 183.28044044 80.41461409 183.23188781 83.625 183.25 C84.51574219 183.270625 85.40648437 183.29125 86.32421875 183.3125 C92.08895265 183.34646014 95.82336266 182.47748387 101 180 C102.32 180 103.64 180 105 180 C105 179.34 105 178.68 105 178 C107.63892176 176.21694476 109.97178863 175.00940379 113 174 C113.33 173.01 113.66 172.02 114 171 C114.66 171 115.32 171 116 171 C116 170.34 116 169.68 116 169 C116.55171875 168.49984375 117.1034375 167.9996875 117.671875 167.484375 C121.06417132 163.86440779 123.01429609 159.6499173 125.25 155.25 C125.70890625 154.36183594 126.1678125 153.47367188 126.640625 152.55859375 C127.7672349 150.37578706 128.88673453 148.18963414 130 146 C130.66 146 131.32 146 132 146 C132 143.36 132 140.72 132 138 C132.66 138 133.32 138 134 138 C133.9690625 136.2675 133.9690625 136.2675 133.9375 134.5 C133.92209258 131.58286275 134.1403334 128.87378786 134.625 126 C135.51245252 119.17853657 133.30714184 114.3996226 129.875 108.6875 C126.68783384 103.01794644 125.72208222 98.41716986 127 92 C128.37652718 88.47117087 130.03511621 85.23504082 132 82 C132.66 82 133.32 82 134 82 C134 81.34 134 80.68 134 80 C134.66 80 135.32 80 136 80 C136.061875 79.38125 136.12375 78.7625 136.1875 78.125 C137 76 137 76 139.125 74.75 C142.50456848 73.86837344 145.52156374 73.86359073 149 74 C149 73.34 149 72.68 149 72 C155.85929074 71.47236225 161.51574976 73.42345658 167.25 77.0625 C172.36765569 81.73824113 175.65646421 89.39022909 176.16796875 96.25390625 C176.17441406 97.01574219 176.18085937 97.77757813 176.1875 98.5625 C176.20167969 99.32691406 176.21585938 100.09132813 176.23046875 100.87890625 C176 103 176 103 174 106 C173.34 106 172.68 106 172 106 C172.061875 107.3303125 172.061875 107.3303125 172.125 108.6875 C172.00102754 111.97277013 171.38612096 114.05449295 170 117 C169.34 117 168.68 117 168 117 C167.855625 118.0725 167.71125 119.145 167.5625 120.25 C167.16250558 122.91662949 166.72408076 125.41399729 166 128 C165.34 128 164.68 128 164 128 C164.0309375 129.918125 164.0309375 129.918125 164.0625 131.875 C164.07981286 135.98391777 163.85703984 140.03199672 163.53979492 144.12792969 C162.98357069 151.71235604 163.02260572 159.05021254 163.75 166.625 C163.86093994 167.84968994 163.86093994 167.84968994 163.97412109 169.09912109 C164.41081607 173.08836659 165.10848167 176.5926695 166.578125 180.3359375 C168 184 168 184 168 188 C168.66 188 169.32 188 170 188 C171.9453125 190.1171875 171.9453125 190.1171875 174.125 192.875 C174.84945313 193.77992188 175.57390625 194.68484375 176.3203125 195.6171875 C178 198 178 198 178 200 C178.66 199.938125 179.32 199.87625 180 199.8125 C183 200 183 200 186.6875 201.5 C194.64752537 204.64803263 201.35779318 203.16229248 209 200 C210.32 200 211.64 200 213 200 C213.26167969 199.4121875 213.52335937 198.824375 213.79296875 198.21875 C215.06180618 195.88638864 216.45131776 194.38181619 218.3125 192.5 C224.78712376 185.22787561 228.32122555 175.73955882 228 166 C227.67471634 162.99348069 227.26917782 159.99814037 226.875 157 C225.21690458 143.8901359 225.21690458 143.8901359 229 138 C233.15447668 133.84552332 238.10790214 132.21150932 243.8984375 131.86328125 C247.1686051 132.0760245 249.28918552 133.21332682 252 135 C252.928125 135.5775 253.85625 136.155 254.8125 136.75 C257.68404754 139.70359176 257.76744217 141.96899756 258 146 C258.66 146 259.32 146 260 146 C260 149.3 260 152.6 260 156 C259.34 156 258.68 156 258 156 C257.9175 156.721875 257.835 157.44375 257.75 158.1875 C256.83672766 161.61227126 255.45764212 163.47007429 253 166 C252.01 166 251.02 166 250 166 C249.67 167.32 249.34 168.64 249 170 C248.34 170 247.68 170 247 170 C246.731875 170.53625 246.46375 171.0725 246.1875 171.625 C244.79166667 174.41666667 243.39583333 177.20833333 242 180 C241.34 180 240.68 180 240 180 C239.896875 180.86625 239.79375 181.7325 239.6875 182.625 C238.96601586 186.16683123 237.72876739 188.84312042 236 192 C235.34 192 234.68 192 234 192 C233.855625 193.093125 233.71125 194.18625 233.5625 195.3125 C233 199 233 199 232 202 C231.34 202 230.68 202 230 202 C229.86464844 202.62003906 229.72929688 203.24007812 229.58984375 203.87890625 C227.05841277 214.29263728 222.53849777 223.85284929 217 233 C215.98034573 235.32481174 214.97940398 237.65794699 214 240 C213.34711373 241.34013497 212.68774405 242.67741528 212 244 C211.34 244 210.68 244 210 244 C210 245.98 210 247.96 210 250 C209.34 250 208.68 250 208 250 C207.896875 251.051875 207.79375 252.10375 207.6875 253.1875 C207.01174757 256.93485437 206.03379011 258.86457358 204 262 C203.30420546 264.19130534 203.30420546 264.19130534 203 266 C202.34 266 201.68 266 201 266 C200.690625 267.258125 200.38125 268.51625 200.0625 269.8125 C199.46021952 272.26177394 198.79911359 274.60265923 198 277 C197.34 277 196.68 277 196 277 C195.87625 277.7425 195.7525 278.485 195.625 279.25 C195 282 195 282 193.98022461 283.79370117 C192.71429356 286.64307076 192.72742096 288.93727451 192.69140625 292.05078125 C192.66626953 293.22447266 192.64113281 294.39816406 192.61523438 295.60742188 C192.58024563 298.06570484 192.5489596 300.52404346 192.52148438 302.98242188 C192.37586038 309.47156896 192.00833879 314.23787416 189 320 C188.3932421 322.27436316 188.3932421 322.27436316 188.0625 324.375 C187.23249246 328.40938091 185.87114039 331.86007719 184.12109375 335.578125 C182.90409174 338.20718858 181.82903784 340.8739882 180.75 343.5625 C177.85367345 350.56569207 174.44060356 357.2867833 170.99951172 364.03320312 C169.31558227 367.34676825 167.65928527 370.67403843 166 374 C165.34 374 164.68 374 164 374 C163.02840067 381.68604474 162.89079578 389.25863399 163 397 C163.74121094 397.12632812 164.48242188 397.25265625 165.24609375 397.3828125 C170.31712136 398.51929812 176.37185256 401.22067975 180 405 C180.25 407.6875 180.25 407.6875 180 410 C180.66 410 181.32 410 182 410 C182.77254551 419.65681886 180.49773372 429.68873682 174.1875 437.1875 C169.36338907 441.95840383 164.89947967 444.07203993 158.125 444.5625 C150.01180844 444.39229318 142.45347709 440.93595346 135 438 C135.29261719 439.2684375 135.58523438 440.536875 135.88671875 441.84375 C136.1336145 442.91399414 136.1336145 442.91399414 136.38549805 444.00585938 C137.28206863 446.91535024 139.00812867 448.72357562 141 451 C141.76904959 452.19629936 142.517211 453.4061523 143.25 454.625 C146.52561082 459.97047533 150.29389741 464.94877133 154 470 C155.32028398 471.80683777 156.63325266 473.61905248 157.9375 475.4375 C158.50339844 476.21996094 159.06929687 477.00242187 159.65234375 477.80859375 C160.95030618 479.91919352 161.5641765 481.57814537 162 484 C162.66 484 163.32 484 164 484 C164.66 485.98 165.32 487.96 166 490 C166.66 490 167.32 490 168 490 C169.32861328 491.43701172 169.32861328 491.43701172 170.8203125 493.4296875 C171.35527344 494.14253906 171.89023437 494.85539062 172.44140625 495.58984375 C172.99699219 496.34394531 173.55257813 497.09804688 174.125 497.875 C174.68832031 498.62136719 175.25164062 499.36773438 175.83203125 500.13671875 C180 505.73774213 180 505.73774213 180 508 C180.66 508 181.32 508 182 508 C184 511 184 511 184 514 C184.99 514.33 185.98 514.66 187 515 C187 515.66 187 516.32 187 517 C187.66 517 188.32 517 189 517 C189.33 518.32 189.66 519.64 190 521 C190.66 521 191.32 521 192 521 C193.3540932 522.98600337 194.68457624 524.98817543 196 527 C196.7425 527.7425 197.485 528.485 198.25 529.25 C198.8275 529.8275 199.405 530.405 200 531 C200 531.66 200 532.32 200 533 C200.66 533 201.32 533 202 533 C202 534.65 202 536.3 202 538 C202.598125 538.020625 203.19625 538.04125 203.8125 538.0625 C206 539 206 539 207.75 541.8125 C210.06323868 547.97689978 210.23139468 555.73968348 207.75 561.875 C200.99082569 573.94495413 200.99082569 573.94495413 196 576 C190.96174458 576.41765181 186.0419422 576.28866081 181 576 C180.67 576.66 180.34 577.32 180 578 C170.72063658 575.24308768 161.56233971 572.34350956 156 564 C156 563.34 156 562.68 156 562 C155.34 562 154.68 562 154 562 C147.88163793 553.70438296 139.2090377 540.59889486 140 530 C139.34 530 138.68 530 138 530 C135.39981184 526.09971775 135.84914486 522.52565431 136 518 C135.34 518 134.68 518 134 518 C132.70341623 514.64771374 131.4136327 511.29284986 130.125 507.9375 C129.76019531 506.99455078 129.39539063 506.05160156 129.01953125 505.08007812 C127.10924399 500.09596501 125.36040607 495.16238305 124 490 C123.34 490 122.68 490 122 490 C118 484.58823529 118 484.58823529 118 482 C116.68 482 115.36 482 114 482 C114.28875 482.89460938 114.5775 483.78921875 114.875 484.7109375 C117.70615701 493.93185859 120.17490297 502.77126713 116 512 C114.625 514.375 114.625 514.375 113 516 C111.68 516 110.36 516 109 516 C109 516.66 109 517.32 109 518 C101.88210841 520.18753169 95.79356401 520.39678201 89 517 C87.45976004 516.93049459 85.91665012 516.91547643 84.375 516.9375 C83.14910156 516.95103516 83.14910156 516.95103516 81.8984375 516.96484375 C81.27195312 516.97644531 80.64546875 516.98804688 80 517 C79.34 518.65 78.68 520.3 78 522 C77.34 522 76.68 522 76 522 C76 523.32 76 524.64 76 526 C75.34 526 74.68 526 74 526 C74.0928125 527.0209375 74.0928125 527.0209375 74.1875 528.0625 C73.98929433 531.16772221 73.05834534 533.34842119 71.79394531 536.16137695 C68.49881773 543.79225206 68.62753749 551.66494989 68.62939453 559.8359375 C68.62500896 561.99558728 68.58856885 564.15320859 68.55078125 566.3125 C68.48970656 573.95014299 68.89477132 579.45680026 73 586 C73.37644587 587.32180838 73.72097691 588.65425299 74 590 C75.03125 590.0825 76.0625 590.165 77.125 590.25 C81.53443725 591.10343947 83.67585385 591.97804896 87 595 C90.77118045 601.94691136 90.93317136 609.8007289 89.25 617.375 C87.85274747 620.3092303 86.46085262 621.89069776 84 624 C83.34 624.7425 82.68 625.485 82 626.25 C77.16253118 629.07185681 72.45289196 628.80308681 67 628 C57.87269816 624.74539632 57.87269816 624.74539632 56 621 C54.35636866 620.27840576 52.68949614 619.60648579 51 619 C51 618.01 51 617.02 51 616 C50.01 616 49.02 616 48 616 C48 615.34 48 614.68 48 614 C47.1028125 613.814375 47.1028125 613.814375 46.1875 613.625 C44 613 44 613 41 611 C39.0103005 610.60986284 37.00980131 610.26797351 35 610 C32.85651117 616.29364805 30.88334283 622.62409981 29 629 C23.94736842 646.10526316 23.94736842 646.10526316 22 650 C21.34 650 20.68 650 20 650 C20.061875 650.86625 20.12375 651.7325 20.1875 652.625 C20 656 20 656 18.609375 658.75390625 C16.87569092 662.25073021 15.97925311 665.5235161 15.0625 669.3125 C13.76297354 674.49036005 12.1805607 679.27711854 9.87109375 684.09375 C8.55854913 686.96604496 7.81571198 689.95467527 7 693 C6.46123251 694.50104376 5.91940355 696.00099114 5.375 697.5 C3.73547241 702.39361534 3.3123089 706.59308117 4.75 711.625 C7.04639952 715.98815909 9.71685959 718.90911439 13.75 721.6875 C14.8225 722.450625 15.895 723.21375 17 724 C17 724.66 17 725.32 17 726 C17.66 726.061875 18.32 726.12375 19 726.1875 C22.49954309 727.13529292 24.94938185 728.70868554 27.96484375 730.67578125 C33.76215924 734.44793087 39.95071419 737.65300286 46 741 C46 741.66 46 742.32 46 743 C46.66 743 47.32 743 48 743 C48 743.66 48 744.32 48 745 C48.53625 745.226875 49.0725 745.45375 49.625 745.6875 C57.78887552 750.19911542 64.37469221 758.43814415 68 767 C68.44581836 770.71752569 68.3702847 774.44591229 68.375 778.1875 C68.39949219 779.19103516 68.42398437 780.19457031 68.44921875 781.22851562 C68.47788993 788.57311742 67.42660243 795.03664074 62.48974609 800.74682617 C61 802 61 802 59 802 C59 802.66 59 803.32 59 804 C57.68 804 56.36 804 55 804 C55 804.66 55 805.32 55 806 C41.20380552 807.47106396 30.94769303 806.60142418 19 799 C16 795.6384778 16 795.6384778 16 793 C15.34 793 14.68 793 14 793 C12.2734375 790.48046875 12.2734375 790.48046875 10.375 787.1875 C9.74335937 786.10855469 9.11171875 785.02960937 8.4609375 783.91796875 C7 781 7 781 7 778 C6.34 778 5.68 778 5 778 C4.62488281 777.07058594 4.24976563 776.14117188 3.86328125 775.18359375 C1.15154742 768.59210416 -1.61616049 762.67320407 -6 757 C-6 756.34 -6 755.68 -6 755 C-6.66 755 -7.32 755 -8 755 C-8 754.34 -8 753.68 -8 753 C-8.66 753 -9.32 753 -10 753 C-10 752.34 -10 751.68 -10 751 C-10.99 751 -11.98 751 -13 751 C-13 750.34 -13 749.68 -13 749 C-19.07158728 750.13199085 -21.77394343 751.2767603 -26 756 C-26.66 756 -27.32 756 -28 756 C-28.103125 756.70125 -28.20625 757.4025 -28.3125 758.125 C-29 761 -29 761 -30.5 763.75 C-33.18378867 769.56487546 -33.67107854 774.69059263 -31.6875 780.8125 C-30.87241812 782.99532903 -29.99077989 785.01729993 -28.89453125 787.07421875 C-28 789 -28 789 -28 792 C-27.34 792 -26.68 792 -26 792 C-18.83706553 801.73680229 -15.65285393 810.89082184 -17 823 C-18.6727743 828.89723822 -21.92128779 832.68328999 -27 836 C-29.875 836.3125 -29.875 836.3125 -32 836 C-32 836.66 -32 837.32 -32 838 C-32.74765625 838.04898438 -33.4953125 838.09796875 -34.265625 838.1484375 C-35.25046875 838.22320313 -36.2353125 838.29796875 -37.25 838.375 C-38.71179688 838.47941406 -38.71179688 838.47941406 -40.203125 838.5859375 C-42.89633189 838.98465249 -44.66963279 839.63507063 -47 841 C-46.46568437 844.85046502 -44.9165738 846.23963932 -41.9375 848.625 C-40.59087828 849.70892398 -39.26911978 850.82628102 -38 852 C-38 852.66 -38 853.32 -38 854 C-37.34 854 -36.68 854 -36 854 C-33.29066424 858.65689542 -32.56795865 862.12869261 -32.5625 867.5 C-32.54316406 868.7684375 -32.52382813 870.036875 -32.50390625 871.34375 C-33.0801895 875.5910029 -34.35460711 877.67053625 -37 881 C-37.48082031 881.61488281 -37.96164062 882.22976563 -38.45703125 882.86328125 C-40.59265191 884.43661192 -42.06936624 884.3013319 -44.6875 884.1875 C-45.49574219 884.16042969 -46.30398438 884.13335938 -47.13671875 884.10546875 C-48.05904297 884.05326172 -48.05904297 884.05326172 -49 884 C-49 884.66 -49 885.32 -49 886 C-50.32 886 -51.64 886 -53 886 C-53 885.34 -53 884.68 -53 884 C-54.60875 884.0928125 -54.60875 884.0928125 -56.25 884.1875 C-60.40518496 883.97974075 -60.86885251 883.37208143 -64 881 C-66.67592776 880.44100542 -69.26662547 880.22778121 -72 880 C-72.0816082 882.37570543 -72.14077222 884.74855841 -72.1875 887.125 C-72.21263672 887.79015625 -72.23777344 888.4553125 -72.26367188 889.140625 C-72.37967993 897.02917242 -68.90933828 901.5414568 -63.6875 907.0625 C-63.22666016 907.56587891 -62.76582031 908.06925781 -62.29101562 908.58789062 C-59.87640423 911.18384974 -57.41242626 913.52771329 -54.64453125 915.74609375 C-53.33548828 916.86177734 -53.33548828 916.86177734 -52 918 C-52 918.66 -52 919.32 -52 920 C-51.2575 920.0825 -50.515 920.165 -49.75 920.25 C-46.36213349 921.17396359 -45.44456701 922.48752835 -43 925 C-40.64172779 926.60084103 -38.2477096 928.12642596 -35.828125 929.6328125 C-35.22484375 930.08398438 -34.6215625 930.53515625 -34 931 C-34 931.66 -34 932.32 -34 933 C-33.443125 933.2475 -32.88625 933.495 -32.3125 933.75 C-29.57589087 935.22924818 -27.32349131 936.93467439 -25 939 C-25 939.66 -25 940.32 -25 941 C-24.40316406 941.26167969 -23.80632812 941.52335938 -23.19140625 941.79296875 C-20.87449796 943.06912679 -19.61914937 944.29003635 -17.9375 946.3125 C-17.20853516 947.17294922 -17.20853516 947.17294922 -16.46484375 948.05078125 C-11.15867912 955.11151765 -11.18095206 961.45459982 -12 970 C-12.8886816 973.07216273 -14.16256151 975.40040857 -16 978 C-16.43183594 978.6703125 -16.86367188 979.340625 -17.30859375 980.03125 C-18.45546304 981.74644918 -19.71930203 983.38227625 -21 985 C-21.66 985 -22.32 985 -23 985 C-23 985.66 -23 986.32 -23 987 C-31.29936269 991.74249296 -38.48100481 993.11714369 -48 992 C-50.66453645 991.25086515 -52.58408095 990.38052517 -55 989 C-55 988.34 -55 987.68 -55 987 C-55.70125 986.773125 -56.4025 986.54625 -57.125 986.3125 C-60.74128535 984.66158712 -63.08769976 982.7091165 -66 980 C-66 979.34 -66 978.68 -66 978 C-66.598125 977.731875 -67.19625 977.46375 -67.8125 977.1875 C-69.99847854 976.00082594 -71.41332594 974.90400887 -73 973 C-73 972.34 -73 971.68 -73 971 C-73.66 971 -74.32 971 -75 971 C-75 970.34 -75 969.68 -75 969 C-75.66 969 -76.32 969 -77 969 C-77.33 967.68 -77.66 966.36 -78 965 C-78.66 965 -79.32 965 -80 965 C-80.33 964.01 -80.66 963.02 -81 962 C-81.763125 961.278125 -82.52625 960.55625 -83.3125 959.8125 C-85.89509471 957.1097846 -87.15615104 954.72215285 -88.70703125 951.3671875 C-90.34796982 948.36293138 -92.35007257 945.77443052 -94.4375 943.0625 C-97.61813737 938.92923311 -100.39174798 934.88783437 -102.734375 930.23046875 C-103.85189347 928.26101491 -105.049041 926.53680114 -106.390625 924.71875 C-109.01551417 921.09526168 -111.04488894 917.32898885 -113 913.3125 C-113.34466309 912.61479492 -113.68932617 911.91708984 -114.04443359 911.19824219 C-116.49935175 906.17331361 -118.6916568 901.07228445 -120.77734375 895.8828125 C-122.53294548 891.74340651 -124.58799385 887.77339437 -126.66796875 883.7890625 C-128.04544803 880.90483903 -129.03929755 878.04622736 -130 875 C-131.94631804 869.33102998 -134.02670775 863.87541557 -136.6875 858.5 C-139.25152328 853.04948425 -139.87278793 847.9789671 -140 842 C-140.66 842 -141.32 842 -142 842 C-142.81313676 839.0835095 -143.6255335 836.16681631 -144.4375 833.25 C-144.66759766 832.425 -144.89769531 831.6 -145.13476562 830.75 C-145.35712891 829.95078125 -145.57949219 829.1515625 -145.80859375 828.328125 C-146.11494751 827.22839355 -146.11494751 827.22839355 -146.42749023 826.10644531 C-146.61641846 825.41131836 -146.80534668 824.71619141 -147 824 C-147.17853516 823.3493457 -147.35707031 822.69869141 -147.54101562 822.02832031 C-150.40105723 809.38937049 -150.76887775 794.94937944 -149.6640625 782.08984375 C-148.680379 770.23598792 -149.90717894 759.27102159 -151.65527344 747.53027344 C-152.09580665 744.2967846 -152.32032865 741.07001964 -152.5 737.8125 C-152.8286795 732.60840798 -153.93520202 727.87075417 -155.3125 722.8515625 C-156.14939612 719.38034562 -156.44460523 716.01005019 -156.59375 712.44921875 C-156.93639373 709.77733912 -156.93639373 709.77733912 -158.44921875 706.6328125 C-159.97043495 703.06925817 -160.68410022 699.99637216 -161.3125 696.1875 C-162.80594607 687.89971806 -165.46387701 680.10148726 -168.24243164 672.16967773 C-172.14334298 660.99745759 -172.14334298 660.99745759 -173.0625 656.1875 C-173.49978889 653.9011038 -173.95060708 652.09859214 -174.99609375 650.01171875 C-176.06624886 647.8672445 -176.53894413 645.97144505 -177 643.625 C-177.72573015 639.95747085 -178.80405803 636.54292708 -180 633 C-181.4403225 628.35641554 -182.83711023 623.69944 -184.24243164 619.04516602 C-185.64892716 614.39922443 -187.06413991 609.75924972 -188.5703125 605.14453125 C-188.80322998 604.42571777 -189.03614746 603.7069043 -189.27612305 602.96630859 C-189.89500741 601.06784827 -190.52333095 599.17247234 -191.15234375 597.27734375 C-191.99116255 594.03416875 -192.16738506 591.33248443 -192 588 C-192.66 588 -193.32 588 -194 588 C-195.3166922 585.08446726 -196.11550487 582.42668675 -196.75 579.27734375 C-197.68308486 574.97304335 -198.98232564 570.82701666 -200.3828125 566.65625 C-200.71295853 565.66805519 -200.71295853 565.66805519 -201.04977417 564.65989685 C-201.97030497 561.91330614 -202.89505815 559.16839162 -203.83740234 556.42919922 C-206.42859045 548.87082007 -208.69993059 542.11201612 -208 534 C-208.66 534 -209.32 534 -210 534 C-214.72847213 521.57987988 -219.07048746 509.11728343 -222.9375 496.3984375 C-224.0473145 492.84866318 -225.23666225 489.33245564 -226.4375 485.8125 C-228.63515355 479.29415104 -230.52733748 472.72318377 -232.30053711 466.07739258 C-233.09987411 463.10609616 -233.88759243 460.26936941 -235.07421875 457.42578125 C-238.90099752 447.39865207 -238.18007079 434.9951472 -238.1875 424.4375 C-238.18830566 423.33188721 -238.18911133 422.22627441 -238.18994141 421.0871582 C-238.15983641 416.6807901 -238.12302372 412.33426412 -237.51953125 407.96484375 C-236.82847388 402.69098484 -236.67907297 397.43749823 -236.5 392.125 C-235.78139852 370.96617859 -235.78139852 370.96617859 -233 366 C-233.66 366 -234.32 366 -235 366 C-236.2065625 364.5459375 -236.2065625 364.5459375 -237.4375 363.0625 C-239.70684377 359.80624673 -239.70684377 359.80624673 -243 359 C-244.37482707 357.36739286 -245.70647667 355.69774938 -247 354 C-247.75603516 353.29423828 -247.75603516 353.29423828 -248.52734375 352.57421875 C-255.74293831 344.86099697 -255.37618721 328.49318954 -255.1953125 318.6484375 C-254.98302274 315.76978842 -254.39076983 313.11913918 -253.546875 310.359375 C-252.94483748 307.76201314 -252.75660185 305.20508219 -252.55078125 302.55151367 C-251.68321193 292.42625669 -248.00627697 284.72859114 -243 276 C-242.65114746 275.36562012 -242.30229492 274.73124023 -241.94287109 274.07763672 C-239.71926762 270.06509555 -237.32931523 267.15408812 -234 264 C-233.34 263.01 -232.68 262.02 -232 261 C-231.34 261 -230.68 261 -230 261 C-227.39151324 255.08743001 -226.63814172 250.35533865 -228 244 C-228.66 244 -229.32 244 -230 244 C-230.20753906 243.24460937 -230.41507812 242.48921875 -230.62890625 241.7109375 C-233.04597716 233.07420713 -235.70241264 224.53045314 -238.44946289 215.99365234 C-239.30546306 213.33091568 -240.15439533 210.6660549 -241 208 C-241.2889917 207.09781738 -241.5779834 206.19563477 -241.87573242 205.26611328 C-242.14877197 204.39196777 -242.42181152 203.51782227 -242.703125 202.6171875 C-242.94836914 201.83972168 -243.19361328 201.06225586 -243.44628906 200.26123047 C-244.30199719 196.76671164 -244.1989149 193.58046817 -244 190 C-244.66 190 -245.32 190 -246 190 C-248.20390031 183.48898487 -250.34863279 176.97433043 -252.2734375 170.375 C-253.00341528 167.98883607 -253.83932855 165.65884345 -254.6875 163.3125 C-256.03595776 159.36545176 -256.26488818 156.14991486 -256 152 C-256.66 152 -257.32 152 -258 152 C-258.83764268 150.04350603 -259.66999059 148.08474444 -260.5 146.125 C-260.9640625 145.03445312 -261.428125 143.94390625 -261.90625 142.8203125 C-263 140 -263 140 -263 138 C-263.66 138 -264.32 138 -265 138 C-267.254823 135.1736202 -269.09896279 132.07207613 -271 129 C-271.61875 128.01 -272.2375 127.02 -272.875 126 C-274.69813434 121.13830843 -274.89039652 116.67118956 -273.23828125 111.71484375 C-271.40030791 107.71198482 -270.16509578 105.74129004 -266 104 C-266 103.34 -266 102.68 -266 102 C-262.49223216 100.39644899 -259.85645121 99.77963136 -256 100 C-256 100.66 -256 101.32 -256 102 C-254.80375 101.896875 -253.6075 101.79375 -252.375 101.6875 C-249.03428727 101.68157675 -247.23086524 102.1407972 -244.625 104.25 C-239.32834693 109.79887465 -239.67135019 114.64323392 -239.79296875 122.046875 C-239.97671292 125.55534857 -240.39993134 128.80644588 -241.0625 132.25 C-242.83485395 141.68145494 -241.96209685 152.13771384 -236.46875 160.265625 C-235.40889681 161.65543249 -234.32354784 163.02638399 -233.20703125 164.37109375 C-232 166 -232 166 -232 168 C-231.175 168.268125 -230.35 168.53625 -229.5 168.8125 C-226 170 -226 170 -222.5 171.53125 C-217.2553564 173.50645045 -212.05127309 173.56001013 -206.5 173.6875 C-205.48679687 173.72166016 -204.47359375 173.75582031 -203.4296875 173.79101562 C-200.95323583 173.87278526 -198.47710651 173.9421625 -196 174 C-195.67 173.01 -195.34 172.02 -195 171 C-193.35 170.67 -191.7 170.34 -190 170 C-190 169.34 -190 168.68 -190 168 C-189.34 168 -188.68 168 -188 168 C-188 167.34 -188 166.68 -188 166 C-187.34 166 -186.68 166 -186 166 C-185.731875 165.278125 -185.46375 164.55625 -185.1875 163.8125 C-184 161 -184 161 -182.52172852 158.68823242 C-180.89931658 155.82213619 -180.18021709 153.38293928 -179.46484375 150.17578125 C-179.21283203 149.06396484 -178.96082031 147.95214844 -178.70117188 146.80664062 C-178.3231543 145.07704102 -178.3231543 145.07704102 -177.9375 143.3125 C-177.68162109 142.17876953 -177.42574219 141.04503906 -177.16210938 139.87695312 C-176.42470492 136.58801551 -175.70684702 133.29562939 -175 130 C-174.71503662 128.67512573 -174.71503662 128.67512573 -174.42431641 127.32348633 C-169.99542046 109.1671892 -169.99542046 109.1671892 -173.75 91.8125 C-174.31332031 91.008125 -174.87664062 90.20375 -175.45703125 89.375 C-178.77341307 84.27029077 -179.33101559 77.79916625 -178.875 71.8125 C-177.86915065 67.42987067 -176.22015517 63.88268997 -174 60 C-173.01 60 -172.02 60 -171 60 C-170.62875 58.8553125 -170.62875 58.8553125 -170.25 57.6875 C-168.49769646 53.9200474 -166.39842187 52.64015596 -162.6875 50.94140625 C-155.39437518 48.38669247 -148.01182473 49.6927312 -141.10546875 52.7890625 C-138.26678754 54.42169919 -136.60562863 56.15365833 -135 59 C-135 59.99 -135 60.98 -135 62 C-134.34 62 -133.68 62 -133 62 C-129.88751635 67.1423643 -129.0426903 72.06604865 -129 78 C-129.33 78.66 -129.66 79.32 -130 80 C-130.66 80 -131.32 80 -132 80 C-132.07347656 81.04800781 -132.07347656 81.04800781 -132.1484375 82.1171875 C-132.22320312 83.02726562 -132.29796875 83.93734375 -132.375 84.875 C-132.44460938 85.77992187 -132.51421875 86.68484375 -132.5859375 87.6171875 C-133 90 -133 90 -135 92 C-135.60311615 93.68761858 -136.13850237 95.40014476 -136.625 97.125 C-136.88539063 98.03507812 -137.14578125 98.94515625 -137.4140625 99.8828125 C-137.60742188 100.58148438 -137.80078125 101.28015625 -138 102 C-138.66 102 -139.32 102 -140 102 C-140.02724423 104.83339965 -140.04695589 107.66653117 -140.0625 110.5 C-140.07087891 111.29148437 -140.07925781 112.08296875 -140.08789062 112.8984375 C-140.12271593 121.39581256 -138.9975704 128.64143812 -136.015625 136.640625 C-135.65984375 137.60484375 -135.3040625 138.5690625 -134.9375 139.5625 C-134.59589844 140.47128906 -134.25429688 141.38007813 -133.90234375 142.31640625 C-133.0435177 144.87057723 -132.46502713 147.34886593 -132 150 C-131.34 150 -130.68 150 -130 150 C-126 155.41176471 -126 155.41176471 -126 158 C-125.17822266 158.38671875 -125.17822266 158.38671875 -124.33984375 158.78125 C-120.64546767 160.7055327 -117.23350303 163.05950844 -113.75390625 165.34375 C-103.42525698 171.55559013 -92.44731384 171.48636992 -81 169 C-79.58556063 168.777046 -78.16911758 168.56592546 -76.75 168.375 C-75.8425 168.25125 -74.935 168.1275 -74 168 C-74 167.34 -74 166.68 -74 166 C-67.375 162 -67.375 162 -64 162 C-63.34 160.68 -62.68 159.36 -62 158 C-61.34 158 -60.68 158 -60 158 C-60 157.34 -60 156.68 -60 156 C-59.34 156 -58.68 156 -58 156 C-58 155.34 -58 154.68 -58 154 C-57.34 154 -56.68 154 -56 154 C-55.72929687 153.26523438 -55.45859375 152.53046875 -55.1796875 151.7734375 C-54.0490383 149.11528871 -52.77171708 146.98842296 -51.125 144.625 C-48.51863743 140.87238374 -46.23858804 136.97876134 -44 133 C-43.36320313 131.90042969 -42.72640625 130.80085937 -42.0703125 129.66796875 C-36.73121653 120.11548981 -33.16367314 110.46169185 -30 100 C-29.34 100 -28.68 100 -28 100 C-27.96261719 99.41734375 -27.92523438 98.8346875 -27.88671875 98.234375 C-27.4895772 93.28178629 -26.73263354 88.67676869 -25.4375 83.875 C-22.60633641 73.02220625 -24.42557475 64.83769514 -29.5 55 C-33.65838008 46.93822481 -37.01519391 38.72094402 -34.27734375 29.58984375 C-33.28835678 26.99925844 -32.18679198 24.50588208 -31 22 C-30.63777344 21.21109375 -30.27554688 20.4221875 -29.90234375 19.609375 C-27.33737957 14.49683623 -24.31610941 11.0911854 -19.8671875 7.5078125 C-17.98891145 6.08371624 -17.98891145 6.08371624 -16.6328125 4.41015625 C-14.29486989 2.391024 -11.98840725 2.00466786 -9 1.3125 C-7.948125 1.06113281 -6.89625 0.80976563 -5.8125 0.55078125 C-3 0 -3 0 0 0 Z M-121.70483398 238.75048828 C-127.27003732 239.35549177 -132.89073689 239.41178627 -138.48242188 239.60546875 C-139.91231445 239.66154297 -139.91231445 239.66154297 -141.37109375 239.71875 C-142.23661865 239.74904297 -143.10214355 239.77933594 -143.99389648 239.81054688 C-145.99718467 239.78468723 -145.99718467 239.78468723 -147 241 C-148.51469448 241.23192865 -150.03754562 241.41215238 -151.5625 241.5625 C-152.38878906 241.64628906 -153.21507812 241.73007812 -154.06640625 241.81640625 C-155.02353516 241.90728516 -155.02353516 241.90728516 -156 242 C-156 242.66 -156 243.32 -156 244 C-159.96 244 -163.92 244 -168 244 C-168 244.66 -168 245.32 -168 246 C-168.78375 246.103125 -169.5675 246.20625 -170.375 246.3125 C-188.16184997 249.6858681 -204.43930433 258.1126594 -218 270 C-218.845625 270.71542969 -219.69125 271.43085938 -220.5625 272.16796875 C-230.48037109 281.19383619 -238.00534199 295.33551241 -239.26586914 308.85058594 C-239.365279 311.86527089 -239.3645584 314.8592111 -239.3125 317.875 C-239.303396 318.92840576 -239.29429199 319.98181152 -239.28491211 321.06713867 C-239.15317674 329.29264453 -238.61784947 337.14645158 -236 345 C-235.01 345.33 -234.02 345.66 -233 346 C-232.67 346.66 -232.34 347.32 -232 348 C-226.42126697 348.28292664 -222.23608701 347.3735049 -217.0625 345.5625 C-211.67085106 343.69555657 -206.69232231 342.55333189 -201 342 C-201 341.34 -201 340.68 -201 340 C-200.01 340.0928125 -200.01 340.0928125 -199 340.1875 C-195.74848517 339.98428032 -193.24908251 338.98423286 -190.23388672 337.81762695 C-186.57448546 336.4782461 -182.82535509 335.50278624 -179.0625 334.5 C-174.26563103 333.20077676 -169.50344784 331.89991959 -164.8125 330.25 C-161.21469357 328.99147878 -157.78815194 328.40299489 -154 328 C-154 327.34 -154 326.68 -154 326 C-153.1646875 325.92652344 -153.1646875 325.92652344 -152.3125 325.8515625 C-151.1678125 325.73941406 -151.1678125 325.73941406 -150 325.625 C-149.2575 325.55539062 -148.515 325.48578125 -147.75 325.4140625 C-144.83777184 324.9755736 -142.04342137 324.25750926 -139.19433594 323.52148438 C-135.37484556 322.61378172 -131.50213701 322.041107 -127.625 321.4375 C-122.15313996 320.76176406 -122.15313996 320.76176406 -117 319 C-114.62876754 318.76970044 -112.25258057 318.58880058 -109.875 318.4375 C-108.59367188 318.35371094 -107.31234375 318.26992188 -105.9921875 318.18359375 C-105.00476563 318.12300781 -104.01734375 318.06242187 -103 318 C-103 317.34 -103 316.68 -103 316 C-101.9275 316.020625 -100.855 316.04125 -99.75 316.0625 C-96.2931331 316.15811401 -96.2931331 316.15811401 -94.20288086 315.51367188 C-91.12955582 314.7970282 -88.15715593 314.79541485 -85.00390625 314.71875 C-84.33334702 314.70034058 -83.66278778 314.68193115 -82.97190857 314.66296387 C-80.83552478 314.60444089 -78.69906291 314.55154148 -76.5625 314.5 C-73.75114605 314.43201156 -70.94002435 314.35831602 -68.12890625 314.28125 C-66.88181885 314.25095703 -65.63473145 314.22066406 -64.34985352 314.18945312 C-61.10923355 314.08915699 -61.10923355 314.08915699 -58.42163086 313.46337891 C-55.53543596 312.9111057 -53.05267931 313.0658358 -50.125 313.3046875 C-48.98426025 313.39322998 -47.84352051 313.48177246 -46.66821289 313.57299805 C-45.45770264 313.67265869 -44.24719238 313.77231934 -43 313.875 C-40.47800094 314.06819458 -37.9558629 314.25958298 -35.43359375 314.44921875 C-34.18175293 314.54380371 -32.92991211 314.63838867 -31.64013672 314.73583984 C-26.45023391 315.11246458 -21.25921851 315.42280034 -16.0625 315.6875 C-15.21236328 315.73567871 -14.36222656 315.78385742 -13.48632812 315.83349609 C-9.4152994 316.03072296 -5.99763117 315.85095059 -2 315 C13.5886253 313.76210681 27.97167364 315.99561496 43 320 C43.69013184 320.18111328 44.38026367 320.36222656 45.09130859 320.54882812 C52.78292752 322.61070757 59.82731292 325.58654571 67 329 C70.07414436 330.45803896 73.15911907 331.89032513 76.25 333.3125 C77.00692139 333.6744043 77.76384277 334.03630859 78.54370117 334.40917969 C83.30229779 336.58639058 86.76674083 337.40841573 92 337 C92 335.35 92 333.7 92 332 C91.34 332 90.68 332 90 332 C90.0729126 331.30704834 90.1458252 330.61409668 90.22094727 329.90014648 C91.13463735 320.32098494 91.03431112 310.83302923 90.87304688 301.22070312 C90.78222385 290.79742491 91.0484047 280.20210182 95.4375 270.5625 C95.87707031 269.58539063 96.31664062 268.60828125 96.76953125 267.6015625 C97.37861328 266.31378906 97.37861328 266.31378906 98 265 C98.53625 263.824375 99.0725 262.64875 99.625 261.4375 C100.88593854 259.20219987 102.06092129 257.66206747 104 256 C103.47043089 253.99984111 103.47043089 253.99984111 102 252 C98.92698764 250.66672366 98.92698764 250.66672366 95.3125 249.8125 C94.11238281 249.48894531 92.91226562 249.16539062 91.67578125 248.83203125 C88.00678506 247.94689964 88.00678506 247.94689964 84.25 247.48046875 C81 247 81 247 77.6875 245.5 C73.72870862 243.88964418 70.45751319 243.48635956 66.234375 243.2109375 C64 243 64 243 61 242 C61 241.34 61 240.68 61 240 C58.69 240 56.38 240 54 240 C54 240.66 54 241.32 54 242 C52.25976562 241.92265625 52.25976562 241.92265625 50.484375 241.84375 C46.08040079 241.84375 42.36255244 243.03148 38.25 244.5 C25.73631651 248.54652535 12.06905808 248.70584559 -0.4921875 244.65625 C-3.40151988 243.89492938 -6.0054626 243.89523484 -9 244 C-9 243.34 -9 242.68 -9 242 C-11.64 242 -14.28 242 -17 242 C-17 241.34 -17 240.68 -17 240 C-18.32 240 -19.64 240 -21 240 C-21 240.66 -21 241.32 -21 242 C-23.97 242 -26.94 242 -30 242 C-30 242.66 -30 243.32 -30 244 C-33.96 244 -37.92 244 -42 244 C-42 244.66 -42 245.32 -42 246 C-47.61 246 -53.22 246 -59 246 C-59 245.34 -59 244.68 -59 244 C-60.20398438 243.93941406 -61.40796875 243.87882813 -62.6484375 243.81640625 C-64.22397077 243.73200268 -65.79949096 243.64735459 -67.375 243.5625 C-68.1690625 243.52318359 -68.963125 243.48386719 -69.78125 243.44335938 C-75.7734375 243.11328125 -75.7734375 243.11328125 -78 242 C-79.99960012 241.960008 -82.00047242 241.95653201 -84 242 C-84 241.34 -84 240.68 -84 240 C-85.26457031 239.93941406 -86.52914062 239.87882813 -87.83203125 239.81640625 C-89.49219871 239.73199096 -91.15235437 239.64734345 -92.8125 239.5625 C-93.64587891 239.52318359 -94.47925781 239.48386719 -95.33789062 239.44335938 C-96.54155273 239.38051758 -96.54155273 239.38051758 -97.76953125 239.31640625 C-98.87711792 239.26141968 -98.87711792 239.26141968 -100.00708008 239.20532227 C-102 239 -102 239 -105 238 C-106.72706528 237.90513696 -108.45783828 237.87012084 -110.1875 237.875 C-111.08855469 237.87242187 -111.98960937 237.86984375 -112.91796875 237.8671875 C-115.88287836 237.99495293 -118.76545682 238.35894356 -121.70483398 238.75048828 Z M120.1875 271.5625 C119.795625 272.036875 119.40375 272.51125 119 273 C118.01 273.33 117.02 273.66 116 274 C116 274.66 116 275.32 116 276 C115.40703125 276.08378906 114.8140625 276.16757812 114.203125 276.25390625 C111.35515282 277.2183791 110.48547151 278.51397539 108.75 280.9375 C108.22921875 281.64777344 107.7084375 282.35804688 107.171875 283.08984375 C105.82569004 284.9106287 105.82569004 284.9106287 106 287 C105.34 287 104.68 287 104 287 C96.93252343 303.21573305 93.98335152 321.29614049 99.0625 338.625 C99.371875 339.40875 99.68125 340.1925 100 341 C100.66 341 101.32 341 102 341 C102.17015625 341.56847656 102.3403125 342.13695312 102.515625 342.72265625 C104.15067737 347.9322114 106.13309172 352.35363141 109 357 C109.66 357 110.32 357 111 357 C111 357.66 111 358.32 111 359 C111.66 359 112.32 359 113 359 C113 359.99 113 360.98 113 362 C113.66 362.33 114.32 362.66 115 363 C115.33 363.99 115.66 364.98 116 366 C118.89558441 367.4477922 120.74188938 368 124 368 C124.495 368.99 124.495 368.99 125 370 C125 369.34 125 368.68 125 368 C129.95 368.33 134.9 368.66 140 369 C140 369.66 140 370.32 140 371 C141.71252627 372.78469266 141.71252627 372.78469266 144 374 C146.44785143 373.85164537 147.59883728 373.34090453 149.46118164 371.75830078 C151.31339462 369.64190575 152.35958124 367.5366076 153.55859375 364.9921875 C154.02716797 364.00476563 154.49574219 363.01734375 154.97851562 362 C155.45998047 360.96875 155.94144531 359.9375 156.4375 358.875 C156.91509766 357.86695313 157.39269531 356.85890625 157.88476562 355.8203125 C160.36411905 350.56911676 162.78460289 345.29764682 165.10083008 339.97241211 C166.36903745 337.19048234 167.80288239 334.50778885 169.265625 331.82421875 C170.24896311 329.70931327 170.24896311 329.70931327 170 326 C170.66 326 171.32 326 172 326 C172.66 322.7 173.32 319.4 174 316 C174.66 316 175.32 316 176 316 C176.99481345 310.98581928 177.21620365 306.15307564 177.25 301.0625 C177.270625 300.28970703 177.29125 299.51691406 177.3125 298.72070312 C177.34884505 293.34617819 176.39844213 289.80864133 174 285 C173.69578125 284.24332031 173.3915625 283.48664063 173.078125 282.70703125 C171.21406169 278.44254678 169.4288594 275.93939186 165.08203125 273.80859375 C161.13122047 272.27422634 157.09376037 271.0872764 153 270 C153 269.34 153 268.68 153 268 C149.33340185 267.94135608 145.66692636 267.90618892 142 267.875 C140.97003906 267.85824219 139.94007813 267.84148437 138.87890625 267.82421875 C128.92337758 267.53546549 128.92337758 267.53546549 120.1875 271.5625 Z M-66 327 C-67.73868744 327.15266612 -69.48247501 327.24932596 -71.2265625 327.31640625 C-72.2578125 327.35830078 -73.2890625 327.40019531 -74.3515625 327.44335938 C-75.43179688 327.48267578 -76.51203125 327.52199219 -77.625 327.5625 C-78.71296875 327.60568359 -79.8009375 327.64886719 -80.921875 327.69335938 C-83.6144517 327.7996453 -86.30712253 327.90168057 -89 328 C-89 328.66 -89 329.32 -89 330 C-90.7325 329.938125 -90.7325 329.938125 -92.5 329.875 C-99.71999473 329.85182185 -106.86182267 331.01904802 -114 332 C-114 332.66 -114 333.32 -114 334 C-123 335 -123 335 -132 336 C-132 336.66 -132 337.32 -132 338 C-133.32 338.33 -134.64 338.66 -136 339 C-136 341.64 -136 344.28 -136 347 C-138.31 347 -140.62 347 -143 347 C-143.99 345.02 -144.98 343.04 -146 341 C-150.59330267 340.79878281 -154.23925564 341.46653018 -158.625 342.8125 C-163.14807198 344.16942159 -167.65199718 345.42475645 -172.25 346.5 C-176.96783494 347.65115172 -181.34372591 349.20311481 -185.8125 351.09375 C-188 352 -188 352 -191.375 353.0625 C-194.04490971 354.01603918 -195.84656698 355.17786437 -198 357 C-196.86928108 361.31729043 -195.31712715 363.85960961 -192.37109375 367.1640625 C-184.80243217 377.29873755 -183.73957343 389.80646398 -185 402 C-186.32921981 408.71437592 -188.60753075 415.21832255 -191.66796875 421.33203125 C-193.14889651 423.80122854 -193.14889651 423.80122854 -193 426 C-194.32 426 -195.64 426 -197 426 C-197.433125 427.546875 -197.433125 427.546875 -197.875 429.125 C-198.82308798 432.45007997 -199.88256594 435.72751453 -201 439 C-201.66 439 -202.32 439 -203 439 C-203 439.66 -203 440.32 -203 441 C-204.98 441.99 -204.98 441.99 -207 443 C-207 443.66 -207 444.32 -207 445 C-209.475 445.495 -209.475 445.495 -212 446 C-212.33 446.99 -212.66 447.98 -213 449 C-213.825 449.804375 -214.65 450.60875 -215.5 451.4375 C-218.33400014 454.29942272 -218.33400014 454.29942272 -219 458 C-218.25494776 461.0816339 -218.25494776 461.0816339 -217.0625 464.25 C-216.68222656 465.32765625 -216.30195313 466.4053125 -215.91015625 467.515625 C-215.60980469 468.33546875 -215.30945313 469.1553125 -215 470 C-212.07310471 470.20325948 -212.07310471 470.20325948 -209 470 C-207.19212694 467.62597583 -207.19212694 467.62597583 -206 465 C-205.34 464.67 -204.68 464.34 -204 464 C-204 463.34 -204 462.68 -204 462 C-203.01 461.67 -202.02 461.34 -201 461 C-201 460.34 -201 459.68 -201 459 C-200.21625 458.690625 -199.4325 458.38125 -198.625 458.0625 C-196.07669872 457.07124962 -196.07669872 457.07124962 -194 456 C-194 455.34 -194 454.68 -194 454 C-192.35 454 -190.7 454 -189 454 C-189 453.34 -189 452.68 -189 452 C-188.01 452 -187.02 452 -186 452 C-186 451.34 -186 450.68 -186 450 C-183.03 450 -180.06 450 -177 450 C-177 449.34 -177 448.68 -177 448 C-174.36 448 -171.72 448 -169 448 C-169 447.34 -169 446.68 -169 446 C-161.125 446.875 -161.125 446.875 -160 448 C-158.33382885 448.04063832 -156.66611905 448.042721 -155 448 C-155 448.66 -155 449.32 -155 450 C-153.948125 450.0825 -152.89625 450.165 -151.8125 450.25 C-147.69728295 451.0595509 -145.97027002 452.11709086 -143 455 C-141.26459867 458.47080265 -141.52256978 462.20535977 -142 466 C-143.10349602 468.56358027 -144.46384976 470.64776994 -146 473 C-146 473.66 -146 474.32 -146 475 C-146.66 475 -147.32 475 -148 475 C-150.16666667 476.83333333 -150.16666667 476.83333333 -152 479 C-152 479.66 -152 480.32 -152 481 C-152.66 481 -153.32 481 -154 481 C-155.01540112 485.10223585 -155.01540112 485.10223585 -154 489 C-153.34 489 -152.68 489 -152 489 C-152 489.66 -152 490.32 -152 491 C-150.34182792 492.22345759 -150.34182792 492.22345759 -148.25 493.375 C-145.03773212 495.28760473 -142.60094036 497.29902347 -140 500 C-139.34 500 -138.68 500 -138 500 C-138 500.66 -138 501.32 -138 502 C-137.34 502 -136.68 502 -136 502 C-133.51936219 513.52164009 -133.51936219 513.52164009 -135 519 C-135.66 519 -136.32 519 -137 519 C-137 519.66 -137 520.32 -137 521 C-138.32 521.33 -139.64 521.66 -141 522 C-141 522.66 -141 523.32 -141 524 C-149.36177701 526.15787794 -155.31013593 525.38435284 -162.8359375 521.19140625 C-165.07110453 519.87601332 -165.07110453 519.87601332 -168 519 C-168.33 518.01 -168.66 517.02 -169 516 C-169.66 516 -170.32 516 -171 516 C-171 515.34 -171 514.68 -171 514 C-173.01791336 512.41030753 -173.01791336 512.41030753 -175.5 510.875 C-176.3353125 510.33617187 -177.170625 509.79734375 -178.03125 509.2421875 C-178.6809375 508.83226562 -179.330625 508.42234375 -180 508 C-181.99763047 508.74808651 -181.99763047 508.74808651 -184 510 C-185.29920746 513.54588501 -185.29920746 513.54588501 -186 517 C-186.66 517 -187.32 517 -188 517 C-189.34919532 518.65385233 -190.68133728 520.321702 -192 522 C-193.485 522.99 -193.485 522.99 -195 524 C-196.29351896 527.85630596 -195.860017 530.51190563 -194.70703125 534.3515625 C-194.40603516 535.36863281 -194.10503906 536.38570312 -193.79492188 537.43359375 C-193.30862305 539.01333984 -193.30862305 539.01333984 -192.8125 540.625 C-192.50763672 541.65496094 -192.20277344 542.68492187 -191.88867188 543.74609375 C-190.09173619 549.73587936 -188.08055203 555.60922531 -185.90844727 561.47216797 C-184.63245191 565.02273393 -183.58257907 568.61926263 -182.5625 572.25 C-180.97574727 577.7767457 -179.28478287 583.24198208 -177.4375 588.6875 C-175.44050455 594.57894763 -173.69665888 600.50596123 -172.0234375 606.49609375 C-170.98371799 610.05574412 -169.82394449 613.5534873 -168.625 617.0625 C-166.28559305 623.96625445 -164.27413082 630.93583042 -162.3034668 637.95263672 C-160.40291849 644.68437759 -158.33446554 651.34859265 -156.19091797 658.00634766 C-154.13308345 664.44950789 -152.30142712 670.94376246 -150.56030273 677.47924805 C-149.84285086 681.0280667 -149.84285086 681.0280667 -148 684 C-141.34552023 683.87444378 -136.71347261 681.56605386 -130.9296875 678.375 C-127.90518435 676.95549985 -125.30326197 676.39207857 -122 676 C-122 675.34 -122 674.68 -122 674 C-120.95199219 674.01740234 -120.95199219 674.01740234 -119.8828125 674.03515625 C-118.97273438 674.04417969 -118.06265625 674.05320312 -117.125 674.0625 C-115.76761719 674.07990234 -115.76761719 674.07990234 -114.3828125 674.09765625 C-111.9831415 674.16249257 -111.9831415 674.16249257 -110 673 C-97.03508807 671.90199443 -84.99143076 675.04487614 -74 682 C-72.02500265 683.89754647 -70.5990319 685.76135534 -69 688 C-68.34 688 -67.68 688 -67 688 C-66.71125 688.9075 -66.4225 689.815 -66.125 690.75 C-65.23468224 693.32202908 -64.28505587 695.61346766 -63 698 C-62.34 698 -61.68 698 -61 698 C-60.855625 699.19625 -60.71125 700.3925 -60.5625 701.625 C-60.26011733 704.09157861 -59.90530912 706.49449682 -59.4375 708.9375 C-58.4591162 715.78618659 -58.90917483 721.37905362 -61 728 C-61.23383262 729.49927972 -61.46252837 730.99936509 -61.6875 732.5 C-62.61178927 737.36191186 -64.42466877 741.60183396 -66.5 746.0625 C-66.80897217 746.73023438 -67.11794434 747.39796875 -67.4362793 748.0859375 C-69.7364574 752.8682287 -69.7364574 752.8682287 -72 754 C-72.65555119 756.52733235 -72.65555119 756.52733235 -73 759 C-73.66 759 -74.32 759 -75 759 C-76.634689 760.65448684 -76.634689 760.65448684 -78.3125 762.75 C-80.98762235 765.91761349 -83.73925686 768.43092965 -87 771 C-87 771.66 -87 772.32 -87 773 C-87.71414063 773.26167969 -88.42828125 773.52335937 -89.1640625 773.79296875 C-92.12603146 775.05364149 -94.65503706 776.59442817 -97.375 778.3125 C-107.47517793 784.26328134 -118.20563311 787.73027435 -130 788 C-130.33 788.99 -130.66 789.98 -131 791 C-131.99 791.33 -132.98 791.66 -134 792 C-134.63135662 809.58445105 -130.92325771 825.21884465 -126 842 C-125.70867187 843.01578125 -125.41734375 844.0315625 -125.1171875 845.078125 C-123.26621149 851.42989531 -121.05613245 857.54977271 -118.4375 863.625 C-117 867 -117 867 -116.0859375 869.81640625 C-111.95333121 881.93178081 -105.30318227 893.32096922 -99.35620117 904.60668945 C-98.53406128 906.17036255 -98.53406128 906.17036255 -97.6953125 907.765625 C-96.9530542 909.16989746 -96.9530542 909.16989746 -96.19580078 910.60253906 C-95 913 -95 913 -94 916 C-93.34 916 -92.68 916 -92 916 C-91.7421875 916.87398437 -91.484375 917.74796875 -91.21875 918.6484375 C-89.98910527 922.02996049 -88.48696895 924.63612722 -86.5 927.625 C-84.47443849 930.68909093 -82.56216493 933.67258871 -81 937 C-80.34 937 -79.68 937 -79 937 C-78.67 938.65 -78.34 940.3 -78 942 C-77.34 942 -76.68 942 -76 942 C-75.64421875 942.78117188 -75.64421875 942.78117188 -75.28125 943.578125 C-73.58076777 946.79245117 -71.55778691 949.75864843 -69.5 952.75 C-69.09652344 953.35199219 -68.69304687 953.95398438 -68.27734375 954.57421875 C-67.23779729 956.08722202 -66.12411157 957.54872163 -65 959 C-64.34 959 -63.68 959 -63 959 C-62.773125 959.721875 -62.54625 960.44375 -62.3125 961.1875 C-60.73664872 964.56432417 -58.79123384 966.55767039 -56 969 C-55.34 969 -54.68 969 -54 969 C-54 969.66 -54 970.32 -54 971 C-49.99378766 974.83335546 -45.72077042 978.12436457 -40 978 C-36.68194858 976.67570727 -36.68194858 976.67570727 -34 975 C-34 974.34 -34 973.68 -34 973 C-33.401875 972.95875 -32.80375 972.9175 -32.1875 972.875 C-29.71799033 972.13054397 -29.71799033 972.13054397 -28.25 969.3125 C-26.91695285 965.77992506 -26.6137728 963.73509962 -27 960 C-28.62195359 957.37062697 -28.62195359 957.37062697 -30.875 955.125 C-31.59429687 954.34382812 -32.31359375 953.56265625 -33.0546875 952.7578125 C-34.8103432 950.77651832 -34.8103432 950.77651832 -37 951 C-37 950.34 -37 949.68 -37 949 C-37.99 949 -38.98 949 -40 949 C-40.226875 948.38125 -40.45375 947.7625 -40.6875 947.125 C-42.37929835 944.38589791 -43.99244161 943.94975528 -47 943 C-47 942.34 -47 941.68 -47 941 C-48.71497772 939.41173778 -48.71497772 939.41173778 -50.875 937.875 C-51.95394531 937.06675781 -51.95394531 937.06675781 -53.0546875 936.2421875 C-54.89626006 934.82060368 -54.89626006 934.82060368 -57 935 C-57.33 934.01 -57.66 933.02 -58 932 C-59.92157137 930.49853075 -59.92157137 930.49853075 -62.25 929.125 C-65.1035208 927.31036038 -67.61143707 925.58378123 -69.9375 923.125 C-70.618125 922.42375 -71.29875 921.7225 -72 921 C-72.66 921 -73.32 921 -74 921 C-74.27070313 920.41863281 -74.54140625 919.83726562 -74.8203125 919.23828125 C-75.99745354 917.00483153 -77.31683672 915.16951599 -78.875 913.1875 C-86.41532623 903.25049306 -87.96028421 894.45774106 -87 882 C-85.5603716 875.3862616 -83.48038062 869.78129892 -80 864 C-79.28598768 860.80604974 -79.28598768 860.80604974 -79 858 C-78.34 858 -77.68 858 -77 858 C-77 857.34 -77 856.68 -77 856 C-76.34 856 -75.68 856 -75 856 C-74.34 855.01 -73.68 854.02 -73 853 C-72.195625 852.71125 -71.39125 852.4225 -70.5625 852.125 C-67.10177047 850.60565533 -66.49350367 849.48484191 -65 846 C-64.65909068 844.17173629 -64.34938011 842.33751657 -64.0625 840.5 C-63.34183419 835.92346411 -62.28621755 833.39575814 -59 830 C-59 829.34 -59 828.68 -59 828 C-58.34 828 -57.68 828 -57 828 C-57 827.01 -57 826.02 -57 825 C-53.01606389 823.15433468 -49.55623317 822.63977171 -45.1875 822.375 C-44.02605469 822.30023437 -42.86460937 822.22546875 -41.66796875 822.1484375 C-40.78753906 822.09945313 -39.90710938 822.05046875 -39 822 C-38.67 822.66 -38.34 823.32 -38 824 C-38 823.34 -38 822.68 -38 822 C-37.195625 821.87625 -36.39125 821.7525 -35.5625 821.625 C-34.2940625 821.315625 -34.2940625 821.315625 -33 821 C-31.46022793 817.92045586 -31.76715586 815.40799157 -32 812 C-33.26450694 808.73020698 -33.26450694 808.73020698 -35.125 805.625 C-36.08019531 803.92150391 -36.08019531 803.92150391 -37.0546875 802.18359375 C-38.67036567 799.53946181 -40.37354099 797.14386971 -42.25 794.6875 C-47.47164345 787.10001809 -48.98979929 775.34833062 -47.5703125 766.36328125 C-44.65041523 754.26370693 -38.62219384 743.9708147 -28 737 C-23.88571848 735.020697 -20.22554451 734.62946979 -15.6875 734.375 C-13.80611328 734.26285156 -13.80611328 734.26285156 -11.88671875 734.1484375 C-10.93410156 734.09945313 -9.98148438 734.05046875 -9 734 C-9 734.66 -9 735.32 -9 736 C-6.69 736.33 -4.38 736.66 -2 737 C-2 737.66 -2 738.32 -2 739 C-1.34 739 -0.68 739 0 739 C0.66 740.65 1.32 742.3 2 744 C2.66 744 3.32 744 4 744 C4 744.66 4 745.32 4 746 C4.72316406 746.65484375 5.44632813 747.3096875 6.19140625 747.984375 C10.03417283 751.67970703 11.80486982 756.44568619 13.9375 761.25 C18.19264532 770.76469495 23.09597771 779.16300172 30 787 C30.495 787.5775 30.99 788.155 31.5 788.75 C35.51131663 792.09276386 39.81331469 792.39296645 44.84765625 792.2421875 C47.99918896 791.88756857 49.68140474 791.17807434 52 789 C54.99286483 781.92595585 53.63348926 775.97100098 51 769 C50.36184656 767.65278717 49.70674629 766.31252882 49 765 C48.34 765 47.68 765 47 765 C46.773125 764.443125 46.54625 763.88625 46.3125 763.3125 C41.53768331 754.89972774 31.46629062 749.04707299 23 745 C17.51193711 742.08796663 12.48432165 738.61706719 7.44311523 734.99755859 C4.51076584 732.71926219 4.51076584 732.71926219 1 732 C1 731.34 1 730.68 1 730 C-2.47998507 726.36366461 -2.47998507 726.36366461 -7 725 C-7.433125 723.8553125 -7.433125 723.8553125 -7.875 722.6875 C-8.96269013 719.84970692 -8.96269013 719.84970692 -11 717 C-11.484375 714.65234375 -11.484375 714.65234375 -11.75 711.9375 C-11.84796875 711.05964844 -11.9459375 710.18179687 -12.046875 709.27734375 C-11.89524045 698.67556138 -7.65837889 688.69115531 -4.1875 678.8125 C-3.39807702 676.54676615 -2.61051606 674.28039145 -1.82318115 672.01393127 C-1.30476282 670.52262183 -0.78527914 669.03168228 -0.26470947 667.54112244 C1.85181424 661.47040569 3.87611123 655.37210865 5.86743164 649.25927734 C6.98643868 646.03902645 8.25859945 642.93482284 9.625 639.8125 C12.92200451 632.12985741 14.68851671 624.23320068 16 616 C16.66 616 17.32 616 18 616 C18 614.02 18 612.04 18 610 C18.66 610 19.32 610 20 610 C20.14695312 609.12988281 20.14695312 609.12988281 20.296875 608.2421875 C20.52117187 607.07042969 20.52117187 607.07042969 20.75 605.875 C20.88921875 605.10929687 21.0284375 604.34359375 21.171875 603.5546875 C22.30752992 600.0512992 23.53921517 597.76639843 26 595 C28.97216181 594.5077357 31.06952252 594.37403632 34 594.5625 C35.06734375 594.59053711 35.06734375 594.59053711 36.15625 594.61914062 C39.54329281 594.73604415 42.75817595 594.97848773 46 596 C46 596.66 46 597.32 46 598 C47.60149886 598.67305018 49.20631029 599.33822227 50.8125 600 C51.70582031 600.37125 52.59914063 600.7425 53.51953125 601.125 C56.0331433 602.16633237 56.0331433 602.16633237 59 602 C58.72736328 600.7625 58.72736328 600.7625 58.44921875 599.5 C57.76508964 596.35651446 57.09618077 593.21022792 56.43652344 590.06152344 C56.15131056 588.71457852 55.86053009 587.36879726 55.56347656 586.02441406 C53.57152232 576.98609107 52.71538753 568.59169743 52.9921875 559.328125 C52.9986047 556.59439943 52.84334995 554.5689737 52 552 C51.34 552 50.68 552 50 552 C49.93554688 551.41734375 49.87109375 550.8346875 49.8046875 550.234375 C48.67186879 547.08887838 46.86394885 546.10772183 44.125 544.25 C43.24070312 543.63640625 42.35640625 543.0228125 41.4453125 542.390625 C39.03421248 540.75282831 39.03421248 540.75282831 36 541 C36 540.34 36 539.68 36 539 C33.69 538.67 31.38 538.34 29 538 C26.13966146 541.12036931 25.42124591 543.96154401 24.5390625 547.96875 C23.77266711 550.85661668 22.3812278 553.36311056 21 556 C21 556.66 21 557.32 21 558 C20.34 558 19.68 558 19 558 C18.360625 558.825 17.72125 559.65 17.0625 560.5 C13.0991023 563.7354267 10.63186645 563.59999623 5.65234375 563.359375 C-2.19415145 562.2962269 -7.48601792 556.77915402 -12.47265625 551.07421875 C-21.68803654 538.5592138 -23.51733578 523.03114731 -21.4921875 507.95703125 C-19.07384416 492.28395111 -12.53501546 479.02801237 0 469 C0 468.34 0 467.68 0 467 C1.32 466.67 2.64 466.34 4 466 C4 465.34 4 464.68 4 464 C4.53625 463.9175 5.0725 463.835 5.625 463.75 C8.2216715 463.05525927 8.2216715 463.05525927 10.9375 461 C13.82345826 459.11529257 15.63184085 458.39625402 19 458 C19 457.34 19 456.68 19 456 C19.64066406 455.89042969 20.28132812 455.78085937 20.94140625 455.66796875 C25.00017639 454.92396171 28.50986855 454.23564012 32.25 452.4375 C37.66273592 449.84253217 44.11454409 450.2367243 50 450 C50 450.66 50 451.32 50 452 C51.43793392 451.68950274 52.8753318 451.3765224 54.3125 451.0625 C55.11300781 450.88847656 55.91351562 450.71445312 56.73828125 450.53515625 C60.90736333 449.65819986 60.90736333 449.65819986 63.5703125 446.48828125 C64.08335937 445.44027344 64.59640625 444.39226562 65.125 443.3125 C65.90230469 441.75982422 65.90230469 441.75982422 66.6953125 440.17578125 C67.97055744 437.07166706 68.5919102 434.31946218 69 431 C69.66 431 70.32 431 71 431 C71 430.34 71 429.68 71 429 C72.32 429 73.64 429 75 429 C74.6390625 430.13179688 74.278125 431.26359375 73.90625 432.4296875 C73.43735018 433.91141093 72.96860836 435.39318437 72.5 436.875 C72.14228516 437.99455078 72.14228516 437.99455078 71.77734375 439.13671875 C70.47229585 442.99242067 70.47229585 442.99242067 70 447 C69.34 447 68.68 447 68 447 C67.07529447 451.71599818 66.77076223 454.67265609 69 459 C69.66 459 70.32 459 71 459 C72.48472786 466.42363932 72.73654577 472.23848077 69.65625 479.140625 C68.77811992 481.30002925 68.77811992 481.30002925 69 485 C68.34 485 67.68 485 67 485 C65.32883026 487.13667663 63.92796627 489.39905181 62.47265625 491.6875 C61.38266045 493.39911145 60.2114619 495.05959808 59 496.6875 C57.70432914 499.08483396 57.70432914 499.08483396 58.625 502.1875 C59.82979357 505.2504359 59.82979357 505.2504359 63 507 C68.30558284 506.97133372 68.30558284 506.97133372 72.6640625 504.46484375 C76.37984577 502.1347121 80.14932518 502.64596543 84.4375 502.75 C85.28376953 502.75515625 86.13003906 502.7603125 87.00195312 502.765625 C91.11598254 502.81717118 94.98954617 502.97885775 99 504 C100.7089129 502.4212319 100.7089129 502.4212319 102 500 C101.70613785 494.18009588 99.76982717 490.25468123 97 485.3125 C93.56192682 478.79601965 90.81503919 472.55880262 92 465 C94.125 462.375 94.125 462.375 97 461 C98.0828125 460.38125 98.0828125 460.38125 99.1875 459.75 C104.1903165 458.4159156 109.3043912 457.87441425 114.1796875 459.91015625 C116.24024552 461.15691412 118.1094989 462.50895624 120 464 C120.59554688 464.43441406 121.19109375 464.86882812 121.8046875 465.31640625 C134.97445528 475.58882512 144.27569351 495.90131297 147.9375 511.9375 C148.81046206 515.62097404 150.20382935 518.8328131 151.8046875 522.25390625 C153.0347768 525.07989572 154.08078257 527.93374291 155.11914062 530.83398438 C157.66336048 537.91441016 160.2496509 545.04775534 165 551 C165.66 551 166.32 551 167 551 C167.165 551.70125 167.33 552.4025 167.5 553.125 C169.72413013 557.38791609 172.69402737 559.87904158 177 562 C181.58616446 562.71807006 185.60357142 562.46547619 190 561 C190 560.34 190 559.68 190 559 C190.66 559 191.32 559 192 559 C193.70097842 556.39850359 194.01268885 555.15226623 193.75 552 C193.09449955 549.37799822 192.34306681 547.32798248 191 545 C190.34 545 189.68 545 189 545 C187.79371992 542.66785852 186.8345262 540.50357861 186 538 C185.34 537.67 184.68 537.34 184 537 C183.67 536.01 183.34 535.02 183 534 C182.01 534 181.02 534 180 534 C179.34 532.02 178.68 530.04 178 528 C177.34 528 176.68 528 176 528 C175.34 526.35 174.68 524.7 174 523 C173.34 523 172.68 523 172 523 C171.7628125 522.30132813 171.525625 521.60265625 171.28125 520.8828125 C169.7623217 517.46522382 167.78390729 514.83369808 165.5 511.875 C163.25337435 508.95001012 161.04601541 506.06902312 159 503 C158.34 503 157.68 503 157 503 C156.75378906 502.11699219 156.50757813 501.23398437 156.25390625 500.32421875 C154.92684318 496.80605466 153.36759166 494.65716266 150.9375 491.8125 C147.09722222 487.29166667 147.09722222 487.29166667 146 484 C145.34 484 144.68 484 144 484 C143.59974609 483.14535156 143.59974609 483.14535156 143.19140625 482.2734375 C141.94134629 479.88807719 140.51346923 477.80825761 138.9375 475.625 C135.6545578 470.98945843 132.5291678 466.26713243 129.49804688 461.46435547 C127.54247619 458.36970665 125.54557032 455.32887324 123.42578125 452.34375 C119.27407382 446.40942022 115.93366477 441.54081831 116.390625 433.98828125 C117.11543752 431.62334809 118.21632957 430.6638001 120 429 C120 428.34 120 427.68 120 427 C120.66 427 121.32 427 122 427 C122 426.34 122 425.68 122 425 C122.598125 424.71125 123.19625 424.4225 123.8125 424.125 C126.19327792 422.95257974 126.19327792 422.95257974 129 421 C129 420.34 129 419.68 129 419 C130.75280733 419.42611351 132.50217435 419.86639267 134.25 420.3125 C135.22453125 420.55613281 136.1990625 420.79976563 137.203125 421.05078125 C140.01294092 422.00439196 141.68567118 423.19560804 144 425 C147.15118325 425.72045367 147.15118325 425.72045367 150 426 C150 426.66 150 427.32 150 428 C151.58246707 428.08153933 153.16616273 428.13943557 154.75 428.1875 C155.63171875 428.22230469 156.5134375 428.25710938 157.421875 428.29296875 C160.54317727 427.93827531 161.81616578 427.24312384 164 425 C164.76575948 422.81097924 164.76575948 422.81097924 164.875 420.4375 C164.95492188 419.65246094 165.03484375 418.86742187 165.1171875 418.05859375 C165.21620858 415.77235781 165.21620858 415.77235781 163 414 C161.04627079 414.09518584 161.04627079 414.09518584 158.875 414.5625 C153.04385418 415.38206331 149.21337861 413.60668931 144 411 C143.14428627 406.63585999 142.89172603 402.43923267 143 398 C143.99 398 144.98 398 146 398 C145.74907834 394.25219142 145.49610268 392.48999948 142.77734375 389.8046875 C141.84019531 389.16789062 140.90304687 388.53109375 139.9375 387.875 C138.94492187 387.19824219 137.95234375 386.52148438 136.9296875 385.82421875 C133.37451042 383.61052849 129.78311537 381.79200202 126 380 C124.65824027 379.01133494 123.32103998 378.0161846 122 377 C121.34 377 120.68 377 120 377 C119.67 376.01 119.34 375.02 119 374 C117.01030767 372.97964496 115.00699249 371.98589105 113 371 C111.50594345 369.97980467 110.02836233 368.93530708 108.5625 367.875 C97.6464201 360.11754592 86.03657204 353.82084529 74 348 C72.24850768 347.12799102 70.49836041 346.25327153 68.75 345.375 C67.94949219 344.97925781 67.14898438 344.58351563 66.32421875 344.17578125 C64.81173081 343.41064029 63.31298115 342.61749761 61.83203125 341.79296875 C47.07484032 333.7920821 29.7336046 329.41739868 13 330 C13 329.34 13 328.68 13 328 C10.69 328 8.38 328 6 328 C6 328.66 6 329.32 6 330 C0.39 330 -5.22 330 -11 330 C-11.33 331.32 -11.66 332.64 -12 334 C-8.95480104 338.50159846 -5.04214788 338.99157042 0 340 C0.09474609 340.93199219 0.09474609 340.93199219 0.19140625 341.8828125 C0.80484158 344.21955259 0.80484158 344.21955259 3.21484375 345.0546875 C4.11332031 345.32539063 5.01179687 345.59609375 5.9375 345.875 C10.80555556 347.61111111 10.80555556 347.61111111 12.625 351.25 C12.74875 352.1575 12.8725 353.065 13 354 C14.32 354 15.64 354 17 354 C17 354.66 17 355.32 17 356 C18.32 356.33 19.64 356.66 21 357 C21 357.99 21 358.98 21 360 C21.66 360.33 22.32 360.66 23 361 C23.33 361.99 23.66 362.98 24 364 C24.66 364 25.32 364 26 364 C27.73662334 367.22515763 28.8905928 370.51329166 30 374 C30.66 374 31.32 374 32 374 C32 374.66 32 375.32 32 376 C32.66 376 33.32 376 34 376 C34.268125 376.825 34.53625 377.65 34.8125 378.5 C35.92627758 382.0292986 35.92627758 382.0292986 37.625 385.3125 C40.24942676 392.02522974 39.21706285 399.92535894 39 407 C38.34 407 37.68 407 37 407 C36.67 407.66 36.34 408.32 36 409 C27.95957377 412.63733568 19.0742208 409.50746185 11 407 C4.40546764 404.41367731 -1.66259555 401.03460263 -7.75 397.4375 C-8.57371094 396.95603516 -9.39742187 396.47457031 -10.24609375 395.97851562 C-13.48723485 394.08132595 -16.71281513 392.18250637 -19.8828125 390.16796875 C-22.05373212 388.76432527 -22.05373212 388.76432527 -25.125 388.875 C-28.33385056 389.76045751 -28.33385056 389.76045751 -29.625 393.25 C-30.07875 394.4875 -30.5325 395.725 -31 397 C-32.875 399.625 -32.875 399.625 -35 402 C-36.11375 403.2684375 -36.11375 403.2684375 -37.25 404.5625 C-41.74821674 408.54955574 -45.85494887 410.79241441 -51.875 411.375 C-55 411 -55 411 -57 409 C-57.484375 406.5390625 -57.484375 406.5390625 -57.75 403.625 C-57.84796875 402.66851562 -57.9459375 401.71203125 -58.046875 400.7265625 C-57.99731256 397.84368081 -57.56943726 396.38970063 -56 394 C-54.3125 393.0625 -54.3125 393.0625 -52 392 C-50.73390349 391.19133191 -49.48483071 390.35565037 -48.25 389.5 C-47.32960938 388.86578125 -47.32960938 388.86578125 -46.390625 388.21875 C-45.93171875 387.8165625 -45.4728125 387.414375 -45 387 C-45 386.34 -45 385.68 -45 385 C-43.35 384.34 -41.7 383.68 -40 383 C-40 382.34 -40 381.68 -40 381 C-39.34 381 -38.68 381 -38 381 C-35.78323958 378.26555342 -35.78323958 378.26555342 -35.97265625 375.58203125 C-37.44129958 371.89087824 -40.12050662 370.55707809 -43.4375 368.6875 C-44.03626953 368.32849609 -44.63503906 367.96949219 -45.25195312 367.59960938 C-48.41400154 365.62563192 -48.41400154 365.62563192 -52 365 C-52 364.34 -52 363.68 -52 363 C-53.67721041 361.43041807 -55.46794114 360.0519475 -57.2734375 358.6328125 C-60.25040263 355.81749254 -60.95421121 353.62959592 -61.25 349.5625 C-60.84603299 343.80597015 -60.84603299 343.80597015 -59 341 C-52.99606789 336.49705092 -46.18013056 334.74206446 -39 333 C-38.01 332.67 -37.02 332.34 -36 332 C-36 331.34 -36 330.68 -36 330 C-39.63423209 327.67409146 -42.77088331 327.83734167 -47 328 C-47.33 327.34 -47.66 326.68 -48 326 C-48 326.66 -48 327.32 -48 328 C-48.969375 327.67 -49.93875 327.34 -50.9375 327 C-55.62233361 325.65191523 -61.51962957 324.75981478 -66 327 Z M60 602 C61 604 61 604 61 604 Z M62 604 C62.49547543 606.45631001 62.49547543 606.45631001 64 609 C67.34703957 611.05376822 67.34703957 611.05376822 71 612 C71.99 611.34 72.98 610.68 74 610 C73.65555119 607.52733235 73.65555119 607.52733235 73 605 C70.59454362 603.79727181 69.05003047 603.89928528 66.375 603.9375 C65.55773437 603.94652344 64.74046875 603.95554687 63.8984375 603.96484375 C63.27195312 603.97644531 62.64546875 603.98804688 62 604 Z M-100 705 C-101.89726129 708.00399704 -102.03887745 709.52375124 -101.75 713.0625 C-101.08959824 715.64907355 -100.32768821 717.69867376 -99 720 C-92.88645634 720.49906479 -89.81690718 719.5890681 -85 716 C-82.91621243 712.24918237 -82.91170825 710.48159138 -83.6875 706.25 C-84.73896564 702.7668361 -84.73896564 702.7668361 -88 701 C-92.74838558 700.2086024 -96.34299911 702.11388362 -100 705 Z M-134.5625 703.1875 C-138.13773157 705.0726221 -138.6769878 705.42915153 -140 709 C-140.34975352 711.2563195 -140.34975352 711.2563195 -140.3125 713.5625 C-140.32925781 714.32691406 -140.34601563 715.09132813 -140.36328125 715.87890625 C-139.90845476 718.53450608 -139.1129112 719.37430127 -137 721 C-133.40393206 722.09445546 -131.70326243 722.31966474 -128.25 720.75 C-125.78918149 719.02635231 -125.78918149 719.02635231 -124 716 C-124 714.68 -124 713.36 -124 712 C-123.34 712 -122.68 712 -122 712 C-122.10792821 709.0957107 -122.10792821 709.0957107 -123 706 C-126.96385681 702.97495138 -129.71996008 701.57332003 -134.5625 703.1875 Z M-123 735 C-125.46254076 738.00122155 -126.0306512 739.23372012 -125.875 743.125 C-124.97213505 746.09155626 -124.53808274 747.27772957 -122 749 C-119.78705637 750.19488739 -119.78705637 750.19488739 -117 750 C-112.96674002 748.21620987 -109.81021418 745.90553349 -106.875 742.625 C-105.58074131 738.74222393 -106.3015094 736.66873969 -108 733 C-114.70724488 728.66823768 -117.34750044 730.24824518 -123 735 Z M-118 760 C-120.1490151 762.73511012 -120.07568684 764.7836943 -119.75 768.125 C-119.37557101 771.99766726 -119.37557101 771.99766726 -117 774 C-113.61742417 774.55983398 -110.38351631 774.54749455 -107 774 C-104.40005897 771.834795 -104.40005897 771.834795 -103 769 C-102.34 768.01 -101.68 767.02 -101 766 C-100.63338217 763.14038096 -100.82783287 761.41320112 -101.9375 758.75 C-107.12174901 754.35124327 -113.5721857 755.03548094 -118 760 Z M-60 858 C-59.67 860.31 -59.34 862.62 -59 865 C-58.34 865 -57.68 865 -57 865 C-56.7525 865.639375 -56.505 866.27875 -56.25 866.9375 C-55.18591701 869.15640538 -55.18591701 869.15640538 -53 869.8125 C-50.92839876 870.18451089 -50.92839876 870.18451089 -49 869 C-48.49734308 866.21160696 -48.49734308 866.21160696 -49 863 C-51.86021779 859.94023213 -53.64546878 858.14723165 -57.875 857.6875 C-58.57625 857.790625 -59.2775 857.89375 -60 858 Z " fill="#FDD214" transform="translate(539,29)"/>
<path d="M0 0 C1.96066406 -0.04253906 1.96066406 -0.04253906 3.9609375 -0.0859375 C8.14268225 0.44012421 9.69397099 1.41713007 12.625 4.375 C15.26223706 8.61341671 16.44975489 12.3805143 16.625 17.375 C15.375 20.875 15.375 20.875 13.625 24.375 C13.05385721 25.68376217 12.49103681 26.99619476 11.9375 28.3125 C11.504375 29.323125 11.07125 30.33375 10.625 31.375 C9.965 31.375 9.305 31.375 8.625 31.375 C7.965 33.025 7.305 34.675 6.625 36.375 C5.965 36.375 5.305 36.375 4.625 36.375 C2.02481184 40.27528225 2.47414486 43.84934569 2.625 48.375 C3.32625 48.643125 4.0275 48.91125 4.75 49.1875 C14.62752313 53.26734651 14.62752313 53.26734651 17.625 57.375 C18.88768421 61.49169645 19.05098625 64.40131714 17.3125 68.375 C16.755625 69.035 16.19875 69.695 15.625 70.375 C14.965 70.375 14.305 70.375 13.625 70.375 C13.50125 70.973125 13.3775 71.57125 13.25 72.1875 C12.625 74.375 12.625 74.375 10.625 77.375 C6.11823379 79.71505168 2.70025946 80.74636045 -2.375 80.375 C-2.375 81.035 -2.375 81.695 -2.375 82.375 C-7.985 82.375 -13.595 82.375 -19.375 82.375 C-19.375 81.715 -19.375 81.055 -19.375 80.375 C-19.98085938 80.42140625 -20.58671875 80.4678125 -21.2109375 80.515625 C-28.11644491 80.81309301 -33.16713602 79.33364155 -39.375 76.375 C-39.375 75.715 -39.375 75.055 -39.375 74.375 C-39.94863281 74.11332031 -40.52226562 73.85164062 -41.11328125 73.58203125 C-43.53420523 72.29003555 -45.46882927 70.83406754 -47.5625 69.0625 C-48.25730469 68.48886719 -48.95210938 67.91523437 -49.66796875 67.32421875 C-51.68380329 65.0223848 -52.02887579 63.37646516 -52.375 60.375 C-53.365 60.045 -54.355 59.715 -55.375 59.375 C-56.55358487 57.08232992 -57.55270598 54.88489601 -58.5 52.5 C-58.89638672 51.54287109 -58.89638672 51.54287109 -59.30078125 50.56640625 C-61.90151803 44.24278737 -62.61434366 39.4422685 -62.6875 32.6875 C-62.73100586 31.37749023 -62.73100586 31.37749023 -62.77539062 30.04101562 C-62.83357348 24.04818114 -61.95951711 19.30002628 -58.375 14.375 C-55.25291999 11.62610612 -52.12747229 10.48647738 -48 9.875 C-43.32238124 10.52018879 -39.55843857 12.25007882 -35.375 14.375 C-35.375 15.035 -35.375 15.695 -35.375 16.375 C-34.4778125 16.808125 -34.4778125 16.808125 -33.5625 17.25 C-31.375 18.375 -31.375 18.375 -28.375 20.375 C-28.375 21.035 -28.375 21.695 -28.375 22.375 C-23.41985498 21.50027407 -23.41985498 21.50027407 -19.9375 18.25 C-19.751875 17.63125 -19.56625 17.0125 -19.375 16.375 C-18.715 16.375 -18.055 16.375 -17.375 16.375 C-17.375 15.715 -17.375 15.055 -17.375 14.375 C-16.715 14.375 -16.055 14.375 -15.375 14.375 C-15.5296875 13.3540625 -15.5296875 13.3540625 -15.6875 12.3125 C-15.24301389 8.13433057 -13.13885754 5.46584914 -10.375 2.375 C-6.63236712 -0.12008858 -4.46631308 0.04387341 0 0 Z " fill="#FCD015" transform="translate(449.375,580.625)"/>
<path d="M0 0 C12.07745223 0.46451739 25.51972167 5.69576575 34.25 14.125 C34.25 14.785 34.25 15.445 34.25 16.125 C35.24 16.455 36.23 16.785 37.25 17.125 C37.25 17.785 37.25 18.445 37.25 19.125 C37.91 19.125 38.57 19.125 39.25 19.125 C42.58547218 25.24003233 43.21011752 31.21591906 42.25 38.125 C40.8515625 40.9921875 40.8515625 40.9921875 39.25 43.125 C38.59 43.125 37.93 43.125 37.25 43.125 C36.92 44.115 36.59 45.105 36.25 46.125 C31.14524497 48.50135148 26.9391222 49.93773174 21.25 49.125 C18.36045835 47.74902779 15.68475422 46.21193219 13.25 44.125 C13.25 43.465 13.25 42.805 13.25 42.125 C12.6725 41.91875 12.095 41.7125 11.5 41.5 C3.11780565 36.3775479 -2.12614521 19.75904093 -4.390625 10.5078125 C-4.90901644 7.07065188 -4.62588395 4.48255514 -3.75 1.125 C-2.75 0.125 -2.75 0.125 0 0 Z M9.25 12.125 C7.33070019 17.50656614 10.0092907 22.18343574 12.25 27.125 C16.70534551 35.26961418 16.70534551 35.26961418 24.1875 39.9375 C27.40737657 40.1346353 28.66049802 39.97464427 31.25 38.125 C33.62104692 34.56842962 33.73401112 33.31976306 33.25 29.125 C30.03083061 21.07707653 23.02901593 16.68455935 15.3125 13.1875 C12.3178843 11.96111365 12.3178843 11.96111365 9.25 12.125 Z " fill="#FCD114" transform="translate(633.75,686.875)"/>
<path d="M0 0 C7.42857143 -0.28571429 7.42857143 -0.28571429 11 2 C11 2.66 11 3.32 11 4 C12.6396875 4.0928125 12.6396875 4.0928125 14.3125 4.1875 C18 5 18 5 19.703125 7.1171875 C22.12845518 12.50843351 21.59125091 18.21661462 21 24 C18.9400726 28.97815789 15.94707418 31.18628953 11.140625 33.3046875 C4.95046554 35.31535973 0.27890353 34.08274695 -5.43359375 31.265625 C-7.42279229 29.65839227 -7.41369559 28.42404849 -8 26 C-8.99 25.67 -9.98 25.34 -11 25 C-12.51708428 13.47835991 -12.51708428 13.47835991 -10 8 C-9.34 8 -8.68 8 -8 8 C-8 7.34 -8 6.68 -8 6 C-7.34 6 -6.68 6 -6 6 C-5.34 4.68 -4.68 3.36 -4 2 C-2.68 2 -1.36 2 0 2 C0 1.34 0 0.68 0 0 Z M-3 12 C-4.16066424 15.41751136 -4.5822376 17.620875 -3.15234375 21.0078125 C-2.18451899 22.72145204 -1.09935694 24.36762151 0 26 C5.95135933 26.61784132 5.95135933 26.61784132 10.9375 23.6875 C13.14232781 21.11753287 13.14232781 21.11753287 14 18 C13.56189807 14.42389165 13.56189807 14.42389165 12 11 C5.95519254 7.01299934 2.50556202 7.3322409 -3 12 Z " fill="#FDD214" transform="translate(455,467)"/>
<path d="M0 0 C3.96 0 7.92 0 12 0 C12 0.66 12 1.32 12 2 C14.475 2.495 14.475 2.495 17 3 C17.33 3.99 17.66 4.98 18 6 C18.66 6 19.32 6 20 6 C22.26647307 10.53294613 22.3948217 14.0252466 22 19 C20.5625 21.25 20.5625 21.25 19 23 C18.29485154 25.14733927 18.29485154 25.14733927 18 27 C11.12979186 28.55052404 3.95060632 29.3458906 -2.5625 26.375 C-6.36787059 22.66720301 -8.13222942 19.30049103 -8.375 14 C-8.24090745 10.1262152 -7.00015966 7.33359944 -5 4 C-4.34 4 -3.68 4 -3 4 C-3 3.34 -3 2.68 -3 2 C-2.01 2 -1.02 2 0 2 C0 1.34 0 0.68 0 0 Z M3.375 9.25 C1.80763867 11.24482352 1.30437796 12.4888818 1 15 C1.37907282 17.18703385 1.37907282 17.18703385 2 19 C7.28199593 20.19988045 7.28199593 20.19988045 12 18 C12.58342353 14.54230809 12.58342353 14.54230809 12 11 C10.30835778 8.95970404 10.30835778 8.95970404 8 8 C5.05461992 7.69514462 5.05461992 7.69514462 3.375 9.25 Z " fill="#FCD114" transform="translate(605,387)"/>
<path d="M0 0 C3.42787025 1.91169687 6.47482603 3.98140123 9 7 C10.1637634 11.91690037 9.29212824 16.137851 6.75 20.4375 C4.85912158 23.32634203 3.23651913 24.75659152 0 26 C-4.27811129 26.33953264 -6.9224313 26.44508272 -10.875 24.8125 C-15.34656632 20.99851696 -15.39831128 15.94073655 -16.046875 10.40234375 C-15.99325561 7.65435009 -15.51237672 6.28072244 -14 4 C-9.22973029 0.6327508 -5.97833146 -0.86957549 0 0 Z " fill="#FDD214" transform="translate(550,1007)"/>
<path d="M0 0 C2.33944736 0.28730055 4.6739143 0.61936779 7 1 C7.45886492 12.47162307 5.28948481 22.99015976 1.6875 33.8125 C1.40382568 34.70291992 1.12015137 35.59333984 0.82788086 36.51074219 C0.02161335 38.81282748 -0.74714322 40.90679086 -2 43 C-4.73046875 44.07421875 -4.73046875 44.07421875 -7 44 C-6.45441041 38.72596734 -5.78599771 33.49389517 -5 28.25 C-4.01688542 21.51493146 -3.42866186 14.79090628 -3 8 C-2.34 8 -1.68 8 -1 8 C-1.020625 6.865625 -1.04125 5.73125 -1.0625 4.5625 C-1 1 -1 1 0 0 Z " fill="#FBD119" transform="translate(524,639)"/>
<path d="M0 0 C0.66 0.66 1.32 1.32 2 2 C2.78375 1.95875 3.5675 1.9175 4.375 1.875 C7 2 7 2 9.3125 3.75 C11 6 11 6 11 10 C7.28144302 10.15177784 4.36454031 10.12151344 0.8125 8.9375 C-5.89474329 7.28817788 -12.90669736 7.94534328 -19.3125 10.5625 C-23.36428515 12.14200947 -25.7417138 12.26614289 -30 12 C-30 9.25 -30 9.25 -29 6 C-21.56565495 -0.05617665 -9.15283633 -1.08054318 0 0 Z " fill="#FDD214" transform="translate(447,681)"/>
<path d="M0 0 C3.625 -0.1875 3.625 -0.1875 7 0 C5.53559322 7.61491524 0.71791068 13.12445383 -4 19 C-4.639375 19.886875 -5.27875 20.77375 -5.9375 21.6875 C-9.79327266 26.01063905 -14.09371331 30.03637917 -20 30.875 C-20.99 30.91625 -21.98 30.9575 -23 31 C-23.2734375 28.76953125 -23.2734375 28.76953125 -23 26 C-21.1015625 23.76171875 -21.1015625 23.76171875 -18.625 21.6875 C-17.81289063 20.99011719 -17.00078125 20.29273438 -16.1640625 19.57421875 C-14 18 -14 18 -12 18 C-12 17.34 -12 16.68 -12 16 C-11.34 16 -10.68 16 -10 16 C-9.731875 15.236875 -9.46375 14.47375 -9.1875 13.6875 C-8.04865495 11.11011382 -7.18583329 9.73045136 -5 8 C-4.34 8 -3.68 8 -3 8 C-2.87625 7.236875 -2.7525 6.47375 -2.625 5.6875 C-2 3 -2 3 0 0 Z " fill="#FCD214" transform="translate(395,405)"/>
<path d="M0 0 C0.969375 0.61875 1.93875 1.2375 2.9375 1.875 C2.9375 3.855 2.9375 5.835 2.9375 7.875 C-1.0625 7.875 -1.0625 7.875 -3.73828125 6.4453125 C-7.93013263 4.46514299 -11.67427469 4.12852715 -16.25 3.75 C-17.84791611 3.60438654 -19.44558793 3.45606025 -21.04296875 3.3046875 C-21.74317139 3.24522949 -22.44337402 3.18577148 -23.16479492 3.12451172 C-25.0625 2.875 -25.0625 2.875 -28.0625 1.875 C-28.75 -0.1875 -28.75 -0.1875 -29.0625 -2.125 C-19.84428406 -6.00635408 -8.647386 -4.89671255 0 0 Z " fill="#FCD115" transform="translate(470.0625,546.125)"/>
<path d="M0 0 C1.9375 1.6875 1.9375 1.6875 3 4 C3.1875 7.25 3.1875 7.25 3 10 C2.01 10 1.02 10 0 10 C-0.33 11.32 -0.66 12.64 -1 14 C-3.64 14 -6.28 14 -9 14 C-9 13.34 -9 12.68 -9 12 C-9.66 12 -10.32 12 -11 12 C-12.50934217 8.98131566 -12.17510672 6.32702771 -12 3 C-8.69167681 -1.96248478 -5.44333401 -1.26363111 0 0 Z " fill="#FDD214" transform="translate(698,743)"/>
<path d="M0 0 C1.1446875 0.3403125 1.1446875 0.3403125 2.3125 0.6875 C1.58710119 5.53316408 -0.17377236 9.8611166 -2 14.375 C-2.29583984 15.14650391 -2.59167969 15.91800781 -2.89648438 16.71289062 C-3.19490234 17.45087891 -3.49332031 18.18886719 -3.80078125 18.94921875 C-4.19970581 19.95408325 -4.19970581 19.95408325 -4.60668945 20.97924805 C-5.9699244 23.13387984 -7.36038048 23.73992857 -9.6875 24.6875 C-9.6875 25.3475 -9.6875 26.0075 -9.6875 26.6875 C-10.6775 26.6875 -11.6675 26.6875 -12.6875 26.6875 C-13.06601209 20.75747733 -11.79325375 16.21510359 -9.6875 10.6875 C-8.0375 10.6875 -6.3875 10.6875 -4.6875 10.6875 C-5.038125 10.11 -5.38875 9.5325 -5.75 8.9375 C-6.6875 6.6875 -6.6875 6.6875 -6.5 4.625 C-5.01801978 1.09104716 -3.99420966 -0.46444298 0 0 Z " fill="#FCD214" transform="translate(508.6875,522.3125)"/>
<path d="M0 0 C2.31361802 3.47042703 2.51020728 4.91834173 2 9 C0.4375 10.9375 0.4375 10.9375 -2 12 C-5.85081794 11.93244179 -8.10332103 11.81261532 -11 9.1875 C-12 7 -12 7 -11.8125 4.9375 C-11 3 -11 3 -9 0 C-5.46474216 -1.17841928 -3.5797952 -0.91399027 0 0 Z " fill="#FAD117" transform="translate(456,415)"/>
<path d="M0 0 C-0.17755394 4.52762542 -0.50393027 6.48085725 -3.6875 9.8125 C-8.42782521 12.94290344 -12.30930457 14.33474679 -18 14 C-18.2578125 11.6953125 -18.2578125 11.6953125 -18 9 C-16.2421875 7.3046875 -16.2421875 7.3046875 -13.875 5.875 C-13.05515625 5.37484375 -12.2353125 4.8746875 -11.390625 4.359375 C-3.72413793 0 -3.72413793 0 0 0 Z " fill="#FCD114" transform="translate(430,827)"/>
<path d="M0 0 C2.4294516 3.6441774 2.16179575 5.71241272 2 10 C0.68 10 -0.64 10 -2 10 C-2 10.66 -2 11.32 -2 12 C-4.72705554 12.22111261 -6.46420662 12.30361625 -8.875 10.9375 C-10.69848531 7.79705307 -9.8658284 5.4014687 -9 2 C-5.54970958 -0.30019361 -4.05445642 -0.43132515 0 0 Z " fill="#F5CC1F" transform="translate(575,463)"/>
<path d="M0 0 C2.875 -0.125 2.875 -0.125 6 0 C8 2 8 2 8.265625 3.875 C8.26046875 4.57625 8.2553125 5.2775 8.25 6 C8.25515625 6.70125 8.2603125 7.4025 8.265625 8.125 C8 10 8 10 6 12 C2.875 12.125 2.875 12.125 0 12 C0 11.34 0 10.68 0 10 C-0.99 9.67 -1.98 9.34 -3 9 C-2.44271087 5.65626525 -1.64826111 2.96687001 0 0 Z " fill="#FCD114" transform="translate(463,363)"/>
<path d="M0 0 C1.670625 0.061875 1.670625 0.061875 3.375 0.125 C4.86606457 3.10712913 4.49441467 5.84109658 4.375 9.125 C2.48011048 11.01988952 -0.19639146 10.30519112 -2.71484375 10.35546875 C-4.625 10.125 -4.625 10.125 -6.625 8.125 C-6.17945912 2.77850948 -5.84477173 0.20154385 0 0 Z " fill="#FCD214" transform="translate(405.625,686.875)"/>
<path d="M0 0 C7.75 -0.125 7.75 -0.125 10 1 C10.1875 4.375 10.1875 4.375 10 8 C6.77626323 10.14915785 5.73296326 10.38286803 2 10 C0 8 0 8 -0.1953125 6.0546875 C-0.13020833 4.03645833 -0.06510417 2.01822917 0 0 Z " fill="#FCD114" transform="translate(452,835)"/>
<path d="M0 0 C1.99954746 -0.04254356 4.00041636 -0.04080783 6 0 C7 1 7 1 7.1875 4.4375 C7 8 7 8 5 10 C2.5 9.875 2.5 9.875 0 9 C-1.7941758 6.43689172 -2 5.16880694 -2 2 C-1.34 2 -0.68 2 0 2 C0 1.34 0 0.68 0 0 Z " fill="#FAD016" transform="translate(516,917)"/>
<path d="M0 0 C1.9375 0.75 1.9375 0.75 3.9375 2.75 C4.1875 5.25 4.1875 5.25 3.9375 7.75 C1.9375 9.75 1.9375 9.75 -0.5625 10 C-3.0625 9.75 -3.0625 9.75 -5.0625 7.75 C-5.375 4.75 -5.375 4.75 -5.0625 1.75 C-2.0625 -0.25 -2.0625 -0.25 0 0 Z " fill="#FCD114" transform="translate(490.0625,691.25)"/>
<path d="M0 0 C0.70189453 0.00902344 1.40378906 0.01804687 2.12695312 0.02734375 C3.85561525 0.05086296 5.58410145 0.08673287 7.3125 0.125 C7.3125 0.455 7.3125 0.785 7.3125 1.125 C5.86617188 1.14626953 5.86617188 1.14626953 4.390625 1.16796875 C3.12734375 1.21566406 1.8640625 1.26335938 0.5625 1.3125 C-0.69046875 1.34730469 -1.9434375 1.38210938 -3.234375 1.41796875 C-7.4607962 2.28333327 -8.31725733 3.65270525 -10.6875 7.125 C-11.3475 7.125 -12.0075 7.125 -12.6875 7.125 C-12.88085938 7.83527344 -13.07421875 8.54554688 -13.2734375 9.27734375 C-13.53382813 10.19644531 -13.79421875 11.11554687 -14.0625 12.0625 C-14.44535156 13.43728516 -14.44535156 13.43728516 -14.8359375 14.83984375 C-15.6875 17.125 -15.6875 17.125 -17.6875 18.125 C-18.0175 19.115 -18.3475 20.105 -18.6875 21.125 C-21.77638522 23.18425681 -22.39685927 23.3640374 -25.875 23.25 C-27.133125 23.20875 -28.39125 23.1675 -29.6875 23.125 C-29.6875 22.465 -29.6875 21.805 -29.6875 21.125 C-30.3475 20.795 -31.0075 20.465 -31.6875 20.125 C-30.6975 20.125 -29.7075 20.125 -28.6875 20.125 C-28.6875 20.785 -28.6875 21.445 -28.6875 22.125 C-23.73235498 21.25027407 -23.73235498 21.25027407 -20.25 18 C-20.064375 17.38125 -19.87875 16.7625 -19.6875 16.125 C-19.0275 16.125 -18.3675 16.125 -17.6875 16.125 C-17.6875 15.465 -17.6875 14.805 -17.6875 14.125 C-17.0275 14.125 -16.3675 14.125 -15.6875 14.125 C-15.790625 13.444375 -15.89375 12.76375 -16 12.0625 C-15.55551389 7.88433057 -13.45135754 5.21584914 -10.6875 2.125 C-7.00662647 -0.32891569 -4.24394412 -0.10302759 0 0 Z " fill="#F1CA27" transform="translate(449.6875,580.875)"/>
<path d="M0 0 C3.375 -0.125 3.375 -0.125 7 0 C9 2 9 2 9.1875 4.5625 C9 7 9 7 8 8 C5.32941149 8.14115161 2.67567762 8.04247107 0 8 C-0.98120464 4.94736336 -0.98120464 3.05263664 0 0 Z " fill="#FCD114" transform="translate(404,441)"/>
<path d="M0 0 C2.5 0.25 2.5 0.25 4.5 2.25 C4.6875 4.8125 4.6875 4.8125 4.5 7.25 C3.5 8.25 3.5 8.25 1.65234375 8.34765625 C-0.3984375 8.31510417 -2.44921875 8.28255208 -4.5 8.25 C-4.625 5.375 -4.625 5.375 -4.5 2.25 C-2.5 0.25 -2.5 0.25 0 0 Z " fill="#FDD214" transform="translate(644.5,668.75)"/>
<path d="M0 0 C0.33 1.98 0.66 3.96 1 6 C-5.75 7.125 -5.75 7.125 -8 6 C-8 4.02 -8 2.04 -8 0 C-5.13822943 -1.43088528 -3.06624227 -0.59991697 0 0 Z " fill="#FCD114" transform="translate(542,607)"/>
<path d="M0 0 C0 2.31 0 4.62 0 7 C-2.3125 7.6875 -2.3125 7.6875 -5 8 C-6.875 6.875 -6.875 6.875 -8 5 C-7.8125 2.375 -7.8125 2.375 -7 0 C-4.3333581 -1.33332095 -2.83319697 -0.67102033 0 0 Z " fill="#FCD114" transform="translate(451,865)"/>
<path d="M0 0 C2.6875 0.875 2.6875 0.875 5 2 C5.042721 3.66611905 5.04063832 5.33382885 5 7 C4 8 4 8 0.9375 8.0625 C-0.031875 8.041875 -1.00125 8.02125 -2 8 C-2.33 6.02 -2.66 4.04 -3 2 C-2.01 1.34 -1.02 0.68 0 0 Z " fill="#FDD214" transform="translate(613,443)"/>
<path d="M0 0 C2.625 0.375 2.625 0.375 5 1 C5.33 2.65 5.66 4.3 6 6 C5.34 6 4.68 6 4 6 C4 6.66 4 7.32 4 8 C2.35 8 0.7 8 -1 8 C-1.625 5.125 -1.625 5.125 -2 2 C-1.34 1.34 -0.68 0.68 0 0 Z " fill="#FCD216" transform="translate(525,623)"/>
<path d="M0 0 C1.2065625 0.0309375 1.2065625 0.0309375 2.4375 0.0625 C2.7675 2.3725 3.0975 4.6825 3.4375 7.0625 C1.1275 7.0625 -1.1825 7.0625 -3.5625 7.0625 C-3.60504356 5.06295254 -3.60330783 3.06208364 -3.5625 1.0625 C-2.5625 0.0625 -2.5625 0.0625 0 0 Z " fill="#FDD214" transform="translate(494.5625,713.9375)"/>
<path d="M0 0 C0.66 0 1.32 0 2 0 C1.34 1.65 0.68 3.3 0 5 C-0.66 5 -1.32 5 -2 5 C-4.60018816 8.90028225 -4.15085514 12.47434569 -4 17 C-1.525 17.99 -1.525 17.99 1 19 C-0.32 19.33 -1.64 19.66 -3 20 C-3 19.34 -3 18.68 -3 18 C-3.66 18 -4.32 18 -5 18 C-5 17.34 -5 16.68 -5 16 C-5.66 16 -6.32 16 -7 16 C-8.21386936 12.35839192 -7.6674695 11.66834531 -6.0625 8.3125 C-5.68222656 7.50425781 -5.30195313 6.69601562 -4.91015625 5.86328125 C-4.60980469 5.24839844 -4.30945313 4.63351562 -4 4 C-3.34 4 -2.68 4 -2 4 C-2 3.34 -2 2.68 -2 2 C-1.34 2 -0.68 2 0 2 C0 1.34 0 0.68 0 0 Z " fill="#F4CE2B" transform="translate(456,612)"/>
<path d="M0 0 C0.66 0.33 1.32 0.66 2 1 C0.71937515 2.7074998 -0.61767557 4.37373596 -2 6 C-2.66 6 -3.32 6 -4 6 C-6.14137154 11.30990503 -6.42107063 16.23295407 -6.625 21.875 C-6.66367187 22.75414062 -6.70234375 23.63328125 -6.7421875 24.5390625 C-6.83581034 26.69238793 -6.91896459 28.84616414 -7 31 C-7.33 31 -7.66 31 -8 31 C-8.11760715 27.83365364 -8.18771024 24.66787926 -8.25 21.5 C-8.30027344 20.1696875 -8.30027344 20.1696875 -8.3515625 18.8125 C-8.44181103 12.6755998 -7.52070374 8.11008618 -4 3 C-1.75 1 -1.75 1 0 0 Z " fill="#ECCA29" transform="translate(395,592)"/>
<path d="M0 0 C2.31 0 4.62 0 7 0 C7 0.99 7 1.98 7 3 C6.01 3 5.02 3 4 3 C4 4.65 4 6.3 4 8 C2.68 7.67 1.36 7.34 0 7 C-1.125 2.25 -1.125 2.25 0 0 Z " fill="#FCD214" transform="translate(461,804)"/>
<path d="M0 0 C6.258654 -0.5326514 10.45108785 1.18150494 16 4 C16 4.66 16 5.32 16 6 C16.66 6.33 17.32 6.66 18 7 C14.28400809 7.20086443 13.22791555 7.1519437 10 5 C10 4.34 10 3.68 10 3 C7.69 3 5.38 3 3 3 C3 2.34 3 1.68 3 1 C2.01 0.67 1.02 0.34 0 0 Z " fill="#F3C927" transform="translate(398,591)"/>
<path d="M0 0 C0.33 0 0.66 0 1 0 C2.29640882 5.77491203 1.62587044 8.74825912 -1 14 C-1.57114279 15.30876217 -2.13396319 16.62119476 -2.6875 17.9375 C-3.120625 18.948125 -3.55375 19.95875 -4 21 C-4.98120464 17.94736336 -4.98120464 16.05263664 -4 13 C-3.34 13 -2.68 13 -2 13 C-2.061875 11.7315625 -2.061875 11.7315625 -2.125 10.4375 C-1.98464972 6.57786731 -1.17219836 3.66311987 0 0 Z " fill="#F3C925" transform="translate(464,591)"/>
<path d="M0 0 C0.99 0 1.98 0 3 0 C3 0.66 3 1.32 3 2 C3.99 2 4.98 2 6 2 C6 3.98 6 5.96 6 8 C6.66 8 7.32 8 8 8 C8.33 9.32 8.66 10.64 9 12 C7.0625 11.3125 7.0625 11.3125 5 10 C4.25 7.375 4.25 7.375 4 5 C3.01 4.67 2.02 4.34 1 4 C0.3125 1.9375 0.3125 1.9375 0 0 Z " fill="#F5CD25" transform="translate(393,636)"/>
<path d="M0 0 C2.875 -0.1875 2.875 -0.1875 6 0 C8.4294516 3.6441774 8.16179575 5.71241272 8 10 C6.68 10 5.36 10 4 10 C4 10.66 4 11.32 4 12 C2.35 12 0.7 12 -1 12 C-0.34 11.01 0.32 10.02 1 9 C4.125 8.8125 4.125 8.8125 7 9 C6.67 7.02 6.34 5.04 6 3 C5.01 2.67 4.02 2.34 3 2 C2.01 1.34 1.02 0.68 0 0 Z " fill="#E9C82E" transform="translate(569,463)"/>
<path d="M0 0 C1.98 0 3.96 0 6 0 C6.33 1.32 6.66 2.64 7 4 C6.34 4 5.68 4 5 4 C5 4.66 5 5.32 5 6 C3.68 5.67 2.36 5.34 1 5 C0.67 3.35 0.34 1.7 0 0 Z " fill="#FCD214" transform="translate(488,735)"/>
<path d="M0 0 C1.0209375 0.433125 1.0209375 0.433125 2.0625 0.875 C5.32893093 2.12597355 8.62846123 3.07447955 12 4 C11.67 5.32 11.34 6.64 11 8 C9.68 7.67 8.36 7.34 7 7 C7 6.34 7 5.68 7 5 C6.401875 4.731875 5.80375 4.46375 5.1875 4.1875 C3.02775192 3.01506533 1.64209744 1.80630718 0 0 Z " fill="#F0C926" transform="translate(403,650)"/>
<path d="M0 0 C0.99 0.33 1.98 0.66 3 1 C1.29374499 3.78388975 0.52373261 4.85384206 -2.6875 5.75 C-3.8321875 5.87375 -3.8321875 5.87375 -5 6 C-2.25 1.125 -2.25 1.125 0 0 Z " fill="#E9C616" transform="translate(460,653)"/>
<path d="M0 0 C0.66 0.33 1.32 0.66 2 1 C2 2.98 2 4.96 2 7 C0.68 7 -0.64 7 -2 7 C-1.34 6.67 -0.68 6.34 0 6 C0 4.02 0 2.04 0 0 Z " fill="#E2CB7B" transform="translate(471,547)"/>
</svg>
