<!DOCTYPE svg PUBLIC "-//W3C//DTD SVG 1.1//EN" "http://www.w3.org/Graphics/SVG/1.1/DTD/svg11.dtd">
<!-- Uploaded to: SVG Repo, www.svgrepo.com, Transformed by: SVG Repo Mixer Tools -->
<svg fill="#1f1f1f" height="800px" width="800px" version="1.1" id="Layer_1" xmlns="http://www.w3.org/2000/svg" xmlns:xlink="http://www.w3.org/1999/xlink" viewBox="0 0 512 512" xml:space="preserve" stroke="#1f1f1f">
<g id="SVGRepo_bgCarrier" stroke-width="0"/>
<g id="SVGRepo_tracerCarrier" stroke-linecap="round" stroke-linejoin="round"/>
<g id="SVGRepo_iconCarrier"> <g> <g> <path d="M457.259,203.682c-23.987-4.548-41.993-22.554-46.541-46.541c-0.384-2.031-2.074-3.541-4.139-3.541H105.421 c-2.065,0-3.755,1.51-4.139,3.541c-4.548,23.987-22.554,41.992-46.541,46.541c-2.031,0.384-3.541,2.074-3.541,4.139v96.35 c0,2.065,1.51,3.755,3.541,4.139c23.987,4.548,41.993,22.554,46.541,46.541c0.384,2.039,2.074,3.55,4.139,3.55h301.15 c2.065,0,3.755-1.51,4.139-3.541c4.548-23.987,22.554-41.992,46.541-46.541c2.039-0.384,3.55-2.074,3.55-4.139v-96.358 C460.8,205.756,459.29,204.066,457.259,203.682z M340.139,270.455c-5.837,35.328-34.321,63.829-69.649,69.675 c-58.308,9.651-108.262-40.277-98.628-98.594c5.837-35.328,34.321-63.821,69.649-69.675 C299.819,162.21,349.773,212.139,340.139,270.455z"/> </g> </g> <g> <g> <path d="M503.467,102.4H8.533C3.814,102.4,0,106.223,0,110.933v290.133c0,4.71,3.814,8.533,8.533,8.533h494.933 c4.719,0,8.533-3.823,8.533-8.533V110.933C512,106.223,508.186,102.4,503.467,102.4z M477.867,315.733 c0,4.71-3.814,8.533-8.533,8.533c-24.721,0-42.667,17.946-42.667,42.667c0,4.71-3.814,8.533-8.533,8.533H93.867 c-4.719,0-8.533-3.823-8.533-8.533c0-24.721-17.946-42.667-42.667-42.667c-4.719,0-8.533-3.823-8.533-8.533V196.267 c0-4.71,3.814-8.533,8.533-8.533c24.721,0,42.667-17.946,42.667-42.667c0-4.71,3.814-8.533,8.533-8.533h324.267 c4.719,0,8.533,3.823,8.533,8.533c0,24.721,17.946,42.667,42.667,42.667c4.719,0,8.533,3.823,8.533,8.533V315.733z"/> </g> </g> <g> <g> <path d="M256,187.733c-37.641,0-68.267,30.626-68.267,68.267c0,37.641,30.626,68.267,68.267,68.267 c37.641,0,68.267-30.626,68.267-68.267S293.641,187.733,256,187.733z M290.202,275.678c-0.956,11.145-11.145,19.55-25.668,22.118 v0.87c0,4.71-3.814,8.533-8.533,8.533s-8.533-3.823-8.533-8.533V298.3c-10.394-0.93-16.546-3.917-23.185-10.743 c-3.285-3.379-3.208-8.781,0.171-12.066c3.379-3.285,8.772-3.208,12.066,0.171c4.002,4.113,6.34,5.931,19.362,5.948 c11.127-0.213,17.101-4.838,17.314-7.381c0.171-1.92-4.326-7.049-18.748-9.822c-21.641-1.357-31.241-13.628-31.061-25.455 c0.154-10.726,8.474-21.606,24.081-24.687v-0.93c0-4.71,3.814-8.533,8.533-8.533s8.533,3.823,8.533,8.533v0.478 c10.94,1.195,18.628,4.83,23.748,11.281c2.935,3.695,2.313,9.062-1.374,11.989c-1.579,1.246-3.439,1.852-5.299,1.852 c-2.517,0-5.009-1.101-6.69-3.226c-1.041-1.314-4.207-5.291-18.85-5.299c-10.684,0.137-15.565,5.222-15.625,8.789 c-0.051,3.78,5.393,7.842,15.915,8.286c0.222,0.008,1.033,0.102,1.246,0.145C289.562,253.747,290.637,270.643,290.202,275.678z"/> </g> </g> </g>
</svg>