<!DOCTYPE svg PUBLIC "-//W3C//DTD SVG 1.1//EN" "http://www.w3.org/Graphics/SVG/1.1/DTD/svg11.dtd">
<!-- Uploaded to: SVG Repo, www.svgrepo.com, Transformed by: SVG Repo Mixer Tools -->
<svg fill="#5507ff" width="800px" height="800px" viewBox="0 0 100 100" xmlns="http://www.w3.org/2000/svg">
<g id="SVGRepo_bgCarrier" stroke-width="0"/>
<g id="SVGRepo_tracerCarrier" stroke-linecap="round" stroke-linejoin="round"/>
<g id="SVGRepo_iconCarrier">
<rect x="19" y="18.92" width="60" height="16" rx="4" ry="4"/>
<rect x="19" y="40.92" width="27" height="16" rx="4" ry="4"/>
<rect x="19" y="62.92" width="27" height="16" rx="4" ry="4"/>
<path d="M64.95,72.49a1.45,1.45,0,0,0,2.1,0l11.5-11.4a1.45,1.45,0,0,0,0-2.1L67,47.49a1.45,1.45,0,0,0-2.1,0l-2.1,2.1a1.45,1.45,0,0,0,0,2.1l3.6,3.6a1,1,0,0,1-.7,1.7H53.6a1.63,1.63,0,0,0-1.6,1.5v3A1.71,1.71,0,0,0,53.6,63H65.75a1,1,0,0,1,.7,1.7l-3.6,3.6a1.45,1.45,0,0,0,0,2.1Z"/>
</g>
</svg>