<!DOCTYPE svg PUBLIC "-//W3C//DTD SVG 1.1//EN" "http://www.w3.org/Graphics/SVG/1.1/DTD/svg11.dtd">
<!-- Uploaded to: SVG Repo, www.svgrepo.com, Transformed by: SVG Repo Mixer Tools -->
<svg fill="#00a34f" height="800px" width="800px" version="1.1" id="Layer_1" xmlns="http://www.w3.org/2000/svg" xmlns:xlink="http://www.w3.org/1999/xlink" viewBox="0 0 512 512" xml:space="preserve">
<g id="SVGRepo_bgCarrier" stroke-width="0"/>
<g id="SVGRepo_tracerCarrier" stroke-linecap="round" stroke-linejoin="round"/>
<g id="SVGRepo_iconCarrier"> <g> <g> <path d="M225.638,232.879h-5.847v14.756h5.847c3.598,0.001,5.634-0.316,5.634-6.8v-1.261 C231.273,233.177,229.341,232.879,225.638,232.879z"/> </g> </g> <g> <g> <path d="M155.825,232.879c-3.701,0-5.633,0.297-5.633,6.695v32.749c0,6.49,1.932,6.792,5.633,6.792 c3.705,0.001,5.638-0.301,5.638-6.792v-32.749C161.464,233.189,159.427,232.879,155.825,232.879z"/> </g> </g> <g> <g> <path d="M493.268,90.933H18.732C8.387,90.933,0,99.32,0,109.665v292.67c0,10.346,8.387,18.732,18.732,18.732h474.537 c10.345,0,18.732-8.386,18.732-18.732v-292.67C512,99.32,503.613,90.933,493.268,90.933z M187.166,272.323 c0,19.721-12.01,31.974-31.341,31.974s-31.338-12.253-31.338-31.974v-32.749c0-19.657,12.007-31.869,31.338-31.869 s31.341,12.211,31.341,31.869V272.323z M256.978,240.523c0,19.655-12.008,31.865-31.339,31.865h-5.847v19.161 c0,6.792-5.646,12.114-12.856,12.114c-7.204-0.001-12.847-5.324-12.847-12.116v-71.943c0-6.395,5.071-11.505,11.795-11.883 c0.176-0.01,0.351-0.015,0.527-0.015h19.44c19.201,0,31.128,12.168,31.128,31.759V240.523z M310.342,303.663h-37.608 c-7.029,0-12.536-5.322-12.536-12.114V219.71c0-6.731,5.507-12.002,12.536-12.002h37.607c6.845,0,12.007,5.341,12.007,12.424 c0,7.149-5.275,12.749-12.007,12.749h-24.439v10.322h7.218v-0.001c6.733,0,12.007,5.507,12.007,12.539 c0,6.85-5.275,12.216-12.007,12.216h-7.217v10.529h24.439c6.733,0,12.007,5.552,12.007,12.641 C322.349,298.156,317.074,303.663,310.342,303.663z M387.512,291.548c0,6.792-5.646,12.114-12.855,12.114 c-2.529,0-8.86-0.893-13.018-9.172l-11.631-22.638v19.695c0,6.792-5.647,12.114-12.856,12.114 c-7.202,0.001-12.846-5.321-12.846-12.113V219.71c0-6.843,5.523-12.002,12.847-12.002c5.731,0,10.374,3.326,13.8,9.885 l10.853,21.388v-19.376c0-6.783,5.526-11.897,12.851-11.897c7.328,0,12.855,5.115,12.855,11.897V291.548z"/> </g> </g> </g>
</svg>