<?xml version="1.0" encoding="UTF-8"?>
<svg version="1.1" xmlns="http://www.w3.org/2000/svg" width="1918" height="139">
<path d="M0 0 C4 0 4 0 6.3125 1.4375 C8.8508024 5.2919592 7.85965944 8.62694981 7 13 C6.01 13 5.02 13 4 13 C4 14.32 4 15.64 4 17 C8.62 19.31 13.24 21.62 18 24 C17.67 25.98 17.34 27.96 17 30 C18.258125 29.855625 19.51625 29.71125 20.8125 29.5625 C21.52019531 29.48128906 22.22789062 29.40007813 22.95703125 29.31640625 C25.19396393 29.02829265 25.19396393 29.02829265 28 28 C28 26.68 28 25.36 28 24 C30.16967689 23.04534217 31.56328793 22.85598788 33.82421875 23.6015625 C35.5684743 24.35870385 37.28627131 25.17609198 39 26 C39 26.99 39 27.98 39 29 C37.515 29.99 37.515 29.99 36 31 C36.639375 31.185625 37.27875 31.37125 37.9375 31.5625 C40 33 40 33 40.875 36.5 C40.936875 38.2325 40.936875 38.2325 41 40 C40.34 40.66 39.68 41.32 39 42 C39.66 43.65 40.32 45.3 41 47 C43.43800966 46.69112547 45.87535367 46.37805338 48.3125 46.0625 C49.00279297 45.97548828 49.69308594 45.88847656 50.40429688 45.79882812 C53.40142288 45.40789865 56.12450119 44.9584996 59 44 C61.1649902 43.90514218 63.33293823 43.87011923 65.5 43.875 C66.6446875 43.87242188 67.789375 43.86984375 68.96875 43.8671875 C72 44 72 44 75 45 C77.05893621 45.22325814 79.12233653 45.40705759 81.1875 45.5625 C82.27417969 45.64628906 83.36085938 45.73007812 84.48046875 45.81640625 C85.31191406 45.87699219 86.14335938 45.93757813 87 46 C87 46.66 87 47.32 87 48 C83.535 48.99 83.535 48.99 80 50 C79.67 51.65 79.34 53.3 79 55 C71.78258845 57.40580385 64.18126108 55.94275662 57 54 C56.67 55.32 56.34 56.64 56 58 C55.00097656 58.19335938 54.00195312 58.38671875 52.97265625 58.5859375 C51.68230469 58.84632812 50.39195313 59.10671875 49.0625 59.375 C47.77472656 59.63023438 46.48695312 59.88546875 45.16015625 60.1484375 C44.11730469 60.42945313 43.07445312 60.71046875 42 61 C41.67 61.66 41.34 62.32 41 63 C42.423125 63.4640625 42.423125 63.4640625 43.875 63.9375 C47 65 47 65 49 66 C50.70363822 66.22622081 52.41328701 66.40888473 54.125 66.5625 C55.03507812 66.64628906 55.94515625 66.73007813 56.8828125 66.81640625 C57.58148437 66.87699219 58.28015625 66.93757813 59 67 C59.39445312 66.04867187 59.39445312 66.04867187 59.796875 65.078125 C61 63 61 63 64.25 61.75 C73.87353807 59.80779504 83.90819326 60.17708344 93 64 C93.33 64.33 93.66 64.66 94 65 C96.79289946 64.81805215 99.5560375 64.47898245 102.3359375 64.15625 C105 64 105 64 108 65 C107 68 107 68 105.25390625 69.15625 C101.97593725 70.38335798 98.80872159 70.44759569 95.33984375 70.65625 C92.73341741 70.86870471 92.73341741 70.86870471 90 73 C89.27617533 75.05925139 89.27617533 75.05925139 89 77 C88.34 77 87.68 77 87 77 C86.67 78.98 86.34 80.96 86 83 C84.68 83.33 83.36 83.66 82 84 C83.65 84.66 85.3 85.32 87 86 C87 85.34 87 84.68 87 84 C87.99 84 88.98 84 90 84 C90 84.66 90 85.32 90 86 C91.65 86 93.3 86 95 86 C95.33 87.32 95.66 88.64 96 90 C93.36 91.32 90.72 92.64 88 94 C88 94.66 88 95.32 88 96 C89.32 96 90.64 96 92 96 C92.33 95.01 92.66 94.02 93 93 C100.12600133 92.64631979 105.47059106 93.04328652 112 96 C111.67 96.99 111.34 97.98 111 99 C108.69 99.33 106.38 99.66 104 100 C105.85625 100.4021875 105.85625 100.4021875 107.75 100.8125 C111.16588513 101.65896714 113.27095688 102.74148156 116 105 C117.64991582 105.70710678 119.31562256 106.37943989 121 107 C121.66 107.33 122.32 107.66 123 108 C123 106.02 123 104.04 123 102 C125.64 102 128.28 102 131 102 C131.35964844 101.04867187 131.35964844 101.04867187 131.7265625 100.078125 C133 98 133 98 135.0234375 97.171875 C135.79945312 97.03265625 136.57546875 96.8934375 137.375 96.75 C138.14585938 96.60046875 138.91671875 96.4509375 139.7109375 96.296875 C142 96 142 96 146 96 C145.814375 95.360625 145.62875 94.72125 145.4375 94.0625 C145.293125 93.381875 145.14875 92.70125 145 92 C146 91 146 91 149.0625 90.9375 C150.5165625 90.9684375 150.5165625 90.9684375 152 91 C152.12375 90.360625 152.2475 89.72125 152.375 89.0625 C152.58125 88.381875 152.7875 87.70125 153 87 C153.66 86.67 154.32 86.34 155 86 C153.02 85.34 151.04 84.68 149 84 C149 83.34 149 82.68 149 82 C154.91875752 80.75143763 160.6288375 81.0196654 166.63085938 81.30273438 C168.82142562 81.3518992 170.83962426 81.36992142 173 81 C174.92249536 79.12519017 174.92249536 79.12519017 176 77 C178.6875 76.75 178.6875 76.75 181 77 C181 76.34 181 75.68 181 75 C179.35 75 177.7 75 176 75 C176 74.01 176 73.02 176 72 C177.98 72 179.96 72 182 72 C182 72.99 182 73.98 182 75 C184.64 74.01 187.28 73.02 190 72 C190 71.34 190 70.68 190 70 C191.65 70 193.3 70 195 70 C195.4021875 69.071875 195.4021875 69.071875 195.8125 68.125 C197 66 197 66 200 64 C199.01 63.34 198.02 62.68 197 62 C197 61.34 197 60.68 197 60 C201.873261 58.4087311 205.80790596 57.78807779 211 58 C210.67 57.01 210.34 56.02 210 55 C210.33 54.34 210.66 53.68 211 53 C214.465 53.495 214.465 53.495 218 54 C218 55.32 218 56.64 218 58 C219.64846769 57.55123384 221.29373455 57.09069512 222.9375 56.625 C224.31228516 56.24214844 224.31228516 56.24214844 225.71484375 55.8515625 C228.16745087 55.23339896 228.16745087 55.23339896 229 53 C230.65 53.33 232.3 53.66 234 54 C234.33 55.32 234.66 56.64 235 58 C237.97 58 240.94 58 244 58 C243.67 57.01 243.34 56.02 243 55 C243.24245894 52.76213183 243.56388029 50.53224066 243.9375 48.3125 C244.13214844 47.13300781 244.32679687 45.95351563 244.52734375 44.73828125 C244.68332031 43.83464844 244.83929687 42.93101563 245 42 C242.03 42 239.06 42 236 42 C236 41.34 236 40.68 236 40 C239.46214649 37.94835763 240.59389235 38 245 38 C246.485 32.555 246.485 32.555 248 27 C253.625 26.75 253.625 26.75 257 29 C257 29.99 257 30.98 257 32 C254.69 32.33 252.38 32.66 250 33 C249.67 34.98 249.34 36.96 249 39 C250.65 39.33 252.3 39.66 254 40 C254.4021875 38.5459375 254.4021875 38.5459375 254.8125 37.0625 C255.204375 36.051875 255.59625 35.04125 256 34 C259 33 259 33 262.1875 34.4375 C263.115625 34.953125 264.04375 35.46875 265 36 C265 36.99 265 37.98 265 39 C261.38026598 40.31626692 258.90432869 41 255 41 C255 41.66 255 42.32 255 43 C255.70125 42.95359375 256.4025 42.9071875 257.125 42.859375 C263.99880578 42.59787152 268.10675441 43.44181398 274 47 C274 47.66 274 48.32 274 49 C273.06027344 49.05607422 273.06027344 49.05607422 272.1015625 49.11328125 C271.28429688 49.17902344 270.46703125 49.24476562 269.625 49.3125 C268.81289062 49.37050781 268.00078125 49.42851563 267.1640625 49.48828125 C264.62078662 49.82990528 264.62078662 49.82990528 263 53 C266.61100174 54.80550087 270.76940219 54.9387588 274.734375 55.51953125 C277.14086853 55.87359668 279.54134987 56.26912458 281.9375 56.6875 C284.97245995 57.14914764 284.97245995 57.14914764 287.8125 56.4375 C292.42303724 55.80468116 296.51336851 56.92710986 301 58 C301 58.66 301 59.32 301 60 C300.43410156 60.18175781 299.86820313 60.36351562 299.28515625 60.55078125 C298.55167969 60.80214844 297.81820313 61.05351563 297.0625 61.3125 C296.33160156 61.55613281 295.60070313 61.79976562 294.84765625 62.05078125 C292.64067976 62.91240441 292.64067976 62.91240441 292 66 C290.515 66.495 290.515 66.495 289 67 C289.66 67.66 290.32 68.32 291 69 C291.38286803 72.73296326 291.14915785 73.77626323 289 77 C291.87450983 77.25048636 291.87450983 77.25048636 295 77 C295.515625 76.484375 296.03125 75.96875 296.5625 75.4375 C297.036875 74.963125 297.51125 74.48875 298 74 C301.34192692 74.24453124 302.60543557 74.60543557 305 77 C305 78.32 305 79.64 305 81 C304.34 81.33 303.68 81.66 303 82 C303.33 82.99 303.66 83.98 304 85 C303.01 85.99 302.02 86.98 301 88 C301.99 88.33 302.98 88.66 304 89 C303.67 90.32 303.34 91.64 303 93 C306.465 94.485 306.465 94.485 310 96 C310 95.01 310 94.02 310 93 C310.515625 92.525625 311.03125 92.05125 311.5625 91.5625 C312.2740625 90.7890625 312.2740625 90.7890625 313 90 C312.77242269 87.83700789 312.77242269 87.83700789 312 86 C312.7425 85.938125 313.485 85.87625 314.25 85.8125 C317.83007591 84.7547503 318.80146992 82.93137344 321 80 C322.485 79.505 322.485 79.505 324 79 C324.4125 78.566875 324.825 78.13375 325.25 77.6875 C329.12165064 73.9541226 332.87579199 71.74010275 338.25 71.75 C339.4875 71.8325 340.725 71.915 342 72 C342.99 72 343.98 72 345 72 C343.87890434 70.37506099 343.87890434 70.37506099 342 69 C338.87450983 68.74951364 338.87450983 68.74951364 336 69 C336.33 67.35 336.66 65.7 337 64 C339.97 63.505 339.97 63.505 343 63 C341.7625 62.1028125 341.7625 62.1028125 340.5 61.1875 C339.675 60.465625 338.85 59.74375 338 59 C338 58.01 338 57.02 338 56 C338.98742188 55.67386719 339.97484375 55.34773438 340.9921875 55.01171875 C342.28664273 54.57085356 343.58090362 54.12941745 344.875 53.6875 C345.52597656 53.47416016 346.17695312 53.26082031 346.84765625 53.04101562 C350.46488484 51.79176658 351.81421256 51.27868116 354 48 C352.02 47.34 350.04 46.68 348 46 C348.33 44.68 348.66 43.36 349 42 C350.12535156 41.92523438 351.25070312 41.85046875 352.41015625 41.7734375 C362.0668357 40.99426378 370.10188035 39.28685287 378.9609375 35.33984375 C381.35152137 34.28589739 383.45419086 33.50790773 386 33 C385.71125 32.505 385.4225 32.01 385.125 31.5 C383.59577342 28.10171872 382.34219401 24.73302552 382 21 C382.97272675 19.64664105 383.9739266 18.31337396 385 17 C384.97850867 14.22761886 384.50304328 11.74387243 384 9 C389.55172414 10.32758621 389.55172414 10.32758621 391.375 13.0625 C392.04171184 16.19604566 391.96295919 19.05391622 391.87109375 22.2421875 C392.13704215 27.93187135 393.67994766 33.47620955 395 39 C395.804375 38.34 396.60875 37.68 397.4375 37 C400.92661597 34.64382051 403.59195397 34.85000705 407.68359375 35.05078125 C412.32337308 34.94906602 416.70317895 33.29682105 420 30 C424.97959436 29.48000696 430.15479581 29.70794555 435 31 C434.34 30.67 433.68 30.34 433 30 C433 29.34 433 28.68 433 28 C435.31 28 437.62 28 440 28 C440 26.68 440 25.36 440 24 C442.76452033 22.61773984 445.0461363 22.90474613 448.125 22.9375 C449.22070312 22.94652344 450.31640625 22.95554687 451.4453125 22.96484375 C452.28835938 22.97644531 453.13140625 22.98804687 454 23 C454.66 24.32 455.32 25.64 456 27 C460.76479624 27.05003421 465.5294342 27.08601444 470.29443359 27.10986328 C471.91002064 27.11982216 473.52559015 27.13339418 475.14111328 27.15087891 C484.63974005 27.25098843 493.66351792 27.03876406 503 25 C503 23.68 503 22.36 503 21 C510.03896279 18.65367907 516.52492042 19.84239947 523 23 C525.18501338 24.21337977 527.01114703 25.45863895 529 27 C529 27.66 529 28.32 529 29 C529.65742187 28.91621094 530.31484375 28.83242188 530.9921875 28.74609375 C549.89716408 26.7223903 569.22010972 29.90740064 588 32 C588.86077148 32.0928125 589.72154297 32.185625 590.60839844 32.28125 C595.88147579 32.88147579 595.88147579 32.88147579 597 34 C598.66363088 34.16042155 600.33148878 34.27767018 602 34.375 C607.36842267 34.8030703 612.00333487 36.03834628 617 38 C617.33 37.67 617.66 37.34 618 37 C620.33944736 37.28730055 622.6739143 37.61936779 625 38 C625.33 38.99 625.66 39.98 626 41 C626.886875 40.773125 627.77375 40.54625 628.6875 40.3125 C632.54924413 39.73048561 635.7314246 40.50730953 639.5 41.4375 C650.59051534 44.1597174 658.64098352 41.83808794 669.16015625 37.78125 C673.45761132 36.59900652 675.15557295 38.00089793 679 40 C679 40.99 679 41.98 679 43 C684.94 44.485 684.94 44.485 691 46 C691 45.34 691 44.68 691 44 C692.65 44 694.3 44 696 44 C696 44.66 696 45.32 696 46 C695.34 46 694.68 46 694 46 C694 46.66 694 47.32 694 48 C694.845625 47.938125 695.69125 47.87625 696.5625 47.8125 C700.73619843 48.04015628 703.25432947 49.20207814 707 51 C707 51.66 707 52.32 707 53 C708.74965358 53.05429959 710.49979787 53.09292823 712.25 53.125 C713.22453125 53.14820313 714.1990625 53.17140625 715.203125 53.1953125 C718.0196498 52.99862781 719.60949036 52.44568916 722 51 C722.33 51.99 722.66 52.98 723 54 C729.62967697 58.37808857 735.19623593 58.46822584 743 58 C743 58.66 743 59.32 743 60 C746.03296794 60.89245953 748.65870866 61.07946561 751.8125 61 C754.97205109 60.95793497 757.94349207 61.05340573 761.0625 61.5625 C762.031875 61.706875 763.00125 61.85125 764 62 C764.33 61.67 764.66 61.34 765 61 C768.72224599 60.70613847 769.77786243 60.85190829 773 63 C776.40069259 63.11726526 779.73945463 63.04608941 783.13671875 62.921875 C787.34990965 62.83110608 791.11305151 63.15944939 795.2421875 64.03515625 C802.69936128 65.51178575 809.97356367 64.74225862 817.50390625 64.18945312 C823.41552763 63.84478262 828.13219244 63.81996052 833.60498047 66.23071289 C840.25983094 68.36826986 847.40693586 68.1094398 854.3203125 67.95703125 C856.09113446 67.93462875 857.86196862 67.91317492 859.6328125 67.89257812 C862.37079218 67.85573009 865.10812073 67.81286806 867.84570312 67.75317383 C878.35554931 67.53564357 887.70434752 67.82470332 897.76904297 71.03393555 C901.05055052 72.10615656 901.05055052 72.10615656 904.77001953 72.51098633 C908 73 908 73 910.3125 74.875 C914.13785894 77.89970242 918.32875424 78.80270982 923 80 C923 80.66 923 81.32 923 82 C924.98 82.33 926.96 82.66 929 83 C929 84.65 929 86.3 929 88 C929.66 88 930.32 88 931 88 C931 102.19 931 116.38 931 131 C298.06 131 -334.88 131 -987 131 C-987 115.82 -987 100.64 -987 85 C-984.36 85.33 -981.72 85.66 -979 86 C-979 85.34 -979 84.68 -979 84 C-978.01 84 -977.02 84 -976 84 C-976 85.32 -976 86.64 -976 88 C-977.485 88.495 -977.485 88.495 -979 89 C-978.01 89 -977.02 89 -976 89 C-976.57584432 91.38564077 -977.22227595 93.66682784 -978 96 C-976.68 96 -975.36 96 -974 96 C-973.67 95.01 -973.34 94.02 -973 93 C-970.20689395 93.28110489 -967.41601125 93.57436052 -964.625 93.875 C-963.8309375 93.95363281 -963.036875 94.03226562 -962.21875 94.11328125 C-956.2265625 94.7734375 -956.2265625 94.7734375 -954 97 C-956.35968744 99.09749995 -957.54616994 99.96905704 -960.75 100.1875 C-961.86375 100.0946875 -961.86375 100.0946875 -963 100 C-962.36191406 100.10957031 -961.72382812 100.21914062 -961.06640625 100.33203125 C-960.24011719 100.49058594 -959.41382813 100.64914063 -958.5625 100.8125 C-957.32693359 101.03873047 -957.32693359 101.03873047 -956.06640625 101.26953125 C-955.38449219 101.51058594 -954.70257812 101.75164062 -954 102 C-953.67 102.99 -953.34 103.98 -953 105 C-951.63875 105.185625 -951.63875 105.185625 -950.25 105.375 C-947.41029677 105.92109677 -945.47409409 106.57263803 -943 108 C-943 106.02 -943 104.04 -943 102 C-940.69 102 -938.38 102 -936 102 C-936 101.34 -936 100.68 -936 100 C-932.97970798 97.14510492 -930.2997234 96.43924291 -926.25 95.8125 C-924.77273438 95.57466797 -924.77273438 95.57466797 -923.265625 95.33203125 C-922.51796875 95.22246094 -921.7703125 95.11289063 -921 95 C-921 93.68 -921 92.36 -921 91 C-918.69 91 -916.38 91 -914 91 C-913.855625 90.360625 -913.71125 89.72125 -913.5625 89.0625 C-913 87 -913 87 -912 86 C-913.65 85.34 -915.3 84.68 -917 84 C-917 83.34 -917 82.68 -917 82 C-912.11707076 80.7113094 -907.31761193 80.924565 -902.3125 81 C-900.60032296 81.02545988 -898.88807291 81.04650973 -897.17578125 81.0625 C-896.42208252 81.07410156 -895.66838379 81.08570312 -894.8918457 81.09765625 C-892.91021272 81.1219857 -892.91021272 81.1219857 -891 80 C-891 79.01 -891 78.02 -891 77 C-889.948125 76.71125 -888.89625 76.4225 -887.8125 76.125 C-884.13822169 75.11069449 -884.13822169 75.11069449 -881.25 73.875 C-879 73 -879 73 -876 73 C-876 72.01 -876 71.02 -876 70 C-875.4225 69.9175 -874.845 69.835 -874.25 69.75 C-871.3774583 68.7924861 -870.04910899 67.18571625 -868 65 C-867.34 64.67 -866.68 64.34 -866 64 C-867.485 63.01 -867.485 63.01 -869 62 C-869 61.34 -869 60.68 -869 60 C-864.126739 58.4087311 -860.19209404 57.78807779 -855 58 C-855 56.35 -855 54.7 -855 53 C-852.69 53.33 -850.38 53.66 -848 54 C-848 55.32 -848 56.64 -848 58 C-846.35153231 57.55123384 -844.70626545 57.09069512 -843.0625 56.625 C-842.14597656 56.36976562 -841.22945312 56.11453125 -840.28515625 55.8515625 C-837.83254913 55.23339896 -837.83254913 55.23339896 -837 53 C-835.35 53.33 -833.7 53.66 -832 54 C-831.67 55.32 -831.34 56.64 -831 58 C-828.36 58 -825.72 58 -823 58 C-823.33 57.01 -823.66 56.02 -824 55 C-823.78277855 52.96981487 -823.48164162 50.94788393 -823.125 48.9375 C-822.85042969 47.34228516 -822.85042969 47.34228516 -822.5703125 45.71484375 C-822 43 -822 43 -821 41 C-825.455 41.495 -825.455 41.495 -830 42 C-830 41.34 -830 40.68 -830 40 C-829.37351562 39.86464844 -828.74703125 39.72929688 -828.1015625 39.58984375 C-825.55499522 38.91906025 -823.33394712 38.22681836 -821 37 C-819.35763357 33.58665782 -819.35763357 33.58665782 -819 30 C-818.67 29.01 -818.34 28.02 -818 27 C-815.36 27.33 -812.72 27.66 -810 28 C-810 29.32 -810 30.64 -810 32 C-812.97 32.495 -812.97 32.495 -816 33 C-816.33 35.31 -816.66 37.62 -817 40 C-815.35 40 -813.7 40 -812 40 C-811.731875 39.030625 -811.46375 38.06125 -811.1875 37.0625 C-810.5996875 35.5465625 -810.5996875 35.5465625 -810 34 C-807 33 -807 33 -803.8125 34.4375 C-802.4203125 35.2109375 -802.4203125 35.2109375 -801 36 C-801 36.99 -801 37.98 -801 39 C-804.61973402 40.31626692 -807.09567131 41 -811 41 C-811 41.66 -811 42.32 -811 43 C-810.43023438 42.81953125 -809.86046875 42.6390625 -809.2734375 42.453125 C-803.34143008 41.2708005 -797.06922851 44.1404352 -792 47 C-792 47.66 -792 48.32 -792 49 C-795.3 49 -798.6 49 -802 49 C-802.66 50.65 -803.32 52.3 -804 54 C-803.21496094 54.04898438 -802.42992187 54.09796875 -801.62109375 54.1484375 C-792.69768265 54.7834778 -792.69768265 54.7834778 -788.375 56.125 C-784.43022583 57.14771923 -781.56516497 56.69216925 -777.578125 56.16015625 C-773.52501017 55.90837184 -769.86852729 56.86934347 -766 58 C-766.33 58.99 -766.66 59.98 -767 61 C-769 61.66666667 -771 62.33333333 -773 63 C-773.33 63.99 -773.66 64.98 -774 66 C-774.99 66.33 -775.98 66.66 -777 67 C-776.01 68.485 -776.01 68.485 -775 70 C-775.54054054 74.54054054 -775.54054054 74.54054054 -777 76 C-774.03 76.495 -774.03 76.495 -771 77 C-770.01 75.515 -770.01 75.515 -769 74 C-763.25 74.75 -763.25 74.75 -761 77 C-761 78.32 -761 79.64 -761 81 C-761.99 81.33 -762.98 81.66 -764 82 C-763.34 82.33 -762.68 82.66 -762 83 C-762 83.66 -762 84.32 -762 85 C-762.99 85.33 -763.98 85.66 -765 86 C-765 86.66 -765 87.32 -765 88 C-764.34 88.33 -763.68 88.66 -763 89 C-763 90.32 -763 91.64 -763 93 C-760.69 93.99 -758.38 94.98 -756 96 C-756 95.01 -756 94.02 -756 93 C-754 90.8125 -754 90.8125 -752 89 C-752.99 88.67 -753.98 88.34 -755 88 C-754.67 87.34 -754.34 86.68 -754 86 C-752.35 86 -750.7 86 -749 86 C-748.79375 85.21625 -748.5875 84.4325 -748.375 83.625 C-747 81 -747 81 -743.875 79.6875 C-742.92625 79.460625 -741.9775 79.23375 -741 79 C-741 78.34 -741 77.68 -741 77 C-740.43410156 76.72285156 -739.86820313 76.44570312 -739.28515625 76.16015625 C-738.55167969 75.79792969 -737.81820312 75.43570313 -737.0625 75.0625 C-735.96615234 74.52302734 -735.96615234 74.52302734 -734.84765625 73.97265625 C-733.03750973 73.13628173 -733.03750973 73.13628173 -732 72 C-728.1638778 71.85524067 -724.67692213 71.82338492 -721 73 C-721.33 72.67 -721.66 72.34 -722 72 C-723.00642948 70.67151309 -724.00692179 69.33849671 -725 68 C-726.65 68.33 -728.3 68.66 -730 69 C-729.67 67.35 -729.34 65.7 -729 64 C-727.02 63.67 -725.04 63.34 -723 63 C-724.98 61.68 -726.96 60.36 -729 59 C-728.67 58.01 -728.34 57.02 -728 56 C-727.01 56 -726.02 56 -725 56 C-724.67 55.34 -724.34 54.68 -724 54 C-722.17489003 53.21984379 -720.31393324 52.52204594 -718.4375 51.875 C-716.91962891 51.34519531 -716.91962891 51.34519531 -715.37109375 50.8046875 C-714.58863281 50.53914063 -713.80617188 50.27359375 -713 50 C-713.33 49.01 -713.66 48.02 -714 47 C-716.01508358 46.26676204 -716.01508358 46.26676204 -718 46 C-717.67 44.68 -717.34 43.36 -717 42 C-713.56096245 40.9508021 -710.39403127 40.93378246 -706.8125 40.875 C-697.82599847 40.31689096 -689.97582144 37.05820292 -682 33 C-680.74841656 31.06997466 -680.74841656 31.06997466 -681.55859375 29.16015625 C-681.84863281 28.46792969 -682.13867188 27.77570312 -682.4375 27.0625 C-683.55710854 24.37644364 -684 22.97668615 -684 20 C-682.515 19.01 -682.515 19.01 -681 18 C-681.33 15.03 -681.66 12.06 -682 9 C-679.0625 9.8125 -679.0625 9.8125 -676 11 C-675.12972045 13.61083866 -674.77182891 15.57675064 -674.53515625 18.28125 C-674.4582959 19.11881836 -674.38143555 19.95638672 -674.30224609 20.81933594 C-674.22312988 21.70395508 -674.14401367 22.58857422 -674.0625 23.5 C-673.38210283 30.74629488 -672.53590909 37.87599615 -671 45 C-669.35 44.67 -667.7 44.34 -666 44 C-668.77260299 42.06201737 -668.77260299 42.06201737 -671 41 C-671 40.01 -671 39.02 -671 38 C-666.80110311 35.48066187 -663.90017726 34.82898462 -659.01953125 35.015625 C-654.96432193 34.98425007 -651.24542876 34.01782474 -648.09765625 31.4453125 C-644.40726913 28.90258767 -640.31746912 29.59668359 -636 30 C-633.55933114 30.50541284 -631.36112901 31.17873774 -629 32 C-630.98 31.01 -630.98 31.01 -633 30 C-633 29.34 -633 28.68 -633 28 C-631.865625 28.020625 -630.73125 28.04125 -629.5625 28.0625 C-626.18424326 28.41577477 -626.18424326 28.41577477 -625 27 C-625.66 26.34 -626.32 25.68 -627 25 C-623.47320901 22.64880601 -621.97120515 22.78556548 -617.8125 22.875 C-616.72582031 22.89304687 -615.63914062 22.91109375 -614.51953125 22.9296875 C-613.68808594 22.95289062 -612.85664062 22.97609375 -612 23 C-612 24.32 -612 25.64 -612 27 C-606.95037222 27.0499887 -601.90089315 27.08599384 -596.85107422 27.10986328 C-595.13848354 27.11982955 -593.42590946 27.13340747 -591.71337891 27.15087891 C-581.94015144 27.24798286 -572.60025818 27.13419273 -563 25 C-563.33 24.34 -563.66 23.68 -564 23 C-563 21 -563 21 -560 20 C-553.92747111 19.37717652 -548.36274307 19.9607665 -543 23 C-542.10410156 23.85851562 -541.20820312 24.71703125 -540.28515625 25.6015625 C-536.66900093 28.68078207 -533.18354875 28.48239134 -528.625 28.1875 C-483.43912983 26.78043508 -483.43912983 26.78043508 -469 34 C-467.31504 34.15553477 -465.62667869 34.27521729 -463.9375 34.375 C-458.59511305 34.80492824 -453.97299218 36.04764011 -449 38 C-448.67 37.67 -448.34 37.34 -448 37 C-445.66055264 37.28730055 -443.3260857 37.61936779 -441 38 C-440.67 38.99 -440.34 39.98 -440 41 C-439.113125 40.773125 -438.22625 40.54625 -437.3125 40.3125 C-433.46455412 39.7271127 -430.36854556 40.53010133 -426.625 41.5 C-416.59254953 43.99666005 -406.8190831 42.11641354 -397.41015625 37.81640625 C-395 37 -395 37 -392.98046875 37.4609375 C-391.3203125 38.30729167 -389.66015625 39.15364583 -388 40 C-388 41.32 -388 42.64 -388 44 C-386.783125 44.144375 -385.56625 44.28875 -384.3125 44.4375 C-381.17329623 44.82780953 -378.0924866 45.32351856 -375 46 C-375 45.34 -375 44.68 -375 44 C-373.68 44 -372.36 44 -371 44 C-371 44.66 -371 45.32 -371 46 C-371.66 46 -372.32 46 -373 46 C-373 46.66 -373 47.32 -373 48 C-372.40832031 48.04898438 -371.81664062 48.09796875 -371.20703125 48.1484375 C-366.80895528 48.56456867 -363.03071103 49.04965595 -359 51 C-359 51.66 -359 52.32 -359 53 C-357.25008666 53.02715383 -355.50005055 53.04646551 -353.75 53.0625 C-352.77546875 53.07410156 -351.8009375 53.08570313 -350.796875 53.09765625 C-348.0629154 53.11048368 -348.0629154 53.11048368 -345.76171875 52.3828125 C-345.18035156 52.25648437 -344.59898437 52.13015625 -344 52 C-342.62298702 53.28817344 -341.29355827 54.62804426 -340 56 C-336.27751537 57.85482424 -333.32017286 58.22458248 -329.1875 58.125 C-328.21167969 58.10695312 -327.23585938 58.08890625 -326.23046875 58.0703125 C-325.49441406 58.04710937 -324.75835938 58.02390625 -324 58 C-324 58.99 -324 59.98 -324 61 C-323.16227051 60.98952637 -322.32454102 60.97905273 -321.46142578 60.96826172 C-318.35661836 60.93419981 -315.25190608 60.90911089 -312.14697266 60.89013672 C-310.1408864 60.87511893 -308.13488676 60.84971019 -306.12890625 60.82421875 C-304.87207031 60.81777344 -303.61523438 60.81132813 -302.3203125 60.8046875 C-301.15773926 60.79421387 -299.99516602 60.78374023 -298.79736328 60.77294922 C-296 61 -296 61 -294 63 C-290.64589626 63.1200574 -287.35113954 63.04507866 -284 62.921875 C-279.59107359 62.82705938 -275.59045874 63.20072279 -271.25390625 64.03515625 C-263.57542851 65.42049887 -256.18408976 64.75972397 -248.44726562 64.18945312 C-242.32224857 63.83086253 -237.52435653 63.97284206 -231.8112793 66.32836914 C-229.85315732 67.17383622 -229.85315732 67.17383622 -227 67 C-227 66.34 -227 65.68 -227 65 C-226.01 65 -225.02 65 -224 65 C-223.67 64.01 -223.34 63.02 -223 62 C-222.01 62.33 -221.02 62.66 -220 63 C-220.33 64.65 -220.66 66.3 -221 68 C-219.0335948 67.26804566 -219.0335948 67.26804566 -217 66 C-216.7525 65.34 -216.505 64.68 -216.25 64 C-215 62 -215 62 -213.171875 61.40234375 C-211.74648399 61.09726905 -210.31354794 60.82519442 -208.875 60.58984375 C-206.60848872 60.09224955 -206.60848872 60.09224955 -205 57 C-203.68 57.33 -202.36 57.66 -201 58 C-201 58.99 -201 59.98 -201 61 C-199.68 60.67 -198.36 60.34 -197 60 C-197.33 58.68 -197.66 57.36 -198 56 C-198.66 56 -199.32 56 -200 56 C-200 55.01 -200 54.02 -200 53 C-197.5 51.3125 -197.5 51.3125 -195 50 C-196.65 50 -198.3 50 -200 50 C-200 49.34 -200 48.68 -200 48 C-201.11375 48.185625 -202.2275 48.37125 -203.375 48.5625 C-207 49 -207 49 -209 48 C-208.67 47.01 -208.34 46.02 -208 45 C-206.515 44.505 -206.515 44.505 -205 44 C-206.32 44 -207.64 44 -209 44 C-208.67 43.01 -208.34 42.02 -208 41 C-207.34 41.33 -206.68 41.66 -206 42 C-206 41.34 -206 40.68 -206 40 C-200.30817929 36.20545286 -194.83645977 34.57820804 -188 34 C-187.34 34.33 -186.68 34.66 -186 35 C-186 35.66 -186 36.32 -186 37 C-184.98421875 36.73445313 -183.9684375 36.46890625 -182.921875 36.1953125 C-175.36543999 34.24796755 -167.89520508 32.50846157 -160.16015625 31.39453125 C-158.02692129 31.21643986 -158.02692129 31.21643986 -157 30 C-154.23036383 29.63776705 -151.47439011 29.33201456 -148.6953125 29.0625 C-147.86039276 28.97750244 -147.02547302 28.89250488 -146.16525269 28.80493164 C-143.48557192 28.53243127 -140.80536436 28.2656865 -138.125 28 C-135.4518158 27.73397808 -132.77879682 27.46664212 -130.10617065 27.19506836 C-128.44042959 27.02587822 -126.77435609 26.85992367 -125.10794067 26.69750977 C-121.91796152 26.37410448 -119.05252425 26.01750808 -116 25 C-115.01 25.020625 -114.02 25.04125 -113 25.0625 C-109.81532057 25.26489372 -109.81532057 25.26489372 -107 23 C-104.984375 22.83984375 -104.984375 22.83984375 -102.75 22.9375 C-99.73498776 23.02057165 -97.32656015 22.88585765 -94.3125 22.375 C-90.54639375 21.94864835 -88.38364327 22.30817837 -85 24 C-84.125 26.125 -84.125 26.125 -84 28 C-83.67 27.67 -83.34 27.34 -83 27 C-76.66329134 26.3462126 -69.57106372 26.59898616 -64 30 C-63.12890625 31.921875 -63.12890625 31.921875 -63 34 C-63.66 34.99 -64.32 35.98 -65 37 C-64.319375 37.556875 -63.63875 38.11375 -62.9375 38.6875 C-62.298125 39.450625 -61.65875 40.21375 -61 41 C-61.25 43.75 -61.25 43.75 -62 46 C-63.32 46 -64.64 46 -66 46 C-66 45.34 -66 44.68 -66 44 C-70.29888613 45.51865214 -70.29888613 45.51865214 -74 48 C-73.18015625 48.04898438 -72.3603125 48.09796875 -71.515625 48.1484375 C-70.43796875 48.22320312 -69.3603125 48.29796875 -68.25 48.375 C-66.64898438 48.47941406 -66.64898438 48.47941406 -65.015625 48.5859375 C-62.13610663 48.98131178 -60.53819533 49.71009746 -58 51 C-55.63777768 51.23979762 -55.63777768 51.23979762 -53.25 51.125 C-52.45078125 51.10695312 -51.6515625 51.08890625 -50.828125 51.0703125 C-50.22484375 51.04710937 -49.6215625 51.02390625 -49 51 C-49 51.66 -49 52.32 -49 53 C-47.64567321 52.85566132 -46.29154775 52.70943339 -44.9375 52.5625 C-44.11765625 52.47484375 -43.2978125 52.3871875 -42.453125 52.296875 C-40.35427864 52.04287448 -38.26810193 51.68769051 -36.1875 51.3125 C-32.92598051 50.99274319 -31.66385881 51.18857601 -29 53 C-29 52.34 -29 51.68 -29 51 C-25.17010894 49.19769832 -22.21878192 48.80377759 -18 49 C-18 49.99 -18 50.98 -18 52 C-14.98509443 52 -13.13135886 51.48047265 -10.3125 50.5 C-9.10013672 50.08234375 -9.10013672 50.08234375 -7.86328125 49.65625 C-6.94095703 49.33140625 -6.94095703 49.33140625 -6 49 C-6.825 48.54625 -7.65 48.0925 -8.5 47.625 C-9.325 47.08875 -10.15 46.5525 -11 46 C-11 45.34 -11 44.68 -11 44 C-11.66 44 -12.32 44 -13 44 C-12.67 42.35 -12.34 40.7 -12 39 C-8.04 38.01 -8.04 38.01 -4 37 C-4.66 36.34 -5.32 35.68 -6 35 C-6.39764263 33.01178687 -6.73775349 31.01055661 -7 29 C-7.99 28.67 -8.98 28.34 -10 28 C-10 27.34 -10 26.68 -10 26 C-9.34 26 -8.68 26 -8 26 C-8 25.01 -8 24.02 -8 23 C-6.17806158 21.0750353 -4.10764717 19.62464469 -2 18 C-3.98 17.01 -5.96 16.02 -8 15 C-8 13.68 -8 12.36 -8 11 C-4.5647952 8.70986347 -3.014669 8.82157027 1 9 C0.01 8.01 -0.98 7.02 -2 6 C-1.34 4.02 -0.68 2.04 0 0 Z M-678 17 C-677 20 -677 20 -677 20 Z M-86 33 C-85.67 33.99 -85.34 34.98 -85 36 C-82.03 36 -79.06 36 -76 36 C-76 35.01 -76 34.02 -76 33 C-79.3 33 -82.6 33 -86 33 Z M-106 36 C-106.33 36.66 -106.66 37.32 -107 38 C-105.68 37.34 -104.36 36.68 -103 36 C-103.99 36 -104.98 36 -106 36 Z M-199 41 C-199.66 41.66 -200.32 42.32 -201 43 C-199.02 43 -197.04 43 -195 43 C-196.32 42.34 -197.64 41.68 -199 41 Z M395 41 C395 42.65 395 44.3 395 46 C396.98 45.34 398.96 44.68 401 44 C400.67 43.34 400.34 42.68 400 42 C397.47266765 41.34444881 397.47266765 41.34444881 395 41 Z M-183.359375 43.6796875 C-184.14828125 44.07414062 -184.9371875 44.46859375 -185.75 44.875 C-186.94882812 45.45894531 -186.94882812 45.45894531 -188.171875 46.0546875 C-188.77515625 46.36664063 -189.3784375 46.67859375 -190 47 C-190 47.33 -190 47.66 -190 48 C-187.03 48.495 -187.03 48.495 -184 49 C-183.67 48.34 -183.34 47.68 -183 47 C-181.02111039 46.27306096 -179.02045442 45.60183749 -177 45 C-179.48024384 43.37305106 -180.44315446 42.83958423 -183.359375 43.6796875 Z M15 43 C15.33 43.99 15.66 44.98 16 46 C18.01508358 46.73323796 18.01508358 46.73323796 20 47 C20.33 46.34 20.66 45.68 21 45 C19.02 44.34 17.04 43.68 15 43 Z M-815 47 C-814 50 -814 50 -814 50 Z M251 47 C252 50 252 50 252 50 Z M-90 48 C-89.67 48.66 -89.34 49.32 -89 50 C-88.34 49.34 -87.68 48.68 -87 48 C-87.99 48 -88.98 48 -90 48 Z M-816 50 C-816.33 52.31 -816.66 54.62 -817 57 C-814.69328085 54.28450846 -814.69328085 54.28450846 -815.375 51.8125 C-815.58125 51.214375 -815.7875 50.61625 -816 50 Z M250 50 C249.34 53.3 248.68 56.6 248 60 C250.29575603 57.70424397 250.32339599 56.99157475 250.625 53.875 C250.74875 52.59625 250.8725 51.3175 251 50 C250.67 50 250.34 50 250 50 Z M-677 51 C-676 54 -676 54 -676 54 Z M389 51 C390 53 390 53 390 53 Z M-87.25 53.5 C-88.4875 53.665 -89.725 53.83 -91 54 C-91.33 54.99 -91.66 55.98 -92 57 C-90.39431334 56.71682074 -88.79047953 56.42312209 -87.1875 56.125 C-86.29417969 55.96257813 -85.40085937 55.80015625 -84.48046875 55.6328125 C-81.77272154 55.08811551 -81.77272154 55.08811551 -79 53 C-81.88435938 53 -84.42179168 53.12290556 -87.25 53.5 Z M-54 55 C-54.99 55.33 -55.98 55.66 -57 56 C-57 56.66 -57 57.32 -57 58 C-55.68 57.67 -54.36 57.34 -53 57 C-53.33 56.34 -53.66 55.68 -54 55 Z M-818 57 C-817 60 -817 60 -817 60 Z M-854 58 C-850 59 -850 59 -850 59 Z M212 58 C216 59 216 59 216 59 Z M-24.69921875 60.48828125 C-28.11035617 61.24695528 -31.52893092 61.61432566 -35 62 C-31.29583874 64.37590142 -28.07015427 64.20500286 -23.75 64.125 C-21.85507812 64.09792969 -21.85507812 64.09792969 -19.921875 64.0703125 C-18.95765625 64.04710938 -17.9934375 64.02390625 -17 64 C-17 64.66 -17 65.32 -17 66 C-18.98 66.33 -20.96 66.66 -23 67 C-20.1575146 68.57273568 -20.1575146 68.57273568 -17 69 C-16.87625 70.175625 -16.87625 70.175625 -16.75 71.375 C-16.24487204 74.06018931 -16.24487204 74.06018931 -14.3125 75.4375 C-11.07768067 76.22434795 -9.02223517 75.23636893 -6 74 C-6 73.01 -6 72.02 -6 71 C-5.34 70.67 -4.68 70.34 -4 70 C-6.31 70.33 -8.62 70.66 -11 71 C-11 70.01 -11 69.02 -11 68 C-8.36 67.67 -5.72 67.34 -3 67 C-1.7922442 63.37673261 -2.45688872 62.35853631 -4 59 C-11.11255906 58.79933219 -17.75110666 58.88487077 -24.69921875 60.48828125 Z M-785 62 C-783.8354799 63.66621425 -783.8354799 63.66621425 -782 65 C-779.34533951 64.76956136 -779.34533951 64.76956136 -777 64 C-778.89755144 61.65026182 -778.89755144 61.65026182 -782.125 61.875 C-783.07375 61.91625 -784.0225 61.9575 -785 62 Z M281 62 C282.18523997 63.60414215 282.18523997 63.60414215 284 65 C286.62570704 65.25069913 286.62570704 65.25069913 289 65 C289 64.34 289 63.68 289 63 C286.29120665 61.64560332 283.99066732 61.93498549 281 62 Z M-39 63 C-35 64 -35 64 -35 64 Z M-864 64 C-863.01 64.33 -862.02 64.66 -861 65 C-861 65.99 -861 66.98 -861 68 C-861.66 68 -862.32 68 -863 68 C-862.67 68.99 -862.34 69.98 -862 71 C-861.05125 70.67 -860.1025 70.34 -859.125 70 C-856 69 -856 69 -854 69 C-854.66 67.35 -855.32 65.7 -856 64 C-858.64 64 -861.28 64 -864 64 Z M202 64 C203.32 64.33 204.64 64.66 206 65 C205.34 66.65 204.68 68.3 204 70 C206.64 69.67 209.28 69.34 212 69 C211.50243908 66.24358584 211.50243908 66.24358584 210 64 C207.32941149 63.85884839 204.67567762 63.95752893 202 64 Z M-143 68 C-139 69 -139 69 -139 69 Z M-103 69 C-101.02 69 -99.04 69 -97 69 C-97.33 68.34 -97.66 67.68 -98 67 C-100.32357511 66.81509993 -100.32357511 66.81509993 -103 69 Z M-826 70 C-826.99 71.485 -826.99 71.485 -828 73 C-826.68 72.34 -825.36 71.68 -824 71 C-824.66 70.67 -825.32 70.34 -826 70 Z M-150 70 C-150 70.33 -150 70.66 -150 71 C-148.35 71 -146.7 71 -145 71 C-145 70.67 -145 70.34 -145 70 C-146.65 70 -148.3 70 -150 70 Z M240 70 C239.01 71.485 239.01 71.485 238 73 C239.32 72.34 240.64 71.68 242 71 C241.34 70.67 240.68 70.34 240 70 Z M-873 75 C-872.67 75.99 -872.34 76.98 -872 78 C-869.03 78.33 -866.06 78.66 -863 79 C-863.66 78.566875 -864.32 78.13375 -865 77.6875 C-865.66 77.130625 -866.32 76.57375 -867 76 C-867 75.01 -867 74.02 -867 73 C-869.46278801 73 -870.85224119 73.85452863 -873 75 Z M-839 73 C-839.33 73.66 -839.66 74.32 -840 75 C-839.67 75.66 -839.34 76.32 -839 77 C-836.50638429 75.79618552 -834.31856917 74.54571278 -832 73 C-834.31 73 -836.62 73 -839 73 Z M193 75 C193 75.66 193 76.32 193 77 C196.4019487 79.09350689 199.05272412 79.17942163 203 79 C202.67 78.34 202.34 77.68 202 77 C201.01 76.67 200.02 76.34 199 76 C199 75.01 199 74.02 199 73 C196.53721199 73 195.14775881 73.85452863 193 75 Z M227 73 C227 74.32 227 75.64 227 77 C229.91517292 75.92598892 231.77810176 75.22189824 234 73 C231.69 73 229.38 73 227 73 Z M-93 74 C-93.99 75.485 -93.99 75.485 -95 77 C-93.87465895 78.35618499 -93.87465895 78.35618499 -90.9375 78.0625 C-89.968125 78.041875 -88.99875 78.02125 -88 78 C-88 76.68 -88 75.36 -88 74 C-90.41619823 73.74969023 -90.41619823 73.74969023 -93 74 Z M48 76 C47.67 76.66 47.34 77.32 47 78 C44.69 78 42.38 78 40 78 C39.34 79.32 38.68 80.64 38 82 C40.76745084 84.30075262 40.76745084 84.30075262 43.625 83.75 C44.73875 83.5025 45.8525 83.255 47 83 C47.78890625 82.82855469 48.5778125 82.65710938 49.390625 82.48046875 C51.59651093 81.99836475 53.79898176 81.50378862 56 81 C56 81.66 56 82.32 56 83 C54.02 83.99 54.02 83.99 52 85 C52.99 85.33 53.98 85.66 55 86 C55 86.99 55 87.98 55 89 C53.35 89 51.7 89 50 89 C50.66979638 92.13896272 50.66979638 92.13896272 53.1796875 93.203125 C54.06914063 93.54859375 54.95859375 93.8940625 55.875 94.25 C56.75929688 94.60578125 57.64359375 94.9615625 58.5546875 95.328125 C61.10724536 96.27329206 61.10724536 96.27329206 64 95 C63.360625 94.4225 62.72125 93.845 62.0625 93.25 C60 91 60 91 59 87 C64.94 86.505 64.94 86.505 71 86 C71.33 85.01 71.66 84.02 72 83 C70.68 82.67 69.36 82.34 68 82 C67.67 80.68 67.34 79.36 67 78 C65.35 78 63.7 78 62 78 C62.33 76.68 62.66 75.36 63 74 C57.87159632 73.73700494 52.86925247 74.33932863 48 76 Z M24 81 C22.68 82.65 21.36 84.3 20 86 C20.99 86 21.98 86 23 86 C23 86.99 23 87.98 23 89 C23.99 89 24.98 89 26 89 C25.67 89.99 25.34 90.98 25 92 C29.2637281 94.35910353 29.2637281 94.35910353 34 95 C34.78375 94.484375 35.5675 93.96875 36.375 93.4375 C39 92 39 92 41.8125 92.3125 C42.534375 92.539375 43.25625 92.76625 44 93 C44.33 91.68 44.66 90.36 45 89 C42.27898776 87.29936735 40.01291376 86.83635429 36.875 86.5625 C34.956875 86.2840625 34.956875 86.2840625 33 86 C32.34 85.01 31.68 84.02 31 83 C27.44327821 81.7811879 27.44327821 81.7811879 24 81 Z M-1 84 C-0.67 84.845625 -0.34 85.69125 0 86.5625 C1.06105954 90.20989216 1.15109013 93.22274664 1 97 C-2.96 97.66 -6.92 98.32 -11 99 C-8.50494038 101.49505962 -7.32671112 101.35948376 -3.875 101.625 C-2.96492187 101.69976562 -2.05484375 101.77453125 -1.1171875 101.8515625 C-0.41851563 101.90054688 0.28015625 101.94953125 1 102 C1 101.01 1 100.02 1 99 C2.65 98.67 4.3 98.34 6 98 C5.34 97.67 4.68 97.34 4 97 C4.33 96.01 4.66 95.02 5 94 C9.13574827 93.9015298 12.93631321 94.22596442 17 95 C15.27773504 91.75150023 15.27773504 91.75150023 12 91 C12.33 89.35 12.66 87.7 13 86 C12.32453125 85.93941406 11.6490625 85.87882812 10.953125 85.81640625 C10.06109375 85.73261719 9.1690625 85.64882812 8.25 85.5625 C7.36828125 85.48128906 6.4865625 85.40007812 5.578125 85.31640625 C3.30649548 85.03761535 1.20148177 84.61209423 -1 84 Z M67 92 C67.99 93.485 67.99 93.485 69 95 C69.99 94.01 70.98 93.02 72 92 C70.35 92 68.7 92 67 92 Z M2 105 C1.01 105.495 1.01 105.495 0 106 C-2.6723621 106.13415472 -5.32250488 106.04318541 -8 106 C-8.33 106.66 -8.66 107.32 -9 108 C-5.37 108 -1.74 108 2 108 C2 107.01 2 106.02 2 105 Z M-25 109 C-25 109.33 -25 109.66 -25 110 C-23.35 110 -21.7 110 -20 110 C-20 109.67 -20 109.34 -20 109 C-21.65 109 -23.3 109 -25 109 Z M-42 112 C-37.37078475 113.0161692 -33.65537393 112.83796731 -29 112 C-33.12667762 109.35892632 -38.35293874 108.35293874 -42 112 Z M-72 120 C-72.33 121.65 -72.66 123.3 -73 125 C-71.35 125 -69.7 125 -68 125 C-67.34 123.68 -66.68 122.36 -66 121 C-68.97 120.505 -68.97 120.505 -72 120 Z " fill="#f9d000" transform="translate(987,8)"/>
<path d="M0 0 C2.17954501 0.39255246 4.34505836 0.86437252 6.5 1.375 C8.27890625 1.78878906 8.27890625 1.78878906 10.09375 2.2109375 C13 3 13 3 14 4 C16.82543351 3.81859175 19.62103897 3.47894207 22.43359375 3.15625 C25 3 25 3 27 4 C26.37109375 5.9296875 26.37109375 5.9296875 25 8 C22.28515625 8.7578125 22.28515625 8.7578125 19.0625 9.125 C14.23956781 9.69018798 14.23956781 9.69018798 10 12 C7.69695729 15.27740694 6.56582132 18.03925073 6 22 C3.69 22.33 1.38 22.66 -1 23 C-1.02887512 19.35418313 -1.04675585 15.70839537 -1.0625 12.0625 C-1.07087891 11.02158203 -1.07925781 9.98066406 -1.08789062 8.90820312 C-1.09272461 7.42416992 -1.09272461 7.42416992 -1.09765625 5.91015625 C-1.10289307 4.99371338 -1.10812988 4.07727051 -1.11352539 3.13305664 C-1 1 -1 1 0 0 Z " fill="#f9d000" transform="translate(1,69)"/>
<path d="M0 0 C0 0.99 0 1.98 0 3 C-8.65009719 8.12598352 -18.20759383 8.36963064 -27.875 6 C-28.90625 5.67 -29.9375 5.34 -31 5 C-31 2.25 -31 2.25 -30 -1 C-20.76479421 -8.95722692 -9.62803436 -4.63204402 0 0 Z " fill="#f9d000" transform="translate(965,42)"/>
<path d="M0 0 C0.79921875 0.01804688 1.5984375 0.03609375 2.421875 0.0546875 C3.02515625 0.07789063 3.6284375 0.10109375 4.25 0.125 C4.58 1.115 4.91 2.105 5.25 3.125 C0.795 3.62 0.795 3.62 -3.75 4.125 C-3.646875 5.0325 -3.54375 5.94 -3.4375 6.875 C-3.75 10.125 -3.75 10.125 -5.75 12.375 C-11.18270184 15.54407607 -16.47359956 16.43882002 -22.75 16.125 C-23.375 12.75 -23.375 12.75 -23.75 9.125 C-19.1637931 4.5387931 -19.1637931 4.5387931 -15.75 4.125 C-14.76 4.785 -13.77 5.445 -12.75 6.125 C-11.88375 5.196875 -11.88375 5.196875 -11 4.25 C-7.46259651 0.90911893 -4.85947664 -0.14292578 0 0 Z " fill="#f9d000" transform="translate(771.75,51.875)"/>
<path d="M0 0 C0 1.32 0 2.64 0 4 C2.475 4.495 2.475 4.495 5 5 C5 5.99 5 6.98 5 8 C1.99931553 7.88505443 -1.00012109 7.75832795 -4 7.625 C-5.25876953 7.57859375 -5.25876953 7.57859375 -6.54296875 7.53125 C-11.95552978 7.27950298 -16.78645864 6.48441108 -22 5 C-22 4.34 -22 3.68 -22 3 C-15.18567874 0.04284172 -7.29966385 -2.43322128 0 0 Z " fill="#f9d000" transform="translate(408,13)"/>
<path d="M0 0 C0.103125 0.639375 0.20625 1.27875 0.3125 1.9375 C0.6528125 2.9584375 0.6528125 2.9584375 1 4 C1.99 4.33 2.98 4.66 4 5 C4 5.99 4 6.98 4 8 C1.16595415 7.88494258 -1.66679619 7.75822275 -4.5 7.625 C-5.29148437 7.5940625 -6.08296875 7.563125 -6.8984375 7.53125 C-12.18128612 7.27143777 -16.90743869 6.43666294 -22 5 C-22 4.34 -22 3.68 -22 3 C-14.99840215 0.01783795 -7.53615951 -2.28158958 0 0 Z " fill="#f9d000" transform="translate(1475,13)"/>
<path d="M0 0 C1.375 2.0625 1.375 2.0625 2 4 C1.360625 4.268125 0.72125 4.53625 0.0625 4.8125 C-2.33131686 5.88667752 -2.33131686 5.88667752 -3 9 C-8.63655304 10.40913826 -11.44153116 9.73956036 -16.49609375 6.91015625 C-16.99238281 6.60980469 -17.48867188 6.30945313 -18 6 C-18 5.01 -18 4.02 -18 3 C-16.13133238 2.29546997 -14.25468584 1.61208312 -12.375 0.9375 C-11.33085938 0.55464844 -10.28671875 0.17179687 -9.2109375 -0.22265625 C-5.68974551 -1.07511027 -3.47299658 -0.96920835 0 0 Z " fill="#f9d000" transform="translate(978,24)"/>
<path d="M0 0 C1.216875 -0.00515625 2.43375 -0.0103125 3.6875 -0.015625 C6.75288791 0.23018441 8.43662952 0.6350766 11 2.25 C10.67 3.57 10.34 4.89 10 6.25 C6.30486069 7.4168861 2.79299017 7.38310829 -1.0625 7.375 C-2.90521484 7.37886719 -2.90521484 7.37886719 -4.78515625 7.3828125 C-8 7.25 -8 7.25 -11 6.25 C-11 4.93 -11 3.61 -11 2.25 C-7.36211946 -0.04186474 -4.2381715 -0.01795835 0 0 Z " fill="#f9d000" transform="translate(1254,3.75)"/>
<path d="M0 0 C1.15371094 0.09023438 2.30742188 0.18046875 3.49609375 0.2734375 C6.5625 0.625 6.5625 0.625 9.5625 1.625 C9.5625 3.605 9.5625 5.585 9.5625 7.625 C6.93739764 9.38140906 5.80013202 9.65935264 2.6171875 9.19921875 C1.56789063 8.90660156 0.51859375 8.61398438 -0.5625 8.3125 C-1.61695313 8.02761719 -2.67140625 7.74273437 -3.7578125 7.44921875 C-6.4375 6.625 -6.4375 6.625 -8.4375 5.625 C-8.4375 3.975 -8.4375 2.325 -8.4375 0.625 C-5.53753055 -0.82498472 -3.20985447 -0.26480405 0 0 Z " fill="#f9d000" transform="translate(1580.4375,20.375)"/>
<path d="M0 0 C1.14210938 0.07863281 2.28421875 0.15726563 3.4609375 0.23828125 C6.34198835 0.64731933 8.16169677 1.20102392 10.625 2.6875 C9.8125 5.625 9.8125 5.625 8.625 8.6875 C4.95860951 9.90963016 3.27206569 9.32605512 -0.4375 8.375 C-1.50097656 8.11074219 -2.56445312 7.84648437 -3.66015625 7.57421875 C-6.375 6.6875 -6.375 6.6875 -8.375 4.6875 C-8.375 3.3675 -8.375 2.0475 -8.375 0.6875 C-5.49277664 -0.75361168 -3.19463279 -0.24049483 0 0 Z " fill="#f9d000" transform="translate(513.375,20.3125)"/>
<path d="M0 0 C1.2375 -0.01417969 2.475 -0.02835937 3.75 -0.04296875 C7 0.1875 7 0.1875 10 2.1875 C10 3.5075 10 4.8275 10 6.1875 C6.07143808 7.11446405 2.40720774 7.32176944 -1.625 7.3125 C-2.75164062 7.31507812 -3.87828125 7.31765625 -5.0390625 7.3203125 C-8 7.1875 -8 7.1875 -11 6.1875 C-10.67 4.5375 -10.34 2.8875 -10 1.1875 C-6.50953395 0.02401132 -3.67722983 0.01915224 0 0 Z " fill="#f9d000" transform="translate(188,3.8125)"/>
<path d="M0 0 C-0.36017809 2.61129112 -0.78460525 3.78809544 -2.6875 5.66015625 C-5.70001332 7.40558204 -7.33190085 7.09432449 -10.75 6.625 C-15.78889862 6.05071376 -20.01558289 6.13731242 -25 7 C-25.33 6.01 -25.66 5.02 -26 4 C-23.05024389 2.33986545 -20.66695484 1.67370556 -17.3046875 1.3671875 C-16.42425781 1.28339844 -15.54382813 1.19960938 -14.63671875 1.11328125 C-13.72535156 1.03464844 -12.81398438 0.95601562 -11.875 0.875 C-10.95589844 0.78863281 -10.03679688 0.70226562 -9.08984375 0.61328125 C-2.46056548 0 -2.46056548 0 0 0 Z " fill="#f9d000" transform="translate(845,28)"/>
<path d="M0 0 C1.33251538 0.19322728 2.66581215 0.38118035 4 0.5625 C4.99 0.706875 5.98 0.85125 7 1 C7.33 2.32 7.66 3.64 8 5 C1.4 5 -5.2 5 -12 5 C-12 2 -12 2 -10.5 0.25 C-6.88252928 -1.55873536 -3.815067 -0.71488269 0 0 Z " fill="#f9d000" transform="translate(1110,71)"/>
<path d="M0 0 C0 0.99 0 1.98 0 3 C-6.93 3 -13.86 3 -21 3 C-17.7734654 -6.6796038 -7.54596576 -1.76243645 0 0 Z " fill="#f9d000" transform="translate(52,73)"/>
<path d="M0 0 C0.98484375 0.02707031 1.9696875 0.05414063 2.984375 0.08203125 C3.73203125 0.11683594 4.4796875 0.15164062 5.25 0.1875 C3.453125 5.0234375 3.453125 5.0234375 1.625 6.5 C-1.88766465 7.51682398 -5.09900507 7.30919983 -8.75 7.1875 C-9.08 5.8675 -9.41 4.5475 -9.75 3.1875 C-6.47698081 0.21840402 -4.36934238 -0.15604794 0 0 Z " fill="#f9d000" transform="translate(36.75,86.8125)"/>
<path d="M0 0 C0 0.99 0 1.98 0 3 C-5.28 3 -10.56 3 -16 3 C-16.33 3.99 -16.66 4.98 -17 6 C-17.99 6 -18.98 6 -20 6 C-20 5.01 -20 4.02 -20 3 C-19.01 3 -18.02 3 -17 3 C-17 2.01 -17 1.02 -17 0 C-12.2418865 -2.37905675 -5.00367323 -1.33431286 0 0 Z " fill="#f9d000" transform="translate(1309,31)"/>
<path d="M0 0 C0.99773437 0.02320312 1.99546875 0.04640625 3.0234375 0.0703125 C4.52777344 0.09738281 4.52777344 0.09738281 6.0625 0.125 C6.83335938 0.14820312 7.60421875 0.17140625 8.3984375 0.1953125 C7.14866994 3.84847921 6.72744997 4.97597086 3.3984375 7.1953125 C1.13671875 7.171875 1.13671875 7.171875 -1.2890625 6.8203125 C-2.09730469 6.70945312 -2.90554688 6.59859375 -3.73828125 6.484375 C-4.66060547 6.34128906 -4.66060547 6.34128906 -5.6015625 6.1953125 C-4.84252152 2.40010759 -4.24028239 0.31833952 0 0 Z " fill="#f9d000" transform="translate(1099.6015625,86.8046875)"/>
<path d="M0 0 C1.50433594 0.01353516 1.50433594 0.01353516 3.0390625 0.02734375 C3.80992188 0.03894531 4.58078125 0.05054687 5.375 0.0625 C5.375 1.0525 5.375 2.0425 5.375 3.0625 C2.96954362 4.26522819 1.42503047 4.16321472 -1.25 4.125 C-2.47589844 4.11146484 -2.47589844 4.11146484 -3.7265625 4.09765625 C-4.66628906 4.08025391 -4.66628906 4.08025391 -5.625 4.0625 C-5.955 4.7225 -6.285 5.3825 -6.625 6.0625 C-9.265 6.0625 -11.905 6.0625 -14.625 6.0625 C-14.625 5.0725 -14.625 4.0825 -14.625 3.0625 C-12.315 3.0625 -10.005 3.0625 -7.625 3.0625 C-7.625 2.4025 -7.625 1.7425 -7.625 1.0625 C-4.98041621 -0.25979189 -2.94738699 -0.03427194 0 0 Z " fill="#f9d000" transform="translate(1300.625,18.9375)"/>
<path d="M0 0 C1.50433594 0.01353516 1.50433594 0.01353516 3.0390625 0.02734375 C3.80992187 0.03894531 4.58078125 0.05054687 5.375 0.0625 C4.715 1.3825 4.055 2.7025 3.375 4.0625 C-4.375 4.1875 -4.375 4.1875 -6.625 3.0625 C-6.625 4.0525 -6.625 5.0425 -6.625 6.0625 C-9.265 6.0625 -11.905 6.0625 -14.625 6.0625 C-14.625 5.0725 -14.625 4.0825 -14.625 3.0625 C-12.315 3.0625 -10.005 3.0625 -7.625 3.0625 C-7.625 2.4025 -7.625 1.7425 -7.625 1.0625 C-4.98041621 -0.25979189 -2.94738699 -0.03427194 0 0 Z " fill="#f9d000" transform="translate(234.625,18.9375)"/>
<path d="M0 0 C0 0.99 0 1.98 0 3 C-5.61 3 -11.22 3 -17 3 C-17 2.01 -17 1.02 -17 0 C-12.11132099 -2.44433951 -5.14846902 -1.05609621 0 0 Z " fill="#f9d000" transform="translate(243,31)"/>
<path d="M0 0 C0.86625 0.3403125 0.86625 0.3403125 1.75 0.6875 C2.08 2.6675 2.41 4.6475 2.75 6.6875 C0.11 7.0175 -2.53 7.3475 -5.25 7.6875 C-5.58 6.0375 -5.91 4.3875 -6.25 2.6875 C-2.80384615 -0.38942308 -2.80384615 -0.38942308 0 0 Z " fill="#f9d000" transform="translate(184.25,24.3125)"/>
<path d="M0 0 C1.8125 0.75 1.8125 0.75 2.8125 1.75 C2.85313832 3.41617115 2.855221 5.08388095 2.8125 6.75 C-0.1575 6.75 -3.1275 6.75 -6.1875 6.75 C-6.1875 2.75 -6.1875 2.75 -4.4375 0.9375 C-2.1875 -0.25 -2.1875 -0.25 0 0 Z " fill="#f9d000" transform="translate(1250.1875,24.25)"/>
<path d="M0 0 C4.62 0 9.24 0 14 0 C13.34 1.32 12.68 2.64 12 4 C8.7 4 5.4 4 2 4 C1.34 2.68 0.68 1.36 0 0 Z " fill="#f9d000" transform="translate(1123,71)"/>
<path d="M0 0 C0.89203125 0.00902344 1.7840625 0.01804688 2.703125 0.02734375 C3.37859375 0.03894531 4.0540625 0.05054688 4.75 0.0625 C4.42 1.0525 4.09 2.0425 3.75 3.0625 C2.76 3.0625 1.77 3.0625 0.75 3.0625 C0.42 3.7225 0.09 4.3825 -0.25 5.0625 C-4.705 4.0725 -4.705 4.0725 -9.25 3.0625 C-9.25 2.4025 -9.25 1.7425 -9.25 1.0625 C-6.09493858 0.12630187 -3.28413498 -0.0432123 0 0 Z " fill="#f9d000" transform="translate(1177.25,47.9375)"/>
<path d="M0 0 C0.99386719 0.00902344 1.98773438 0.01804688 3.01171875 0.02734375 C4.15060547 0.04474609 4.15060547 0.04474609 5.3125 0.0625 C5.3125 0.7225 5.3125 1.3825 5.3125 2.0625 C1.39738397 4.67257735 -2.1394666 4.28256613 -6.6875 4.0625 C-7.3475 3.7325 -8.0075 3.4025 -8.6875 3.0625 C-8.6875 2.4025 -8.6875 1.7425 -8.6875 1.0625 C-5.53819107 0.01273036 -3.29935544 -0.03881595 0 0 Z " fill="#f9d000" transform="translate(110.6875,47.9375)"/>
<path d="M0 0 C3.96 0 7.92 0 12 0 C11.34 1.32 10.68 2.64 10 4 C7.03 4 4.06 4 1 4 C0.67 2.68 0.34 1.36 0 0 Z " fill="#f9d000" transform="translate(58,71)"/>
<path d="M0 0 C0 1.32 0 2.64 0 4 C-2.64 4 -5.28 4 -8 4 C-8.33 2.68 -8.66 1.36 -9 0 C-5.93109813 -1.53445094 -3.29905734 -0.54984289 0 0 Z " fill="#f9d000" transform="translate(1098,96)"/>
<path d="M0 0 C1.8871875 0.0309375 1.8871875 0.0309375 3.8125 0.0625 C3.8125 1.0525 3.8125 2.0425 3.8125 3.0625 C2.35513913 3.25741452 0.89655407 3.44319358 -0.5625 3.625 C-1.37460937 3.72941406 -2.18671875 3.83382812 -3.0234375 3.94140625 C-5.1875 4.0625 -5.1875 4.0625 -7.1875 3.0625 C-7.1875 2.4025 -7.1875 1.7425 -7.1875 1.0625 C-4.43671116 0.14557039 -2.82801087 -0.04636083 0 0 Z " fill="#f9d000" transform="translate(59.1875,88.9375)"/>
<path d="M0 0 C0.33 0.99 0.66 1.98 1 3 C-2.3 3.33 -5.6 3.66 -9 4 C-9.33 3.01 -9.66 2.02 -10 1 C-6.52674819 -0.1577506 -3.63932552 -0.06866652 0 0 Z " fill="#f9d000" transform="translate(1129,89)"/>
<path d="M0 0 C2.97 0 5.94 0 9 0 C9.33 0.99 9.66 1.98 10 3 C2.25 4.125 2.25 4.125 0 3 C0 2.01 0 1.02 0 0 Z " fill="#f9d000" transform="translate(22,64)"/>
<path d="M0 0 C2.97 0 5.94 0 9 0 C9 0.99 9 1.98 9 3 C2.375 4.125 2.375 4.125 -1 3 C-0.67 2.01 -0.34 1.02 0 0 Z " fill="#f9d000" transform="translate(1089,64)"/>
<path d="M0 0 C2.31 0 4.62 0 7 0 C7.33 0.99 7.66 1.98 8 3 C1.25 4.125 1.25 4.125 -1 3 C-0.67 2.01 -0.34 1.02 0 0 Z " fill="#f9d000" transform="translate(226,64)"/>
<path d="M0 0 C0.66 0.33 1.32 0.66 2 1 C2 1.66 2 2.32 2 3 C-1.69418201 4.231394 -4.2056261 3.64432764 -8 3 C-8 2.34 -8 1.68 -8 1 C-5.26094655 -0.36952673 -3.02912668 -0.12621361 0 0 Z " fill="#f9d000" transform="translate(1044,68)"/>
<path d="M0 0 C0.99 0 1.98 0 3 0 C3.33 1.65 3.66 3.3 4 5 C2.02 5.33 0.04 5.66 -2 6 C-1.125 1.125 -1.125 1.125 0 0 Z " fill="#f9d000" transform="translate(1283,32)"/>
<path d="M0 0 C2.31 0 4.62 0 7 0 C7.33 0.99 7.66 1.98 8 3 C5.69 3.33 3.38 3.66 1 4 C0.67 2.68 0.34 1.36 0 0 Z " fill="#f9d000" transform="translate(1292,64)"/>
<path d="M0 0 C2.97 0.495 2.97 0.495 6 1 C6 1.99 6 2.98 6 4 C3.36 4 0.72 4 -2 4 C-1.34 2.68 -0.68 1.36 0 0 Z " fill="#f9d000" transform="translate(218,50)"/>
<path d="M0 0 C2.64 0 5.28 0 8 0 C8 0.99 8 1.98 8 3 C5.36 3 2.72 3 0 3 C0 2.01 0 1.02 0 0 Z " fill="#f9d000" transform="translate(1150,84)"/>
<path d="M0 0 C1.65 0 3.3 0 5 0 C5.33 1.32 5.66 2.64 6 4 C3.50907189 5.24546405 2.58919267 4.7767578 0 4 C0 2.68 0 1.36 0 0 Z " fill="#f9d000" transform="translate(940,7)"/>
<path d="M0 0 C2.64 0 5.28 0 8 0 C7.67 0.99 7.34 1.98 7 3 C4.69 3 2.38 3 0 3 C0 2.01 0 1.02 0 0 Z " fill="#f9d000" transform="translate(84,84)"/>
<path d="M0 0 C0 0.99 0 1.98 0 3 C-2.31 3 -4.62 3 -7 3 C-7 2.01 -7 1.02 -7 0 C-4.3333581 -1.33332095 -2.83319697 -0.67102033 0 0 Z " fill="#f9d000" transform="translate(1290,51)"/>
<path d="M0 0 C2.31 0 4.62 0 7 0 C7 0.99 7 1.98 7 3 C5.02 3.33 3.04 3.66 1 4 C0.67 2.68 0.34 1.36 0 0 Z " fill="#f9d000" transform="translate(1160,50)"/>
<path d="M0 0 C1.98 0 3.96 0 6 0 C6.33 0.99 6.66 1.98 7 3 C4.69 3.33 2.38 3.66 0 4 C0 2.68 0 1.36 0 0 Z " fill="#f9d000" transform="translate(94,50)"/>
<path d="M0 0 C0.99 0.33 1.98 0.66 3 1 C3 2.32 3 3.64 3 5 C1.35 5.33 -0.3 5.66 -2 6 C-1.125 1.125 -1.125 1.125 0 0 Z " fill="#f9d000" transform="translate(217,32)"/>
<path d="M0 0 C2.125 0.9375 2.125 0.9375 4 2 C4 2.99 4 3.98 4 5 C1.69 4.67 -0.62 4.34 -3 4 C-2.67 3.01 -2.34 2.02 -2 1 C-1.34 0.67 -0.68 0.34 0 0 Z " fill="#f9d000" transform="translate(1530,25)"/>
<path d="M0 0 C2.97 0.33 5.94 0.66 9 1 C9 1.66 9 2.32 9 3 C6.03 3 3.06 3 0 3 C0 2.01 0 1.02 0 0 Z " fill="#f9d000" transform="translate(283,11)"/>
<path d="M0 0 C1.32 0 2.64 0 4 0 C3.625 1.9375 3.625 1.9375 3 4 C2.01 4.495 2.01 4.495 1 5 C0.01 4.67 -0.98 4.34 -2 4 C-1.34 2.68 -0.68 1.36 0 0 Z " fill="#f9d000" transform="translate(1179,68)"/>
<path d="M0 0 C-0.33 1.32 -0.66 2.64 -1 4 C-2.65 4 -4.3 4 -6 4 C-6 3.01 -6 2.02 -6 1 C-4 0 -4 0 0 0 Z " fill="#f9d000" transform="translate(117,68)"/>
<path d="M0 0 C0.33 0.99 0.66 1.98 1 3 C-1.6666419 4.33332095 -3.16680303 3.67102033 -6 3 C-6 2.01 -6 1.02 -6 0 C-3 -1 -3 -1 0 0 Z " fill="#f9d000" transform="translate(467,26)"/>
<path d="M0 0 C2.64 0.33 5.28 0.66 8 1 C8 1.66 8 2.32 8 3 C5.03 3 2.06 3 -1 3 C-0.67 2.01 -0.34 1.02 0 0 Z " fill="#f9d000" transform="translate(1350,11)"/>
<path d="M0 0 C2.31 0 4.62 0 7 0 C7 0.66 7 1.32 7 2 C4.69 2.66 2.38 3.32 0 4 C0 2.68 0 1.36 0 0 Z " fill="#f9d000" transform="translate(0,54)"/>
<path d="M0 0 C1.65 0.33 3.3 0.66 5 1 C5 1.66 5 2.32 5 3 C1.25 4.125 1.25 4.125 -1 3 C-0.67 2.01 -0.34 1.02 0 0 Z " fill="#f9d000" transform="translate(75,83)"/>
<path d="M0 0 C0.66 0.33 1.32 0.66 2 1 C1.67 2.32 1.34 3.64 1 5 C-0.32 5 -1.64 5 -3 5 C-2.625 3.0625 -2.625 3.0625 -2 1 C-1.34 0.67 -0.68 0.34 0 0 Z " fill="#f9d000" transform="translate(1282,78)"/>
<path d="M0 0 C1.98 0 3.96 0 6 0 C6 0.99 6 1.98 6 3 C4.02 3 2.04 3 0 3 C0 2.01 0 1.02 0 0 Z " fill="#f9d000" transform="translate(594,40)"/>
<path d="M0 0 C1.98 0 3.96 0 6 0 C5.67 0.99 5.34 1.98 5 3 C3.35 3 1.7 3 0 3 C0 2.01 0 1.02 0 0 Z " fill="#f9d000" transform="translate(97,80)"/>
<path d="M0 0 C0.33 1.32 0.66 2.64 1 4 C-0.32 4.33 -1.64 4.66 -3 5 C-3.33 4.34 -3.66 3.68 -4 3 C-3 1 -3 1 0 0 Z " fill="#f9d000" transform="translate(216,78)"/>
<path d="M0 0 C0.99 0.33 1.98 0.66 3 1 C3 1.99 3 2.98 3 4 C1.68 4.33 0.36 4.66 -1 5 C-1 1 -1 1 0 0 Z " fill="#f9d000" transform="translate(1304,63)"/>
<path d="M0 0 C1.98 0 3.96 0 6 0 C6 0.99 6 1.98 6 3 C4.35 3 2.7 3 1 3 C0.67 2.01 0.34 1.02 0 0 Z " fill="#f9d000" transform="translate(1660,40)"/>
<path d="M0 0 C1.65 0 3.3 0 5 0 C5 0.99 5 1.98 5 3 C4.01 3.33 3.02 3.66 2 4 C1.34 3.67 0.68 3.34 0 3 C0 2.01 0 1.02 0 0 Z " fill="#f9d000" transform="translate(1141,83)"/>
<path d="M0 0 C-0.33 1.32 -0.66 2.64 -1 4 C-2.32 3.67 -3.64 3.34 -5 3 C-5 2.34 -5 1.68 -5 1 C-3 0 -3 0 0 0 Z " fill="#f9d000" transform="translate(94,71)"/>
<path d="M0 0 C1.65 0 3.3 0 5 0 C5.33 0.99 5.66 1.98 6 3 C4.35 3 2.7 3 1 3 C0.67 2.01 0.34 1.02 0 0 Z " fill="#f9d000" transform="translate(1269,34)"/>
<path d="M0 0 C1.65 0 3.3 0 5 0 C4.67 1.32 4.34 2.64 4 4 C2.68 3.34 1.36 2.68 0 2 C0 1.34 0 0.68 0 0 Z " fill="#f9d000" transform="translate(203,34)"/>
<path d="M0 0 C1.65 0.33 3.3 0.66 5 1 C5 1.66 5 2.32 5 3 C3.02 3 1.04 3 -1 3 C-0.67 2.01 -0.34 1.02 0 0 Z " fill="#f9d000" transform="translate(934,9)"/>
<path d="M0 0 C1.65 0 3.3 0 5 0 C5 0.99 5 1.98 5 3 C3.35 3 1.7 3 0 3 C0 2.01 0 1.02 0 0 Z " fill="#f9d000" transform="translate(1109,63)"/>
<path d="M0 0 C1.65 0 3.3 0 5 0 C5 1.32 5 2.64 5 4 C2.525 3.01 2.525 3.01 0 2 C0 1.34 0 0.68 0 0 Z " fill="#f9d000" transform="translate(192,35)"/>
<path d="M0 0 C2.97 0.495 2.97 0.495 6 1 C6 1.66 6 2.32 6 3 C4.35 3 2.7 3 1 3 C0.67 2.01 0.34 1.02 0 0 Z " fill="#f9d000" transform="translate(1246,33)"/>
<path d="M0 0 C0.33 0.99 0.66 1.98 1 3 C-0.65 3.33 -2.3 3.66 -4 4 C-4 3.01 -4 2.02 -4 1 C-2 0 -2 0 0 0 Z " fill="#f9d000" transform="translate(227,26)"/>
<path d="M0 0 C1.65 0 3.3 0 5 0 C5 0.99 5 1.98 5 3 C3.35 3 1.7 3 0 3 C0 2.01 0 1.02 0 0 Z " fill="#f9d000" transform="translate(731,1)"/>
<path d="M0 0 C0.99 0 1.98 0 3 0 C2.67 1.32 2.34 2.64 2 4 C1.01 4 0.02 4 -1 4 C-0.67 2.68 -0.34 1.36 0 0 Z " fill="#f9d000" transform="translate(1157,71)"/>
<path d="M0 0 C0.99 0.99 1.98 1.98 3 3 C1.35 3.33 -0.3 3.66 -2 4 C-2 3.01 -2 2.02 -2 1 C-1.34 0.67 -0.68 0.34 0 0 Z " fill="#f9d000" transform="translate(238,63)"/>
<path d="M0 0 C2.475 0.495 2.475 0.495 5 1 C5 1.66 5 2.32 5 3 C3.35 3 1.7 3 0 3 C0 2.01 0 1.02 0 0 Z " fill="#f9d000" transform="translate(43,63)"/>
<path d="M0 0 C1.65 0 3.3 0 5 0 C5.33 0.99 5.66 1.98 6 3 C3.03 2.505 3.03 2.505 0 2 C0 1.34 0 0.68 0 0 Z " fill="#f9d000" transform="translate(1258,35)"/>
<path d="M0 0 C1.32 0.33 2.64 0.66 4 1 C4 1.99 4 2.98 4 4 C2.68 3.67 1.36 3.34 0 3 C0 2.01 0 1.02 0 0 Z " fill="#f9d000" transform="translate(970,35)"/>
<path d="M0 0 C2.97 0.495 2.97 0.495 6 1 C6 1.66 6 2.32 6 3 C4.35 3 2.7 3 1 3 C0.67 2.01 0.34 1.02 0 0 Z " fill="#f9d000" transform="translate(180,33)"/>
<path d="M0 0 C0.99 0.33 1.98 0.66 3 1 C3 1.99 3 2.98 3 4 C1.68 4 0.36 4 -1 4 C-0.67 2.68 -0.34 1.36 0 0 Z " fill="#f9d000" transform="translate(1291,26)"/>
<path d="M0 0 C2.475 0.495 2.475 0.495 5 1 C5 1.66 5 2.32 5 3 C3.35 3 1.7 3 0 3 C0 2.01 0 1.02 0 0 Z " fill="#f9d000" transform="translate(1582,34)"/>
<path d="M0 0 C1.98 0.495 1.98 0.495 4 1 C4 1.66 4 2.32 4 3 C2.35 3 0.7 3 -1 3 C-0.67 2.01 -0.34 1.02 0 0 Z " fill="#f9d000" transform="translate(516,34)"/>
<path d="M0 0 C1.32 0 2.64 0 4 0 C4.33 0.99 4.66 1.98 5 3 C3.35 3 1.7 3 0 3 C0 2.01 0 1.02 0 0 Z " fill="#f9d000" transform="translate(1240,22)"/>
<path d="M0 0 C1.32 0 2.64 0 4 0 C3.67 1.32 3.34 2.64 3 4 C2.01 3.67 1.02 3.34 0 3 C0 2.01 0 1.02 0 0 Z " fill="#f9d000" transform="translate(1221,6)"/>
<path d="M0 0 C1.32 0 2.64 0 4 0 C3.67 1.32 3.34 2.64 3 4 C2.01 3.67 1.02 3.34 0 3 C0 2.01 0 1.02 0 0 Z " fill="#f9d000" transform="translate(155,6)"/>
<path d="M0 0 C1.32 0 2.64 0 4 0 C4 0.99 4 1.98 4 3 C2.68 3 1.36 3 0 3 C0 2.01 0 1.02 0 0 Z " fill="#f9d000" transform="translate(1149,70)"/>
<path d="M0 0 C1.32 0 2.64 0 4 0 C4 0.99 4 1.98 4 3 C2.68 3 1.36 3 0 3 C0 2.01 0 1.02 0 0 Z " fill="#f9d000" transform="translate(1263,51)"/>
<path d="M0 0 C1.32 0 2.64 0 4 0 C4 0.99 4 1.98 4 3 C2.68 3 1.36 3 0 3 C0 2.01 0 1.02 0 0 Z " fill="#f9d000" transform="translate(1640,43)"/>
<path d="M0 0 C1.32 0 2.64 0 4 0 C4 0.99 4 1.98 4 3 C2.68 3 1.36 3 0 3 C0 2.01 0 1.02 0 0 Z " fill="#f9d000" transform="translate(174,22)"/>
<path d="M0 0 C1.32 0.33 2.64 0.66 4 1 C3.67 1.99 3.34 2.98 3 4 C2.01 3.67 1.02 3.34 0 3 C0 2.01 0 1.02 0 0 Z " fill="#f9d000" transform="translate(1564,12)"/>
<path d="M0 0 C1.32 0.33 2.64 0.66 4 1 C4 1.66 4 2.32 4 3 C2.68 3 1.36 3 0 3 C0 2.01 0 1.02 0 0 Z " fill="#f9d000" transform="translate(1113,90)"/>
<path d="M0 0 C0.99 0 1.98 0 3 0 C3 0.99 3 1.98 3 3 C1.68 3 0.36 3 -1 3 C-0.67 2.01 -0.34 1.02 0 0 Z " fill="#f9d000" transform="translate(1301,87)"/>
<path d="M0 0 C0.99 0 1.98 0 3 0 C3 0.99 3 1.98 3 3 C2.01 3.33 1.02 3.66 0 4 C-0.33 3.01 -0.66 2.02 -1 1 C-0.67 0.67 -0.34 0.34 0 0 Z " fill="#f9d000" transform="translate(83,70)"/>
<path d="M0 0 C1.32 0.33 2.64 0.66 4 1 C4 1.66 4 2.32 4 3 C2.68 3 1.36 3 0 3 C0 2.01 0 1.02 0 0 Z " fill="#f9d000" transform="translate(197,51)"/>
<path d="M0 0 C1.32 0 2.64 0 4 0 C4 0.99 4 1.98 4 3 C2.68 2.67 1.36 2.34 0 2 C0 1.34 0 0.68 0 0 Z " fill="#f9d000" transform="translate(222,34)"/>
<path d="M0 0 C1.32 0 2.64 0 4 0 C3.67 0.99 3.34 1.98 3 3 C2.01 3 1.02 3 0 3 C0 2.01 0 1.02 0 0 Z " fill="#f9d000" transform="translate(1344,33)"/>
<path d="M0 0 C1.32 0 2.64 0 4 0 C4 0.99 4 1.98 4 3 C2.68 2.67 1.36 2.34 0 2 C0 1.34 0 0.68 0 0 Z " fill="#f9d000" transform="translate(1485,13)"/>
<path d="M0 0 C1.32 0.33 2.64 0.66 4 1 C4 1.66 4 2.32 4 3 C2.68 3 1.36 3 0 3 C0 2.01 0 1.02 0 0 Z " fill="#f9d000" transform="translate(419,13)"/>
<path d="M0 0 C1.65 0 3.3 0 5 0 C5 0.66 5 1.32 5 2 C3.35 2 1.7 2 0 2 C0 1.34 0 0.68 0 0 Z " fill="#f9d000" transform="translate(277,33)"/>
<path d="M0 0 C0.99 0 1.98 0 3 0 C3 0.99 3 1.98 3 3 C2.01 3 1.02 3 0 3 C0 2.01 0 1.02 0 0 Z " fill="#f9d000" transform="translate(47,90)"/>
<path d="M0 0 C0.99 0 1.98 0 3 0 C3 0.99 3 1.98 3 3 C2.01 3 1.02 3 0 3 C0 2.01 0 1.02 0 0 Z " fill="#f9d000" transform="translate(972,77)"/>
<path d="M0 0 C0.99 0 1.98 0 3 0 C3 0.99 3 1.98 3 3 C2.01 3 1.02 3 0 3 C0 2.01 0 1.02 0 0 Z " fill="#f9d000" transform="translate(574,43)"/>
<path d="M0 0 C0.99 0 1.98 0 3 0 C3 0.99 3 1.98 3 3 C2.01 3 1.02 3 0 3 C0 2.01 0 1.02 0 0 Z " fill="#f9d000" transform="translate(498,12)"/>
<path d="M0 0 C0.66 0 1.32 0 2 0 C2 0.99 2 1.98 2 3 C1.01 3 0.02 3 -1 3 C-0.67 2.01 -0.34 1.02 0 0 Z " fill="#f9d000" transform="translate(235,87)"/>
<path d="M0 0 C0.99 0 1.98 0 3 0 C3 0.66 3 1.32 3 2 C2.01 2 1.02 2 0 2 C0 1.34 0 0.68 0 0 Z " fill="#f9d000" transform="translate(1246,39)"/>
<path d="M0 0 C0.99 0 1.98 0 3 0 C3 0.66 3 1.32 3 2 C2.01 2 1.02 2 0 2 C0 1.34 0 0.68 0 0 Z " fill="#f9d000" transform="translate(180,39)"/>
</svg>
